<svg xmlns="http://www.w3.org/2000/svg" viewBox="0 0 261.03 423.6"><defs><style>.cls-1{fill:#231f20;}.cls-2{fill:none;}.cls-3{fill:#fff;}</style></defs><title>Asset 3</title><g id="Layer_2" data-name="Layer 2"><g id="Layer_1-2" data-name="Layer 1"><path class="cls-1" d="M96.7,423.58c-3.15,0-6.3-.39-9.38-.41-4.73,0-9.61,0-14.42,0-3.66,0-7.35.41-11,.4s-7.4-.4-11-.42c-2.32,0-4.64.44-7,.43-3.42,0-7-.38-10.54-.47a15.4,15.4,0,0,1-2-.38c-.35-.05-.75.28-1.1.24-.84-.09-1.65-.38-2.49-.47-1.24-.12-2.47-.25-3.71-.4-.75-.09-1.49-.23-2.2-.36-.3-.05-.57-.25-.87-.3-.47-.08-.51.12-1,0s-1.15-.32-1.73-.41c-1.56-.22-3.48-.15-5.1-1.2A15.26,15.26,0,0,0,11,418.44a18.38,18.38,0,0,1-2.53-1,8.94,8.94,0,0,1-2.76-3,24.61,24.61,0,0,1-2.79-6A48.28,48.28,0,0,1,.55,397.06c-.32-3.89-.48-7.79-.47-11.61,0-1,0-2.08,0-3.11,0-4.71.23-9.45.23-14.18S.45,358.69.45,354s-.07-9.5-.06-14.18C.4,333,.09,333,.1,326.15q0-9.7.06-19.42c0-4.26.17-4.26.18-8.52,0-.68-.1-.68-.1-1.35,0-1.2.12-2.44.17-3.67,0-.38.3-.65.41-.95s-.16-.53-.17-.69c0-1.57,0-3.15-.05-4.72C.51,284.59.35,282.27.34,280c0-1.44,0-2.9.06-4.31a53.26,53.26,0,0,0,.25-5.93,54.07,54.07,0,0,1-.08-6c.08-1.61.13-3.27.08-4.91-.17-5.14.06-10.36.09-15.41,0-2.38.15-4.75.15-7.13,0-6.58-.1-13.16-.15-19.74,0-4.53-.28-9.07-.32-13.6s.23-9.08.19-13.61C.54,183,.21,183,.14,176.52c0-1.68.15-3.38.13-5.06-.05-4,.09-8.06.09-12.09S0,151.24,0,147.18c0-4.22.23-8.44.23-12.66,0-6.49.18-13,.15-19.45q0-5.59,0-11.19c0-1.86-.33-3.73-.32-5.6,0-1.71.37-3.43.37-5.15,0-3.22-.06-6.44-.07-9.66,0-5.47,0-10.94,0-16.41,0-4.26-.06-8.91,0-13.77,0-4.48-.06-9.12,0-13.78,0-3.29.26-6.63.52-9.85,0-.1-.08-.1-.07-.2.05-.61.31-1.21.35-1.82a36.28,36.28,0,0,1,.75-6.78c.19-.72.36-1.44.52-2.16.57-2.61,1.21-5.31,3.12-7.72a6.73,6.73,0,0,0,.77-1.49c.17-.4.53-.73.76-1.14a10.88,10.88,0,0,1,5.6-4.29A39.24,39.24,0,0,1,27.11,1.13c2.23,0,4.51-.24,6.72-.39,2.42-.17,4.92-.33,7.4-.35,4,0,8.11-.17,12.16-.18s8.16.46,12.16.46C69.81.68,74.07.3,78.32.29c3.79,0,7.57.26,11.36.25S97.24.45,101,.44s7.75-.16,11.63-.17,7.76.13,11.64.12,7.51,0,11,0c.61,0,1.22,0,1.8,0a18.68,18.68,0,0,0,2.16.39c4.4-.19,8.82-.33,13.24-.39S161.37,0,165.77,0s8.87.51,13.25.54c4,0,8-.1,12-.08s8.15.22,12.58.27c4.1,0,8.35-.08,12.59,0,4.9.11,9.86.49,14.67.69,1.77.08,3.55-.16,5.31-.09a10.41,10.41,0,0,1,1.44.2c.15,0,.26.31.4.33.58.1.6,0,1.18.08,1.26.21,2.5.47,3.75.71a6.29,6.29,0,0,1,1.28.22c.08,0,.11.21.19.25s.34.22.51.23c1.17.11,2.6-.1,3.79,1,.79.7,1.55,1.54,2.43,2.19a30.07,30.07,0,0,1,3.38,2.9,14.5,14.5,0,0,1,4.55,8.79c.42,4,.74,8,.86,11.93s-.06,8,0,12c0,1.78.19,3.55.21,5.32.06,5.48.25,5.48.31,11,.05,5.1-.16,10.28-.11,15.48s0,10.33,0,15.47c0,6,.26,12,.17,17.87,0,1.71-.2,1.71-.23,3.42a2.47,2.47,0,0,1-.61,1.18,1.77,1.77,0,0,1,.45,1c0,1.84.17,3.68.19,5.52.05,4.73.25,9.63,0,14.44-.25,5.83-.42,11.71-.38,17.56s.35,11.78.48,17.56c0,.13-.17.14-.16.27.12,5.5.07,11,0,17.07-.05,5.72-.29,11.44-.35,17.15-.05,4.58.29,9.24.25,13.92s-.2,9.29-.21,13.91c0,3.05.06,6.15.19,9.16.09,2.2.41,4.47.45,6.71.05,2.9-.3,5.86-.31,8.72,0,1.94,0,3.89,0,5.84,0,4.06-.08,8.12,0,12.19,0,4.54.13,9.08.16,13.63,0,4.19.19,8.38.2,12.57s0,8.38,0,12.57c0,4.79.27,4.79.28,9.57,0,4.39-.33,8.86-.33,13.34s0,8.91,0,13.33c0,4.14.21,8.27.17,12.31,0,4.24-.08,8.38-.12,12.3-.05,4.43-.34,8.58-.39,12.3,0,2-.07,3.94-.19,5.86-.08,1.12-.26,2.24-.32,3.36s.25,2.28.21,3.41c-.06,2.14-.12,4.37-.34,6.54A21,21,0,0,1,256,414.51c-2.65,3.66-7,6.16-12.82,7.27a40.57,40.57,0,0,1-4.48.55c-.67.06-1.37-.23-2-.16s-1.43.53-2.17.63a49.69,49.69,0,0,1-4.95.48c-6.49.16-13-.08-18.51-.07s-11,.18-16.58.19-11.05.11-16.58.12-11-.17-16.58-.16c-4.14,0-4.14-.18-8.29-.18-5.29,0-10.59-.05-15.88-.05-5.8,0-11.69.15-17.61.16s-11.77.26-17.62.31C100.14,423.62,98.42,423.58,96.7,423.58ZM83.14,422.3c3.15,0,1.11-.31,4.19-.29,4.75,0,9.67,0,14.49,0,5.85-.05,11.75-.44,17.63-.45s11.82.36,17.62.37c5.3,0,10.59-.46,15.88-.46,4.15,0,4.15.3,8.29.29,5.53,0,11,.15,16.58.15s11.05-.41,16.58-.42,11,.18,16.58.17,12,0,18.45-.21a45.22,45.22,0,0,0,4.68-.43c.75-.1,1.53,0,2.29-.12s1.35-.33,2-.39a40.14,40.14,0,0,0,4.22-.37c5.31-1,8.84-3.4,11.23-6.71a18.9,18.9,0,0,0,3.67-9.66c.21-2.13.1-4.33.16-6.45,0-1.14.41-2.26.47-3.4s.1-2.26.18-3.4c.12-1.9.78-5.67.81-7.6.05-3.73-.07-8.12,0-12.84.06-4.11.07-8.46.12-12.85s.33-8.66.35-12.84c0-4.43,0-8.05-.2-11.64s-.51-7.19-.52-11.58c.3-6,.21-6,.51-11.9,0-4.19-.19-7.79-.41-11.4s-.28-7.23-.3-11.41c0-4.55.84-4.52.8-9.06,0-4.07-.28-8.55-.3-12.61,0-1.95-.5-8.06-.5-10,0-2.85.79-1.58.74-4.47,0-2.22-1.15-8.7-1.25-10.89-.13-3,.33-3.22.35-6.31,0-4.61,0-8.74,0-12.84s.27-8.26.32-12.84c0-2.86-.08-7.82-.05-12.77s0-9.92,0-12.77c.05-6.08-.42-8.22-.54-13.71,0-.13.12-.13.12-.27-.09-3.94-.13-8.31,0-12.83.08-4.23,0-8.6.18-12.84.17-4.49.68-8.85.85-12.82.2-4.78-1.13-6.37-1.18-11.09,0-1.84.15-3.68.14-5.52l0-.21s-.28.22-.34.12-.08-.37-.17-.52,0-.18,0-.37.08-.1.16-.27-.16-.38-.07-.51.61-.32.61-.45a32.51,32.51,0,0,1,0-3.42,138.86,138.86,0,0,0,1.15-17.92c0-6.89-.35-8-.58-15.09-.11-3.32-.33-8-.41-15.11,0-5.18,0-5.18-.05-10.36,0-1.77-.71-4.82-.72-6.59-.05-7.8,1.09-12.17.24-20.08-.31-2.88-1.86-9.2-4.32-11.69-.95-1-2.88-1.69-4.07-2.57-.9-.67-1.82-1.41-2.67-2.17-.68-.6,1-1,0-1-.25,0-2.84.09-3.1.06s-.19.17-.34.13-.57-.82-.73-.9-.27.5-.45.43c-5.88-2.24-4.87-1.6-5.46-1.53.1.46.45.13.78.45-.16,0-.43-.14-.6-.17-.38-.07-.79.24-1.13.23-1.77-.07-.29-.8-2.06-.88-4.79-.21-5.9-.64-10.78-.74-4.27-.1-10.06-.12-15.75-.26-6-.14-11.91-.41-15.76-.43-4,0-12,.12-16.06.09-4.28,0-8.24.13-12.11.26-4.06.14-8,.05-12.12.27-3.84.2-7.8.45-12.09.63-.85,0-3.31-.05-2.53-.21,4.12-.85-.13-1-2.17-.73-3.46.43-3.92.09-7.66.11s-7.77-.29-11.67-.4-7.79,0-11.67,0S95.47.82,91,.87s-8.85.4-12.63.41c-4.26,0-8.58-.2-12.84-.2-4,0-8.08-.11-12.17.06s-8.12.44-12.15.47c-2.41,0-4-.44-6.43-.27s-5.3.62-7.6.66c-4.78.08-9.25.5-13.62,2.29-1.91.79-5.09,2.41-6.06,4.1-.19.33-.27,1.19-.44,1.57a17.77,17.77,0,0,1-1.6,2.78c-1.69,2.13-1.7,4.31-2.25,6.86-.17.75-.38,1.2-.57,1.93-.55,2.1-.36,8.16-.58,6-.17-1.55-1.74,2.14.1,3,.39,1.2-.4,1.07-.64,2.32a63.34,63.34,0,0,0-.18,6.48c-.07,4.63-.34,8.93-.33,13,0,4.51,0,8.78,0,13,0,5.47.32,14.42.34,19.89,0,3.22.82,4.61.82,7.83C2.18,94.85,1,103,1,104.68S2,102,2,103.88c0,3.73.17,7.45.19,11.18,0,6.49.2,13,.19,19.46,0,4.22-.15,8.45-.18,12.68,0,4.05.11,8.11.11,12.17s-.12,8.11-.08,12.07c0,2.43.07,9.05,0,5.07.06,6.43-.12,6.43-.06,12.87,0,4.53.28,9.15.12,13.76s-.43,9.22-.39,13.75c.05,6.58.81,12.86.83,19.45,0,2.38.2,4.76.19,7.14,0,5-1.21,10.32-1,15.43.05,1.7.82,3.31.74,4.95a51.3,51.3,0,0,0-.21,5.82,53.59,53.59,0,0,1,0,6.08c-.08,1.38,0,2.82,0,4.22,0,2.26.1,4.57.19,6.8.06,1.58.38,3.15.42,4.73,0,.42-.48.77-.61,1.1a2.3,2.3,0,0,0-.17.63c0,1.2.21,2.43.22,3.61v1.36c0,4.27-.24,4.27-.25,8.53,0,6.47-1,12.63-1,19.1.36,7,.55,7,1,14,0,4.61.21,8.95.05,13.2-.17,4.41-.37,8.73-.53,13.17-.15,4.23-.32,8.56-.3,13.18,0,1,1.07,5,1.07,6.08,0,7.46-1.75,12.61.67,20a52.37,52.37,0,0,0,4,8.36,5.07,5.07,0,0,0,1.77,2.11c.65.4,2.68.37,3.16,1s1.59,1,2.42,1.5c1.14.74,3.9-.22,4.19,1.15.49,2.27,1.1.61,1.74.11,1.18.17,1.07.66,2.19,1.08.31.05-.71-.45-.4-.39.71.12,1.39.3,2.07.38,1.23.14,2.47.11,3.7.24.84.08,1.71-.06,2.55,0,.38,0,.76.19,1.15.25a14.86,14.86,0,0,0,1.71.35c3.56.1,7.31.91,10.71.92,2.32,0,4.42-1,6.74-1,3.63,0,8.13.14,12.63.31s9,.75,12.61.72C77.78,422.59,81.44,422.3,83.14,422.3Z"/><path class="cls-2" d="M238.24,233.53l-.15-.06c.16-.27.56-3.61.7-3.85,0-5.41,0-10.82,0-16.22V198.32l-1-.14c0,3.24-.2,6.48-.2,9.73,0,1.71-.34,3.36-.41,5.07,0,.78.8,1.74.77,2.52-.12,3.24-.19,6.48-.25,9.71q0,1.56.06,3.12c0,.37-.36.69-.29,1.06,0,0-.67,3.69-.66,3.73q0,3.65,0,7.29c0,.94-.52,1.09-1.54,1.09-5.83,0-11.66,0-17.48,0-1,0-2.05.08-3.08.12-1.71.06-3.44-.17-5.12.47a7.93,7.93,0,0,1-2.95.37c-2.43-.08-4.85-.32-7.28-.41-1.61-.06-3.24.17-4.83,0a10.23,10.23,0,0,0-4.62.69,5.08,5.08,0,0,0,1.16.12h27.28c4.86,0,9.72,0,14.57,0,1.5,0,3,0,4.49-.07.77,0,1.16-.24,1.19-.9.06-1.49.25-3,.32-4.45a6,6,0,0,0-.25-1.3C238.54,235.37,238.4,234.53,238.24,233.53Z"/><path d="M240.29,226.47c-.08-14.43-.07-28.85-.13-43.28a4.34,4.34,0,0,0-.41-1.39,8.48,8.48,0,0,0,.49-2c0-2.15-.15-4.29-.19-6.44-.1-5.69-.17-11.38-.26-17.06,0-2.69-.12-5.37-.13-8.06q-.09-19-.15-38.06c0-7.53,0-15.06,0-22.58,0-5.92-.11-11.83-.21-17.75-.09-5.72-.22-11.44-.35-17.16,0-1.89-.1-3.79-.23-5.68a4.14,4.14,0,0,0-.67-1.3l-.32.12c-.07.65-.18,1.29-.19,1.94q-.15,10.38-.28,20.78c0,.88-.46,2,1.71,2-1.74.6-1.76.6-1.72,1.94,0,1.79.16,3.59.16,5.38,0,6.51,0,13-.07,19.54-.1,5.61.42,11.21,0,16.82-.14,1.72.24,3.47.26,5.2,0,2.43-.13,4.85-.13,7.28,0,1.36.2,2.72.19,4.07,0,4.21-.12,8.42-.15,12.62,0,1.55.17,3.1.13,4.64,0,1.77-.31,3.53-.32,5.3,0,2.27.2,4.54.18,6.81,0,3.09-.16,6.19-.26,9.28a4.33,4.33,0,0,1-.16.86h-.35a12.67,12.67,0,0,1-.56-2.52c-.08-6.42-.1-12.84-.13-19.26-.05-13.75-.13-27.5-.14-41.26,0-5.24.15-10.48.22-15.72a.45.45,0,0,0-.07-.36,1.82,1.82,0,0,1,0-2.47,1.71,1.71,0,0,0,.27-1.17,15.64,15.64,0,0,1-.61-2.35q-.15-12.8-.17-25.6c0-10.12.05-20.25.06-30.37,0-2.23.2-2.3-3-2.3q-21.42-.08-42.85,0a19.9,19.9,0,0,0-2.86.41,1,1,0,0,1-.3,0,16.49,16.49,0,0,0-2.41-.36c-10.11,0-20.22.1-30.33.09q-25.92,0-51.84-.17l-37.14-.16c-2.67,0-5.33-.1-8-.08-3.67,0-7.35.17-11,.2-6.47,0-13,0-19.42,0-1,0-1.24.24-1.22,1,0,2.72,0,5.44,0,8.16,0,3.89,0,7.78,0,11.68,0,.57.15,1,1.25,1.17V28.05c6.55,0,12.89,0,19.24,0,4.53,0,9-.11,13.58-.11q16.88,0,33.75,0c9.22,0,18.45.12,27.67.13q34.41,0,68.82,0h18.69q12.07,0,24.16,0c.83,0,1.16.19,1.15.86,0,1.75-.15,3.52-.16,5.26-.05,9.74.13,19.49.2,29.23.07,9.24.07,18.48.14,27.72s.15,18.59.29,27.89c.12,8.13.42,16.26.47,24.39.09,14.93.06,29.86.06,44.79l.23,24.37c0,3.2.06,6.39.07,9.59,0,2.77.27,7.94.29,10.72,0,1.85,0,3.7,0,5.55v1.63c-.48,0-.83.05-1.19.05l-52.2,0q-26.1,0-52.19.06c-11.57,0-23.14.14-34.71.18q-20.09,0-40.18,0c-8.5,0-17-.11-25.49-.16-.95,0-1.67-.07-1.64-1,.06-1.89.08-3.79.1-5.68,0-3.23-.12-15.58-.09-18.81-.2-.19-.13-29.64-.13-29.8,0-3.82-.11-7.65-.1-11.48,0-9.46.12-18.92.13-28.38,0-6.45-.09-12.91-.12-19.36,0-4.54,0-9.08,0-13.63q0-7.53,0-15.07,0-7.2-.08-14.42c0-.81-.2-1.62-.2-2.43,0-2.3.08-4.59.12-6.89a.61.61,0,0,0-.13-.36c-.46-.59-1.05-.58-2-.19l1.44.25c-1.55,0-1.5.84-1.49,1.66,0,3,0,6,0,8.93,0,2.69.26,5.37.28,8.05,0,4.87-.07,9.74,0,14.61.07,7.64.22,15.28.31,22.92,0,.5-.21,1-.23,1.49s.09,1.09.13,1.64a5.94,5.94,0,0,1,.05,1.26,13.63,13.63,0,0,0-.38,1.35c0,2.68,0,5.37,0,8.05a5.59,5.59,0,0,0,.39,1.39A4.49,4.49,0,0,0,25,145.9c.11.82.62,1.63.65,2.44.17,6,.38,12,.36,18,0,9.59-.29,19.17-.36,28.75,0,4.59.14,9.17.21,13.76-.06.05.21,14.93.16,15s0,.25,0,.36c0,4.39.37,8.75.4,13.14a10.7,10.7,0,0,1-.08,1.7c-.34,2.08-.33,2.17,2.16,2.84.89.24,1.75,1,2.91.11.52-.38,1.58-.08,2.23.68a15.46,15.46,0,0,1-1.55.18c-2.26,0-4.52,0-6.78,0-1,0-1.23-.28-1.24-1,0-5.68-.33-12.07-.38-17.75q-.09-9.89-.17-19.76c-.08-9.27-.2-18.54-.22-27.81,0-8.85.14-17.71.12-26.57,0-12.42-.13-24.84-.21-37.27,0-6.86-.13-13.72-.15-20.59A2,2,0,0,0,21.46,90c0,.3-.07.54-.07.78q0,13.53.12,27.05.09,17.6.19,35.21c.07,11,.17,22,.24,33q.12,19.34.21,38.66c.07,4.91.09,10,.15,14.88,0,1.07,0,2.15.09,3.21s.67,1.5,2.09,1.55c1.9.07,3.8.14,5.7.16a4.92,4.92,0,0,0,1.21-.28,7.16,7.16,0,0,0,1.36.28c3.83,0,7.66,0,11.48,0,1,0,1.41-.22,1.35-1,0-.29.24-.59.38-.88l.35.13c0,.12-.05.24-.08.36-.25,1.18-.13,1.35,1.38,1.36,5.78,0,11.56.1,17.34.05,5.27-.05,10.53-.26,15.8-.35,1.09,0,2.2.22,3.3.23,5.66.06,11.32.12,17,.13,10.95,0,21.9,0,32.85,0,7.28,0,14.55-.22,21.83-.32.79,0,4.43.17,5.59.23l1.15,0c7.93,0,15.86.07,23.78.08q12.63,0,25.25,0,8.25,0,16.5-.05c.65,0,1.3-.2,1.95-.2,2.83,0,5.66.06,8.49,0a1.62,1.62,0,0,0,1.23-.75,9.85,9.85,0,0,0,.81-3.21M238.61,242c0,.66-.42.89-1.19.9-1.5,0-3,.06-4.49.07-4.85,0-9.71,0-14.57,0H191.08a5.08,5.08,0,0,1-1.16-.12,10.23,10.23,0,0,1,4.62-.69c1.59.15,3.22-.08,4.83,0,2.43.09,4.85.33,7.28.41a7.93,7.93,0,0,0,2.95-.37c1.68-.64,3.41-.41,5.12-.47,1,0,2.05-.11,3.08-.12,5.82,0,11.65,0,17.48,0,1,0,1.56-.15,1.54-1.09q0-3.65,0-7.29s.67-3.7.66-3.73c-.07-.37.31-.69.29-1.06q-.09-1.56-.06-3.12c.06-3.23.13-6.47.25-9.71,0-.78-.81-1.74-.77-2.52.07-1.71.41-3.36.41-5.07,0-3.25.2-6.49.2-9.73l1,.14V213.4c0,5.4,0,10.81,0,16.22-.14.24-.54,3.58-.7,3.85l.15.06c.16,1,.3,1.84.44,2.67a6,6,0,0,1,.25,1.3C238.86,239,238.67,240.46,238.61,242Z"/><path d="M13.52,323.69c0-.11-.08-.32-.14-.33-.58-.12-.58-.9-.56-1.74,0-.61,0-1.22,0-1.83s0-.83-.31-.84c-.49,0-.37-.74-.37-1.27s.27-.49.48-.43a.91.91,0,0,0,.25,0c0-.29,0-.56,0-.83,0-3.44,0-6.87,0-10.31,0-5.62-.11-11.24-.12-16.85q0-12.37,0-24.73c0-4.14.1-8.29.12-12.43,0-3.43,0-6.87,0-10.3q0-17.35.07-34.69c0-2.09,0-4.18,0-6.26,0-.77.13-1,.6-.86v1.55q0,10.35,0,20.71V233.9c0,7.41,0,14.82,0,22.22,0,5.1.08,10.21.12,15.31,0,4,.06,7.94.07,11.91q0,12.41,0,24.81v.64h-.48a2.22,2.22,0,0,1,.46,1.72c0,2.5-.07,5-.06,7.5,0,1.63.07,3.26.11,4.9,0,.36.06.83-.28.76Z"/><path d="M13.56,130.6c0,1.15.09,2.3.09,3.45q0,6.64,0,13.29c0,.5.06,1-.33,1.21a2.14,2.14,0,0,0-.16.87c0,.37,0,.75.06,1.23l.35-.61c.07.54.1.94-.23,1.19a1.52,1.52,0,0,0-.24.81,13,13,0,0,0,0,1.37l.55.23-.54.6.54,3-.54.06v6.9h.12l.14-4.58h.12c0,.55-.06,1.1-.06,1.65,0,.86,0,1.73,0,2.6a1.89,1.89,0,0,1-.24,1.2,6.88,6.88,0,0,0-.12,1.93l.37-.14c0,.75.18,1.48-.3,2a6.33,6.33,0,0,0-.07,1.75l.15-.07a3.18,3.18,0,0,1,.21.79q0,5.53,0,11.06c0,2,0,4,0,6,0,.58-.15,1.16-.17,1.75s0,1.32,0,2l.09,4.33c0,.51.12,1.1-.27,1.37a2.81,2.81,0,0,0-.06.71c0,.33-.05.66-.07,1h-.14c0-.79-.08-1.59-.08-2.39q0-11.84,0-23.69,0-19.35-.08-38.71c0-4-.08-8-.07-12,0-10.15.06-20.31.08-30.47,0-3.88,0-7.75,0-11.63,0-1.83,0-3.65,0-5.47,0-.25,0-.5,0-.72.56-.24.82.07.81,1.17s0,2.49,0,3.74c0,.19-.17.38-.25.57s-.31.64-.46,1l.12.26.55-.33,0,1.18-.12,0-.23-.82a4.87,4.87,0,0,0,0,2.54l.43-.11c0,.72.2,1.47-.36,1.76a2.34,2.34,0,0,0-.1,1.09,2.1,2.1,0,0,0,.41.71l.21-.08c-.11.79-.2,1.58-.32,2.36-.05.31-.25.6.09.76a3.28,3.28,0,0,1,.09.76c-.45.19-.61.8-.51,1.89h.49v3.57c0,3.4-.07,6.8-.06,10.21,0,7.6.06,15.21.08,22.81,0,.38-.05.76-.08,1.14-.11,0-.32.1-.31.13,0,.65.07,1.3.11,1.95l.08,0Z"/><path d="M246.41,258c2,.33,2,.33,2,1.73,0,4.77.05,9.55,0,14.33,0,.37-.48.73-.57,1.13a2.91,2.91,0,0,0,.05,1.31c0,.24.48.44.49.67,0,1.25,0,2.5,0,3.75,0,.27-.32.53-.46.73a15.38,15.38,0,0,1,.48,2.61c.08,2.66.05,5.32.05,8,0,5.55,0,11.11-.05,16.66,0,1.7.08,3.4.07,5.1,0,.29-.32.58-.59,1,1.28,1.08.48,2.62.5,4.08,0,2.28.1,4.55.15,6.83a13.62,13.62,0,0,1,0,2,7.53,7.53,0,0,1-.58,1.5l.29.27-1.54.68C246.15,306.19,246.17,282.15,246.41,258Z"/><path d="M117.42,25c0-.91.57-1,1.25-1,2.34,0,4.69-.06,7-.06,13.71,0,27.43.07,41.14.08q35.21,0,70.41,0c1.23,0,1.51.22,1.49,1.2-.08,5.69,0,11.39,0,17.08,0,.86,0,1.71-.11,2.56,0,.19-.29.36-.44.54-.19-.19-.53-.37-.54-.57-.08-1.77-.13-3.54-.14-5.31,0-4.61,0-9.23,0-14-1.89-.09-3.64-.24-5.4-.26q-13.83-.07-27.68-.1L121.85,25Z"/><path d="M246.75,229.15c0-1.08,0-2.17,0-3.26,0-.57.21-1.14.2-1.71,0-2.31-.12-4.62-.12-6.94,0-10.43.06-20.87,0-31.31,0-1.06.06-2.12.07-3.18,0-2.34,0-4.69,0-7,0-2-.18-3.95-.18-5.93,0-4.44.11-8.87.1-13.31,0-3.9-.18-7.8-.18-11.69,0-10.94,0-21.88,0-32.82q0-17.75,0-35.51c0-6.64-.13-13.28-.16-19.92a6,6,0,0,1,.44-1.55l.4,0a10,10,0,0,1,.28,1.7q0,8.61,0,17.23c0,5.45-.15,10.91-.16,16.37,0,6.52.06,13,.08,19.55,0,3.28,0,6.55,0,9.82,0,3.5.14,7,.16,10.48,0,1.18-.17,2.35-.17,3.53a8.07,8.07,0,0,0,.35,1.41,1.37,1.37,0,0,1,0,.85c-.72,1.39-.33,2.79-.12,4.19a7.39,7.39,0,0,1,0,1.33c-.06,3.45-.15,6.91-.17,10.36,0,4.88,0,9.76,0,14.64,0,4.49,0,9,0,13.48,0,6.45,0,12.91,0,19.36,0,7.33,0,14.65,0,22,0,1.22-.13,2.44-.13,3.66s.16,2.22.19,3.34a2.78,2.78,0,0,1-.3.91Z"/><path d="M31.75,25l.13-1.34c2,0,3.89,0,5.79,0,.29,0,.58.34.77.45.26-.13.63-.47,1-.45,1.46.11,3.06-.39,4.46.38.44-.62,4.1-.63,4.59-.06a6.64,6.64,0,0,1,1.35-.28c8.33,0,16.66.08,25,.11l33.5.07a15.55,15.55,0,0,1,2,.06c.3,0,.55.35.82.54a5.59,5.59,0,0,1-.84.52,2.13,2.13,0,0,1-.72,0H33C32.64,25.09,32.25,25.05,31.75,25Z"/><path d="M117.06,405.21l65.86-.25.15.7h.21l.23-.63h3.06l.4.8.36-.78c.83-.22,1.4-.1,1.51.6.6-.72.6-.72,2.1-.61l.16.69a2.27,2.27,0,0,0,.49-.19,5,5,0,0,0,.5-.54l.54.54c.06.05.15.09.35.21V405h1.78l.35.92.54-.87.68.79.59-1,.71.79.43-.83c.3.22.69.38.79.6.19.43-.38.56-.9.58-1.59,0-3.18,0-4.78,0-7.25,0-14.5,0-21.75,0-11.38,0-22.77-.08-34.15-.1-5.88,0-11.77.05-17.65.05C118.74,406,117.6,406.29,117.06,405.21Zm49,.23v.12c1.1.05,2.21.11,3.32.13s2.33,0,3.5,0,2.25,0,3.38,0,2.1-.08,3.16-.12l0-.14Zm-12.26.18v-.14h-9.94v.14Z"/><path d="M13.79,20.25c0,.21-.49-.58-.51-.38-.18,1.85.36,3.57.27,5.39a13.12,13.12,0,0,1-.27,1.39,1.92,1.92,0,0,0-.06.67,3.59,3.59,0,0,1,.14,2.34c0,.4,0,.81-.08,1.35-.6.77,0,2.05-.22,3.1l.14,0,.1-1.92c.19.52.36,22.82.21,24.82L13.15,57l.52,2.76-.62.19.12,1.76.36.16,0,1.06-.47.15.07,1.68.38.29-.6.44.58.35c.05.47.11.91-.24,1.15-.13.08-.18.55-.26.85l.13.17.36-.38c0,.38,0,.74.06,1.08.09.74-.12.84-.44.9s-.39-.28-.38-.85c0-2.79,0-5.58,0-8.36,0-3.88.08-7.78-.09-11.63-.11-2.51.17-4.92.14-7.39s.06-4.93.08-7.4c0-3.59,0-7.19.06-10.78,0-1.32,0-1.32.1-2.65C13.14,20.57,13.74,20.25,13.79,20.25Z"/><path d="M66.2,405.38a6.64,6.64,0,0,1,1.44-.35q13.56,0,27.12.13a3.12,3.12,0,0,1,1.14.2l-1.89.18c1.71,0,3.19.14,4.67.13a1.39,1.39,0,0,0,1-.55,57.75,57.75,0,0,1,7.57.08,54.92,54.92,0,0,0,6.64.3,1.43,1.43,0,0,1,.47.15l0,.22a14,14,0,0,1-1.42.16c-5.3,0-10.6,0-15.89,0q-12.57,0-25.13.09l-10.28.08c-.65,0-1.26,0-1.23-.58S61,405,61.68,405s1.42-.08,2.1,0C64.66,405.1,65.53,405.28,66.2,405.38Z"/><path d="M30,23.69l-.19,1.38a5.24,5.24,0,0,1-2.92-.25c-.88-.47-3.24.58-3.58,1.55a4.49,4.49,0,0,0-.2,1.5q-.1,12.19-.18,24.4c0,.51,0,1-.91.85a1.07,1.07,0,0,1-.61-.82q-.12-6.36-.16-12.72c0-3.95,0-7.91,0-11.86,0-2.57,1.81-4,5.09-4C27.49,23.68,28.7,23.69,30,23.69Z"/><path d="M247.59,398.89a1.83,1.83,0,0,1-.45-2.13c.17-.2.77-.27,1.4-.47.08,1.24.18,2.29.21,3.34,0,1.69.06,3.37.05,5.05,0,1.17-.39,1.36-2.21,1.36-7.24,0-14.48-.05-21.72,0-1.45,0-1-.49-.86-1h23.27a8.3,8.3,0,0,0,.08-1.06c-.08-1.4-.21-2.8-.26-4.21C247.09,399.5,247.38,399.25,247.59,398.89Z"/><path d="M247,390.42a5.29,5.29,0,0,1-.13-.8q-.15-7.46-.26-14.91c0-.73.16-1.47.16-2.2,0-.4-.31-.8-.32-1.2,0-1.86,0-3.72.07-5.58,0-.22.35-.53.63-.65a6.69,6.69,0,0,1,1.38-.24c0,.75,0,1.48,0,2.2q-.11,10.33-.2,20.68a12.78,12.78,0,0,0,.05,1.64C248.51,390.16,248.06,390.45,247,390.42Z"/><path d="M13.82,363.53l-.46.16v2.45h.45v10.28c-.74.07-.75.07-.75-1.36,0-5.49,0-11,0-16.45q0-3.9-.05-7.79v-1.68h.83v8.34c-.18,0-.48-.14-.48-.09-.08.53-.11,1.08-.15,1.67h.62Z"/><path d="M21.83,67.37c1.19.22,1.05.82,1.05,1.45,0,2.61.11,5.22.21,7.83,0,.61-.09,1-1.15.89.11,1.09,1.75,1.84.85,3l-1.13-.1c.79,1.07,1.6,2.05.94,3.27-1,0-1.13-.5-1.13-1.13,0-3.79-.12-7.58-.14-11.37,0-5.33,0-10.67,0-16,0-1,0-1,1.62-.91V59c0,2.46,0,4.92,0,7.38C23,67,23,67.45,21.83,67.37Z"/><path d="M26.39,49.8a2.7,2.7,0,0,1,.19.6q.2,4.68.38,9.37c.08,1.76.18,3.53.21,5.29a4.49,4.49,0,0,1-.46,1.33A2.08,2.08,0,0,1,26.77,69l.37,3.06-.41.1c-.79-.65-2-1-1.94-2.21.07-6.26.11-12.51.16-18.76C25,50.14,25,50.14,26.39,49.8Z"/><path d="M13.24,377.14a5.55,5.55,0,0,0,0,.92c.06.28.18.68.31.73.39.14.41.63.41,1.2q0,6.17-.05,12.32c0,1.09,0,2.19,0,3.28s-.13,1.63-.82,1.56v-20Z"/><path d="M246.37,11.34l-19-.21,0-.35a5.12,5.12,0,0,1,1-.17c5.23-.11,10.47-.23,15.7-.29a11.77,11.77,0,0,1,2.63.39.91.91,0,0,1,.57.61c.17,1.62.37,3.25.38,4.87,0,1.42.37,2.85-.36,4.27-.21.41.39,1.05.38,1.59s.54,1.32-.65,1.33-.73-.86-.74-1.37a31.28,31.28,0,0,1,.11-6.2C246.59,14.33,246,13,246.37,11.34Z"/><path d="M246.34,354.51v-6.12c0-1.54,0-3.08,0-4.62s.06-1.56,2.15-2c0,1.18,0,2.32,0,3.45,0,2.53,0,5.07,0,7.6C248.48,354.25,248.47,354.25,246.34,354.51Z"/><path d="M18,198.51v.29l2.84.92V198Z"/><path d="M203.85,405.89l.08-.83h18.92c.26.78,0,1-1.1,1l-15.54,0C205.44,406,204.68,405.93,203.85,405.89Z"/><path d="M247.91,238.43V250.3h-1.52v-1.56c0-3,0-5.91,0-8.86C246.41,239.1,246.75,238.59,247.91,238.43Z"/><path d="M50.6,270a3,3,0,0,1-.42,1c-.8,1-1.61,1.07-2.87.47a6.63,6.63,0,0,1-.79-.43c-1.31-.85-1.5-1.37-.85-2.34a3.26,3.26,0,0,1,2.8-1.18A2.36,2.36,0,0,1,50.6,270Zm-3.09,0a6.76,6.76,0,0,0,1,.58c.06,0,.47-.22.46-.32a13.82,13.82,0,0,0-.31-1.42l-.38.07.24.87Z"/><path d="M13.75,336.88c.09,1,.21,1.86-.39,2.33l.48-.06c0,1.6,0,3.19,0,4.76,0,.32-.42.57-.77,1,0-.77-.06-1.23-.06-1.68,0-1.67,0-3.33,0-5C13,337.18,13.4,337.27,13.75,336.88Z"/><path d="M247,341a7.83,7.83,0,0,1-.21-1.39c0-2.29.12-4.58.11-6.87,0-.88.81-1,1.3-1.24-.18,1.1-.37,2.23-.55,3.37l.51,0c0-.7.07-1.4.11-2.1h.2a12.07,12.07,0,0,1,.12,2.68c-.11.76.84,1.87-.81,2.18.28.66.56,1.27.79,1.9C248.85,340.53,248,340.71,247,341Z"/><path d="M143.34,11c0-.61.39-.44,1-.36a23.63,23.63,0,0,0,3.26,0q8,0,16,0c.17,0,.33.09.54.37a5.3,5.3,0,0,1-.86.19l-16.9.09c-1.11,0-2.22.14-3.33.14a3.39,3.39,0,0,1-1.06-.35c.12-.15.29-.44.35-.42A6.27,6.27,0,0,1,143.34,11Z"/><path d="M246.61,41.82c0-2.65,0-5.31,0-8s-.2-5.28-.25-7.93c0-.26.37-.52.57-.78.2.25.59.5.58.75-.1,5.22-.25,10.45-.39,15.67a2.68,2.68,0,0,1-.07.27Z"/><path d="M16.78,18.53H15.66c0-.72,0-1.41,0-2.1,0-.07.2-.19.32-.2a7,7,0,0,1,.79,0Z"/><path d="M248.48,394.54c0,1.84,0,3.64,0,5.43,0,.21-.48.42-.74.63-.24-.22-.67-.43-.68-.66-.07-1.44,0-2.89-.09-4.34C246.9,394.76,247.28,394.41,248.48,394.54Z"/><path d="M247.26,42.39c0,.87,0,1.74,0,2.61.08,2.57.21,5.15.26,7.72,0,.5.45,1.41-.57,1.41s-.52-.92-.52-1.38c0-3.14.16-6.28.26-9.41,0-.31.06-.62.09-.93Z"/><path d="M237.76,16.51c0-.48,0-1,0-1.44s0-1,1-1,1.06.25,1,.91a26.38,26.38,0,0,0,0,3.08c0,.74-.55,1-1.19,1-.21,0-.57-.61-.65-1a8.06,8.06,0,0,1,0-1.63Z"/><path d="M246.65,356.77l1.54-.3a2.73,2.73,0,0,0-.88,3.45l1.22.06a16.74,16.74,0,0,1-.08,3.4c-.09.45-1,.78-1.8,1.34Zm1.28,4.11h-.33v1.7h.45Z"/><path d="M220.23,11.05h-12.9c-.1-.26-.08-.57.77-.56,2,0,3.89,0,5.84,0l5.58.06a3.06,3.06,0,0,1,.72.19Z"/><path d="M13.5,323.67l.24.84-.12.13-.22-.39-.13.67c.87.31.45,1.6.5,2.47,0,.18-.48.47-.82.79,0-1.57,0-2.94,0-4.29,0-.75.36-.21.56-.2Z"/><path d="M43.92,284.4c.06.7-.4,1.06-1.26,1.1a2,2,0,0,1-1.74-2.05c0-.3.63-.73,1-.79A2.1,2.1,0,0,1,43.92,284.4Z"/><path d="M94.17,10.72c1.68,0,3,0,4.42,0,.79,0,1.58.17,2.38.24.13,0,.26-.11.41-.13a3.34,3.34,0,0,1,.94-.07c.11,0,.27.41.22.44a1.31,1.31,0,0,1-.76.32c-1-.12-2.06.42-2.78-.23-1.42.59-2.88,0-4.26.18C94.62,11.5,94.44,11.09,94.17,10.72Z"/><path d="M15.77,15.94a3.29,3.29,0,0,1-.07-.44c0-.41,0-.81,0-1.32.33,0,.93-3,1-2.87a26.2,26.2,0,0,1,0,4.34C16.67,15.79,16.15,15.83,15.77,15.94Z"/><path d="M247.21,231.68c.16.27.45.54.46.81.09,1.56.11,3.13.15,4.69,0,.59-.34.8-1,.72v-6.14Z"/><path d="M13.18,333.68a5.86,5.86,0,0,1-.17-2.89c0-.42.41-.76.71-1.27.11,1.75.21,3.19-.55,4.19Z"/><path d="M122.53,89.73c.77-.65,1.51-1.32,2.32-1.93.06,0,.78.22.8.38a2.37,2.37,0,0,1-.14,1.47,2,2,0,0,1-1.25.62,5.59,5.59,0,0,1-1.48-.22Z"/><path d="M199.46,405h4v.91c-.93,0-1.84.06-2.74.11C199.28,406.12,199.12,406,199.46,405Z"/><path d="M29.1,14.05c.2-.24,1.33-.09,1.92.12"/><path d="M111.68,11l.21-.71c.33.4.63.62.66.85s-.35.46-.56.48c-.92,0-1.84,0-2.76,0-.15,0-.27-.32-.36-.44l-1,.41a6.06,6.06,0,0,1-.19-.7c0-.08.11-.23.17-.23a17.53,17.53,0,0,1,2,0A15.77,15.77,0,0,1,111.68,11Z"/><path d="M13.17,333.71l.56-.17c.2,2.06.15,2.24-.69,2.92a6.91,6.91,0,0,1,.14-2.77Z"/><path d="M21.48,86.73c1.76.61,1.71.68,1.49,3C21.18,89.32,21.1,89.15,21.48,86.73Z"/><path d="M59.57,405l.57,1.15a22.68,22.68,0,0,1-2.63,0c-.28,0-.46-.48-.6-.75a1.68,1.68,0,0,1,.72-.27C58.27,405,58.93,405,59.57,405Z"/><path d="M248,254.33c-.68-.22-1.44-.31-1.48-.5a6.73,6.73,0,0,1,.06-2.05,1.33,1.33,0,0,1,.83-.13c.24.06.54.32.56.51A21,21,0,0,1,248,254.33Z"/><path d="M202.15,11.15l.75-.76.94,1h-5.41l.4-1.11.3,0,.37,1.09.54-1h1.67Z"/><path d="M93,49.89c-.89.46-1.53.82-2.22,1.11a1,1,0,0,1-.63-.38c-.12-.63.93-2,1.37-1.87S92.29,49.35,93,49.89Z"/><path d="M50.85,405.07c-.35.62.14.77.94.76a12.56,12.56,0,0,1,2.45.15H47.68v-.16l2.65-.1,0-.27H48.17C48.3,405,48.67,404.93,50.85,405.07Z"/><path d="M112.56,24.9c-.15-.61,0-.94.8-.9s1.76,0,2.64,0c.22,0,.42.28.63.42-.21.15-.41.41-.62.42C114.86,24.92,113.71,24.9,112.56,24.9Z"/><path d="M164.63,10.76h6.76v.32h-6.76Z"/><path d="M29.89,92.84c0-.51-.19-1.09.07-1.5s1-.33,1.49-.48c.07.33.34.74.18,1A6.6,6.6,0,0,1,30.33,93Z"/><path d="M195.05,10.18l1.86,1,.33-.93c.26.42.52.64.49.83s-.34.43-.57.46a6.42,6.42,0,0,1-1.95.08c-1-.16-.4-.76-.45-1.17Z"/><path d="M15.46,413.77c.16-1,.68-1.37,1.65-1.14a1.21,1.21,0,0,1,.64,1C17.76,414.09,17,414.14,15.46,413.77Z"/><path d="M46.25,67.09c.47-.37.8-.8,1.24-.9s.77.35,1.17.55L47,67.84Z"/><path d="M128.74,11.39c-3,.26-3.73.13-3.94-.64,1.5-.32,2.29-.23,2.75.31C128.39,10.5,128.44,10.51,128.74,11.39Z"/><path d="M136.37,10.19c.19.48.4.73.33.92a.9.9,0,0,1-.68.35c-.77,0-1.55,0-2.46,0l-.14-1c.91.17,1.92-.48,2.41.8Z"/><path d="M137.21,11.38c.49-1.64,2.06-.37,2.88-.91C140.29,11.54,140,11.64,137.21,11.38Z"/><path d="M247.06,392.86V391.3l1.09-.05C248.7,392.63,248.56,392.84,247.06,392.86Z"/><path d="M175,11.18c.23-.24.51-.7.67-.67a8.7,8.7,0,0,1,1.71.64c-.22.06-.12.06-.09,0,.17-.21.32-.43.48-.64.14.16.44.4.39.48a1,1,0,0,1-.66.45c-.75.06-1.5,0-2.26,0Z"/><path d="M89,10.71l-1.25,1.13-.65-1.06-.3,0-.13.79c-.15,0-.42.09-.5,0s-.34-.48-.29-.51A3,3,0,0,1,87,10.54,11.63,11.63,0,0,1,89,10.71Z"/><path d="M226.76,11h-6l0-.21h6Z"/><path d="M93.81,10.85c.19.77.65.82-3.16.66,0-.5,0-.48,1.2-.49C92.47,11,93.08,10.92,93.81,10.85Z"/><path d="M21.72,84.31c1.79.07.9,1.15,1.22,1.84C21.48,85.72,21.28,85.4,21.72,84.31Z"/><path d="M115.48,11.77,114.2,11a.14.14,0,0,0-.1,0c-.22.2-.43.41-.64.62l-.41-.68c.33-.14.76-.45,1-.37C114.6,10.77,116,10.23,115.48,11.77Z"/><path d="M178.61,11.6l.43-1.18.31.09.27,1H180l.4-1.3c.33.37.68.59.7.84s-.38.49-.64.54A12,12,0,0,1,178.61,11.6Z"/><path d="M160.88,380.16l-1.24-.72,1-.58.77.95Z"/><path d="M193,11.36l.28-1.27c.23.45.55.95.48,1a16.28,16.28,0,0,1-1.79.78c-.05-.77-.56-1.33.47-1.68l.12,1.1Z"/><path d="M185.83,10.47l1,.86-.1.33-2.23-.32L185,10l.27,1.43.41,0Z"/><path d="M105.83,11.24l.63-.41.32.16c-.18.21-.31.49-.56.59a1.65,1.65,0,0,1-.91,0,3.22,3.22,0,0,1-.73-.44c.17-.15.39-.44.48-.41A2.88,2.88,0,0,1,105.83,11.24Z"/><path d="M124.31,10.6c.16,1.06.07,1.09-2.52.66.27-.25.5-.6.64-.57a3.65,3.65,0,0,1,1,.51,2.28,2.28,0,0,1,.35-.34A6,6,0,0,1,124.31,10.6Z"/><path d="M132.86,11.54l-2.46-.21c.2-.28.39-.61.43-.59a9.54,9.54,0,0,1,1.14.45l.41-.7h.26Z"/><path d="M12.77,71.58h.81c-.07.18-.18.58-.21.55C13.16,72,12.76,72.45,12.77,71.58Z"/><path d="M82.66,10.43l1.09.11v1.11l-1,.07Z"/><path d="M188.35,11.85l.3-1.48.32-.13c.18.32.51.64.48.94S188.88,11.54,188.35,11.85Z"/><path d="M39.13,112.29c0-.36-.05-.71,0-1.07,0,0,.34,0,.53,0l.08,1.09Z"/><path d="M116.27,11.52l.1-1.21,1.09.63-.92.79Z"/><path d="M119.75,11.59l-1.94-.21,1.16-.84Z"/><path d="M190.92,10.24l.55,1.33H190.2l.41-1.3Z"/><path class="cls-3" d="M11.56,130.6l-.11,2.07-.08,0c0-.65-.09-1.3-.11-1.95,0,0,.2-.09.31-.13Z"/><path class="cls-3" d="M166.07,405.44h13.32l0,.14c-1.06,0-2.11.1-3.16.12s-2.25,0-3.38,0-2.33,0-3.5,0-2.22-.08-3.32-.13Z"/><path class="cls-3" d="M153.81,405.62h-9.94v-.14h9.94Z"/><path class="cls-3" d="M47.51,270.08l1-.22-.24-.87.38-.07a13.82,13.82,0,0,1,.31,1.42c0,.1-.4.35-.46.32A6.76,6.76,0,0,1,47.51,270.08Z"/><path class="cls-3" d="M247.93,360.88l.12,1.7h-.45v-1.7Z"/></g></g></svg>