<svg xmlns="http://www.w3.org/2000/svg" viewBox="0 0 90.09 124.81"><defs><style>.cls-1{fill:#231f20;}</style></defs><title>Asset 2</title><g id="Layer_2" data-name="Layer 2"><g id="Layer_1-2" data-name="Layer 1"><polygon class="cls-1" points="71.83 57.2 72.36 57.63 72.57 58.44 72.2 58.87 71.83 57.55 71.83 57.2"/><path class="cls-1" d="M90,50.89c-.08-2.22-.17-4.43-.29-6.65-.17-3.45-.32-6.9-.59-10.34-.17-2.21-.49-4.42-.86-6.61a15.81,15.81,0,0,0-2-5.77,22,22,0,0,0-5.51-6.34A52.35,52.35,0,0,0,74,11.06C71.71,9.88,68.3,7.84,65.79,7.6H62.22C57.64,5.76,47.93,4.37,47.93,4.37,38.2,4.75,36.24,0,25.63,0,22.19,0,16.7,2.51,13.15,5.51,7.33,10.4,5.54,21.19,5.08,23a36.78,36.78,0,0,0-.89,9.2c0,4.28.68,6.22,0,10.38-.11.7-.27,1.43-.27,1.43-.37,1.78-.76,3.1-.92,3.62C1.71,52,.22,57.64.1,58.57c-.2,1.45,0-.23,0,4.11,0,6.58.79,4.19.86,6.32,0,1.57.6,1.37,3.85,7.42A65.35,65.35,0,0,1,8.05,83c1.2,3,4.29,4,6,6.26l2.1,2.66c-.87-4.6-5.76-7-7.16-9.28-1.11-1.8.11-2.52-1.67-4.75C7,77.46,3.32,72,2.7,68.26c-.36-2.18-.89-10.29,0-14.68,1.23-6,3.16-8.41,3.66-13.31.35-3.51.49-1.62.25-7.05-.12-2.87,1-5.78,2.68-10.24,1.77-4.81,2.14-7,3.38-8.57.55-.68,1.85-2.24,2.77-3.33a1.16,1.16,0,0,0,0-1.57c-1-1.53,1,.39,1,.37l.15-.17c4.15-4.62,6.33-5.44,11.64-6.55C34.64,1.82,44,4.84,48.93,6.74c.25.09,8.15,1.35,10.29,1.6h0a17.52,17.52,0,0,0,3.57.87c.13.28.24.57.38.84.23.44.77.81.8,1.24.06.66.46.91.81,1.3a5.17,5.17,0,0,1,.79,1.16,9.59,9.59,0,0,0,.83,1.8,9,9,0,0,1,1.27,2.92,13.33,13.33,0,0,1,.56,2.26,3.9,3.9,0,0,1,.08,1.44c-.3,1.5-.63,3-1,4.47a3.91,3.91,0,0,1-.72,1.93,15.77,15.77,0,0,0-1.43,2.18c-.81,1.23-2.14,2-2.7,3.5a10.14,10.14,0,0,1-1.28,1.84c-.92,1.37-1.86,2.72-2.72,4.13-.71,1.15-1.31,2.36-2,3.55a13.86,13.86,0,0,0-.79,1.47c-.41,1-.73,2.1-1.15,3.13a13.35,13.35,0,0,1-.92,1.7c-.16.27-.48.47-.55.75a8.39,8.39,0,0,1-1.93,3.43,9,9,0,0,0-1.08,1c-.49.8-1.1,1.5-1.64,2.25A8.16,8.16,0,0,1,45.28,60c-.67.34-1.48.9-2.09-.29.75-.86,1.54-1.79,2.34-2.7a4.88,4.88,0,0,1,.59-.52,4.87,4.87,0,0,0,.8-.77,10,10,0,0,0,.8-1.52q1.78-4,3.53-7.94a59.31,59.31,0,0,1,2.8-6.42c1.36-2.33,3.13-4.42,4.7-6.63.59-.84,1.07-1.76,1.66-2.59a8,8,0,0,1,1.12-1.13,9.46,9.46,0,0,0,2.34-4.64c.35-1.27.28-2.66.63-3.94a6.76,6.76,0,0,0-.08-3.6.48.48,0,0,1,0-.29,1.39,1.39,0,0,0-.5-1.63c-.89-.87-1.81-1.72-2.77-2.51a10,10,0,0,0-6.66-2.17,20.08,20.08,0,0,1-4.78-.35,10.84,10.84,0,0,0-6,.43,15,15,0,0,1-2.52.32c-.71.1-1.42.23-2.13.32a3.46,3.46,0,0,1-.85,0c-1.29-.11-2.56-.49-3.88,0s-2.65.74-4,1.12c-.64.19-1.27.41-1.9.64-1.06.39-2.11.8-3.16,1.21-.1,0-.16.19-.24.29.54.37,0,.38-.17.51a3.66,3.66,0,0,0-.6.49c-.29.4-.5.86-.79,1.26-.46.64-1,1.22-1.42,1.88a5.58,5.58,0,0,1-2.18,2.31c-.17.08-.28.3-.41.47a4.53,4.53,0,0,1-.65.93,13.12,13.12,0,0,0-3,3.43,16.76,16.76,0,0,0-1.93,6.64c-.12,1-.23,2.09-.45,3.1-.57,2.5-1.1,5-1.6,7.5a17.54,17.54,0,0,1-.32,2.66A18.16,18.16,0,0,0,10.78,50c-.23,2.47-.32,5-.46,7.44,0,.58.26,1.06.12,1.75A7.46,7.46,0,0,0,11,62.08c.07.31.22.6.26.91.1.68.09,1.37.24,2a12.73,12.73,0,0,0,.79,2.59c.8,1.74.73,3.81,2.05,5.38a13.11,13.11,0,0,1,1.16,2.51A21,21,0,0,0,16.92,78c1.39,2,2.78,4,4.27,6,1.18,1.53,2.46,3,3.77,4.39a19.52,19.52,0,0,0,2.38,2c.13.09.38,0,.58,0a1.79,1.79,0,0,0-.19-.49c-.36-.44-.74-.86-1.11-1.28a5.53,5.53,0,0,1,1.59.64,9.54,9.54,0,0,0,.87.49c.1,0,.27-.11.41-.17-.26-.49,0-1.12-.63-1.55A11.36,11.36,0,0,1,24.65,84c-.14-.26-.5-.4-.77-.59-.12-.1-.29-.16-.37-.29-.38-.58-.71-1.2-1.1-1.78-1-1.48-2-3-3-4.43a1.8,1.8,0,0,1-.35-.79c0-.49-.15-.79-.72-.7-.09,0-.28-.18-.32-.32-.18-.62-.32-1.26-.5-1.89s-.32-1-.51-1.5c-.48-1.25-1.06-2.46-1.46-3.73a12.56,12.56,0,0,1-.34-2.47c-.18-1.72-.4-3.44-.49-5.17a29.79,29.79,0,0,1,0-4.53c.11-1-.3-2.11.5-3,.12-.15,0-.47.08-.71a5.51,5.51,0,0,1,.12-.92,20.86,20.86,0,0,0,.76-2.4c.43-2.58,1.73-4.81,2.62-7.2.46-1.24,1-2.46,1.49-3.69a3.39,3.39,0,0,1,.4-.86,12.54,12.54,0,0,0,1.88-3.47,11.69,11.69,0,0,1,1.54-3,29.18,29.18,0,0,1,2.7-2.75c.4-.41.73-.9,1.16-1.26,1.22-1,2.48-2,3.71-3,.1-.08.05-.33.11-.49a2.58,2.58,0,0,1,.25-.42c.5.35.81-.19,1.19-.24.55-.07.49-.63.77-.74a12.46,12.46,0,0,1,2.6-.75,5.47,5.47,0,0,1,1.62.23,8,8,0,0,1,1.1.23,1.12,1.12,0,0,1,.66.43c.79,1.58-.33,2.81-.83,4.14-.32.87-.84,1.67-1.22,2.52a12.74,12.74,0,0,1-1.19,2.79c-.58.73-.93,1.61-1.58,2.31A5,5,0,0,0,33.85,36c-.32,1.51-1.16,2.85-1.46,4.43-.5,2.61-2.54,4.19-4.42,5.79-.78.67-1.59,1.23-1.68,2.39,0,.11-.18.21-.27.31a12.55,12.55,0,0,0-1.38,1.45,16.43,16.43,0,0,0-1.17,2.09c-.34.66-.06,1.56-.77,2.08,0,0,0,0,0,.07-.27.88-.56,1.75-.79,2.64a7.49,7.49,0,0,0-.38,2.21,44.39,44.39,0,0,0,.59,4.89,16.76,16.76,0,0,0,1.76,5.92c.29.47.57.94.85,1.42.55.92,1.06,1.87,1.65,2.76.81,1.22,1.69,2.39,2.5,3.61.18.26.12.75.33.94.85.71,1.24,1.9,2.37,2.31.19.06.31.29.47.44a4,4,0,0,0,4.39,1.18c2.09-.75,4.15-1.65,6.44-1.57a1.3,1.3,0,0,0,.65-.24c.44-.26.86-.55,1.3-.83.24-.29-1.16-.44-.16-1.12a.15.15,0,0,0-.06-.12c-.45-.32-.36-.54.12-.67s1.15-.31,1.72-.48c.14-.05.25-.21.39-.25.39-.12.87-.4,1.18-.27s.41.28.61-.13a1.16,1.16,0,0,1,.35-.49A1.29,1.29,0,0,0,49.34,75a6.59,6.59,0,0,1-.23-.9l.13,0,.39.41c.12-.17.32-.33.34-.51A11.48,11.48,0,0,0,50,72.53c0-.26-.23-.64.33-.54,0,0,.17-.18.15-.24s-.17-.22-.24-.2c-.31.06-.62.17-.92.26s-.31.12-.47.18a5.18,5.18,0,0,1-.14-.53,2.27,2.27,0,0,1-.05-.63.79.79,0,0,1,.21-.48.58.58,0,0,1,.47-.07,2,2,0,0,1,.46.28c-.06-.23,0-.53-.19-.7s-.62-.57-.24-1a4.22,4.22,0,0,1,.61-.49c.37-.3.69-.4,1,.11a.72.72,0,0,0,.52.3,2.17,2.17,0,0,1,2.11,1.86,8.31,8.31,0,0,1,.2,3.56c-.31,1.2.33,2.2.14,3.3a.22.22,0,0,0,.1.18c.61.39,1.24.75,1.85,1.15a7.53,7.53,0,0,1,.76.7,1.31,1.31,0,0,1,.21-.16,5.94,5.94,0,0,1,.57-.27c0,.2.09.4.14.6l.24.88.2-.07,0-.66c.59,1,1,0,1.24-.17.71-.55.86-.55,1.32.27.36.66.84,1.26,1.35,2,0-1.35-.73-2.23-1-3.27a5.22,5.22,0,0,0-2.37-3.39c-.16-.08-.24-.34-.31-.54-.76-2.21-.66-4.53-.8-6.82-.09-1.46-.11-2.93-.19-4.4A27.34,27.34,0,0,1,57,60.69a5.56,5.56,0,0,0-1.19-3.87c-.54-.7-.47-1,.33-1.48.12-.08.22-.19.34-.27.7-.43,1.28-1,2.21-1a13.81,13.81,0,0,0,2.64-.25c1-.17,1.92-.44,2.88-.65.1,0,.23,0,.34,0,1.08-.07,2.22.32,3.21-.45a1.38,1.38,0,0,1,.47-.17,17.52,17.52,0,0,0,3-.9,7.38,7.38,0,0,0,3.28-3.82c.46-1.06.52-2.35,1.12-3.3,1.12-1.8,1.22-4.07,2.59-5.72.09-.11,0-.34.07-.5a5.2,5.2,0,0,1,.21-.67c.14-.38.29-.75.44-1.13a7.46,7.46,0,0,0,.27-.71,2.64,2.64,0,0,0,.1-.74c-.06-1-.24-1.9-.21-2.85a22.58,22.58,0,0,1,.42-2.55,1.25,1.25,0,0,0-.07-.57A6.37,6.37,0,0,1,79,28a3.33,3.33,0,0,1,0-1.71,6.84,6.84,0,0,1,1.39-1.62c0-.06.36,0,.37.06a8.75,8.75,0,0,1,.41,2.06c0,1.22-.19,2.44-.26,3.66a4.4,4.4,0,0,0,.16.77c.08.53.35,1.2.14,1.55A2.52,2.52,0,0,0,81,34.56c0,.49,0,1,0,1.48s.12,1.12.18,1.67a4.23,4.23,0,0,1,.13,1.44c-.15.64,0,1.17.47,1.27,0,.59,0,1.11.08,1.64,0,.27.08.53.09.8.06,1.48.1,3,.16,4.43A12,12,0,0,1,82.23,49a11.63,11.63,0,0,0-.07,4.4c0,.12-.09.27-.1.42,0,.38-.09.77-.11,1.16,0,.7-.11,1.4-.09,2.1,0,1-1,1.89-.32,3,0,0,0,.12-.05.13-.6.3-.4.87-.43,1.35s0,.84,0,1.24-.12.57-.17.85l.5.77.81,1H80.54A12,12,0,0,0,80.4,68c0,.12,0,.25,0,.38l.58.45.35.73-.92-.69c0,.46-.06.92-.11,1.39l1-.18-.53.73-.33.93-.32-.13c0,.36.14.67.13,1,0,1.16-.11,2.33-.18,3.49,0,.33-.21.67-.15,1,.26,1.37-.6,2.7-.11,4.07,0,0,0,.13,0,.14-.71.22-.36.83-.36,1.24,0,1.41-.6,2.71-.66,4.12s-.39,3.09-.61,4.64a2.75,2.75,0,0,1-.27.84c-.37.72-1.09,1.3-.7,2.31a1.38,1.38,0,0,1-.16,1.12c-.59.75-.21,1.54-.27,2.31a9.38,9.38,0,0,1-.43,2.17c0,.17-.45.22-.69.33,0-.29.08-.58.14-.87,0,0,.15,0,.18-.1a1.64,1.64,0,0,0,.22-.51c0-.07-.2-.24-.29-.23a.79.79,0,0,0-.49.22c-.45.52-.83,1.09-1.29,1.61s-.94.54-1.38-.22c-.25-.42-.63-.75-.91-1.15a2.11,2.11,0,0,1-.35-.76c-.19-.81-.34-1.62-.51-2.44l-.06,0c0-.26-.11-.52-.13-.77a5.12,5.12,0,0,0,0-.68c-.21-1-1-1.39-1.88-1.75.27-1,1.45-1.52,1.24-2.73A4.08,4.08,0,0,1,70,88.81c.15-1.66.31-3.31.55-5a16,16,0,0,1,.57-1.69c.19-.69,0-1.38.6-2.09a5.59,5.59,0,0,0,1-2.81c.26-1.71.36-3.44.49-5.17a14.47,14.47,0,0,0-.08-1.86c0-.36-.07-.72-.11-1.07a5.06,5.06,0,0,0-.23-1.68c-.32-.65-1-1.1-.89-2,0-.16-.23-.37-.37-.55a6.72,6.72,0,0,1-.63-.78c-.16-.27-.17-.64-.36-.87a22.81,22.81,0,0,0-2.17-2.43,5.91,5.91,0,0,0-1.7-.8c-.08,0-.22.08-.32.13a6.51,6.51,0,0,1-1.2.56c-.67.16-.88.51-.67,1.16a2.14,2.14,0,0,1,.07.43c.1,1.06.2,2.11.32,3.17,0,.14.18.27.3.38a.78.78,0,0,1-.09,1.27,1.94,1.94,0,0,0-.56.8c-.36,1-.62,2.13-1,3.17-.22.66-.81,1.28-.8,1.92a15,15,0,0,0,1.63,6.61,14,14,0,0,1,1.86,6.27s0,0,0,.07a5.68,5.68,0,0,1-2.3,5.28A1.71,1.71,0,0,1,61.6,91c-.34-.63-.83-.7-1.4-.84-1.07-.27-2.13-.61-3.18-1-.11,0-.17-.26-.25-.4.14,0,.28.07.41.12.41.16.85.52,1.2.44s1.22.22,1-.81c-.05-.23.37-.58.6-.85,0,0,.26,0,.28.08.25.67.55.24.77,0A2.22,2.22,0,0,1,63.1,87l.09-.25-1.55-1c1.39.21.8-.55.68-1.06-.07-.32-.12-.8-.59-.25-.07.08-.28,0-.42,0a2.21,2.21,0,0,1,.18-.34c.09-.11.21-.19.3-.29s.2-.28.3-.42a1.4,1.4,0,0,0-.51.06c-.52.29-.85,0-1.15-.37s-.72-1-1.1-1.49c0,0-.18,0-.25,0-.27-.12-.53-.27-.8-.39s-.45-.29-.65-.26a1.46,1.46,0,0,1-1.56-1,6.26,6.26,0,0,0-.71-1.15l-.17.12.27.45c-.52.05-1,.05-1.43.13a2.29,2.29,0,0,0-.62.32l-.09-.71a.91.91,0,0,0-.5.61,3.94,3.94,0,0,0-.07,1c0,.48-.23.67-.65.66s-.91-.14-.37.54a.47.47,0,0,1,0,.44c-.36.46-.77.94-1.43.73-1-.31-.67-.23-1.65-.59-.65-.23-1.54-1-2.2-1.17a.64.64,0,0,1-.77.54,1,1,0,0,0,.9.26c1.89.77,2.23,1.84,3.58,3.34a3.34,3.34,0,0,1,.52.85c.43.92.86,1.85,1.25,2.79a.61.61,0,0,1-.1.55c-.71.5-1.46,1-2.2,1.44a18,18,0,0,1-1.93,1.24c-1.2.56-1.32.53-1.14,1.81.13.94,0,2,.81,2.78.42.37.73.69.53,1.36-.06.21.36.6.59.88s.35.18.41.32c.17.39.36.42.73.27s1-.49.76.49c0,0,.09.13.14.2a2.47,2.47,0,0,1,.43.62c.14.45.17.92.29,1.37a.61.61,0,0,0,.31.34c1,.46,1.18,1.15.47,2-.27.35-.59.7.15.88a.34.34,0,0,1,.18.18c-.27.4-.47,1-.83,1.15-.75.24-.49.53-.25.94.54.94.64,2.13,1.54,2.87a.3.3,0,0,1,0,.28c-.2.41,0,.64.33.8.08,0,.18.23.16.27-.3.47.17.49.36.69a6.7,6.7,0,0,1,.45.6l.61.77c.2.23.39.47.6.73l.48-.08c.27,0,.62,0,.81-.11a4.13,4.13,0,0,0,.69-.9c.35.6.88.66,1.42-.11s.77-.48,1.24-.24a1.17,1.17,0,0,0,.25.07,6.07,6.07,0,0,0-.9,1.8,3.59,3.59,0,0,1-1.78,2.93,7.43,7.43,0,0,1-4.24,1.32,14.71,14.71,0,0,1-1.63-.11c-1.58-.22-3.16-.45-4.73-.69a8.35,8.35,0,0,1-3.29-1.83,32.29,32.29,0,0,1-5.92-5.82c-1.85-2.18-3.72-4.34-5.71-6.38s-4-3.77-6-5.64a5.63,5.63,0,0,0-.73-.52l-.19.16c1.22,2.4,2.35,4.85,3.68,7.18a44,44,0,0,0,8.9,10.83,27,27,0,0,0,9.79,5.78,37.6,37.6,0,0,0,14.17,2.09,26.85,26.85,0,0,0,5.51-.81,24.6,24.6,0,0,0,6.76-3.19,34.3,34.3,0,0,0,6.42-6.09,14,14,0,0,0,2.58-4.2q1.91-4.83,3.36-9.83a54.76,54.76,0,0,0,1.25-6.52c.18-1.17.2-2.37.31-3.55.18-2.13.38-4.25.56-6.38.1-1.25.18-2.51.3-3.77.22-2.53.5-5.06.69-7.6s.32-5,.43-7.57c.13-2.9.24-5.8.28-8.71C90.12,54.65,90,52.77,90,50.89ZM13.17,7.83s-.62.43-.29-.17c0-.08.29-.16.29-.16Zm.54-.33-.35-.66.92-.68a1.16,1.16,0,0,1,.33.56C14.63,7,13.71,7.5,13.71,7.5Zm1.35-1.22s-.78-.44-.78-.64.65-.52.65-.52l1.67-.56Zm42,12.24s.38-.58.41-.43c.3,1.32.94.93.94.93a7.61,7.61,0,0,1-.91-4c.39-.32,2.63.91,2.93,2.78A2.06,2.06,0,0,1,60,19.63a1.81,1.81,0,0,1-2.31,0C57,19.07,57.05,18.62,57.05,18.52ZM31.23,74.57c-.31.43-.86,1.2-1.48,1.1s-.83-.74-1.13-1.36c-1.22-2.59-1.95-4.61-1.95-4.61C25.35,66.08,25.1,65.31,25,64c0-.46-.06-1.05-.11-2.23,0,0-.07-1.74,0-4.27a4.22,4.22,0,0,1,.23-1.76c.32-.62.74-.32,1.19-.75.69-.67.57-2.19,1-3.6.9-2.92,3.61-3.5,3.67-3.22a10.72,10.72,0,0,0-2,2.6c-.58,1.19-.43,1.5-1.1,2.89-.75,1.56-1.47,2.29-1.37,2.76s.7.11.78.51-.59,1.15-1,2c-.83,1.71-.55,4.31-.35,6.12a20.62,20.62,0,0,0,3.12,7.84c.25.4.64,1,1,.77s.31-.46.64-.67,1-.12,1.06.29S31.47,74.23,31.23,74.57ZM42.47,41.9c-.14.26-.71.19-2.47,0s-2.57-.31-3,0a1.31,1.31,0,0,0-.43.65,1.91,1.91,0,0,1-1.82,1.27h-.37c.27-3.16,1-4.07,1.62-4.25s.81.31,1.81.31c.39,0,.84-.07,3.11-1.24,1.46-.75,1.86-1,2.61-1s1.49.24,1.51.54c.05.6-3.15.88-3.32,2.12C41.65,41,42.68,41.51,42.47,41.9ZM77.62,18.53c-.17,0-.41.06-.51,0-.51-.5-1-1-1.47-1.55-.1-.1-.17-.25-.29-.32-1.73-1.15-3.46-2.31-5.23-3.4a13.06,13.06,0,0,0-1.76-.74,1.75,1.75,0,0,1-.51-.34c-.37-.41-.72-.84-1.13-1.31a2.09,2.09,0,0,1,2.73,1.69c.88-.92,1.65-.11,2.35.24A14.57,14.57,0,0,1,75.23,15a21.49,21.49,0,0,1,2.42,3.2A.52.52,0,0,1,77.62,18.53ZM65.26,98.34a15.9,15.9,0,0,1-.77,2,.39.39,0,0,0,0,.28,10.88,10.88,0,0,1-.09,6.68,10.68,10.68,0,0,1-2.68,4.71c-.07.07-.22.13-.22.18l-1.48.32c0-.1-.43-.31-.34.18,0,0-.08.15-.09.14-.39-.17-1-.26-1.1-.56-.2-.48.19-.66.7-.43l.14-.21a3.11,3.11,0,0,1-.66-.7,1.4,1.4,0,0,1-.06-.86,23.65,23.65,0,0,1,1.84-4,9.55,9.55,0,0,0,.57-2.65c0-.08-.24-.29-.38-.29-.42,0-.72,0-.63-.63,0-.28-.34-.61-.48-.93a1.58,1.58,0,0,1,.79-2.08c.09,0,.25,0,.27-.09.34-1,1.41-.92,2.09-1.42a12,12,0,0,1,1.79-.91c.24-.14.45-.35.82-.63A9,9,0,0,1,65.26,98.34Zm-.79-26.61h-.31s.06-.58.23-.62.34.31.34.31ZM65.23,70l-.57.84v-.94l.57-.74a1.09,1.09,0,0,0,.67-1c0-.12,0-.51,0-.51V67.3l.29-.46.17,1.21ZM70,112.75c-.62-.39-1.51-.88-.78-1.9L71,112C70.63,112.23,70.55,113.09,70,112.75Zm12.22-44,.16-.37.47.36c0,.16,0,.32,0,.49Zm2.26,2.67v.16l-.42-.18-1.17-.31.42-.93.34.32-.49.61.78-.54.36-.26.33-.06C84.59,70.65,84.54,71.05,84.48,71.44Z"/></g></g></svg>