<svg xmlns="http://www.w3.org/2000/svg" viewBox="0 0 135.57 85.71"><defs><style>.cls-1{fill:#231f20;}</style></defs><title>Asset 3</title><g id="Layer_2" data-name="Layer 2"><g id="Layer_1-2" data-name="Layer 1"><path class="cls-1" d="M107.08,69.59c-5.13-3.11-4.23-1.54-2.92,1.26-8.27-3.46,2,2.51-8.28-.07,1.57,1.38,5.25.48,2.76,4a4,4,0,0,1,4.12,1.08c-.35-.68-.77-1.53-1.25-2.59a27.29,27.29,0,0,1,8.16,2.58c-1-.67-2.79-2-5.48-4.12C107.63,69.25,106.16,76.25,107.08,69.59Z"/><path class="cls-1" d="M109.67,75.8c1.45,1,1.31.68,0,0Z"/><path class="cls-1" d="M102.76,75.81c2.2,4.3,1.87,1.78,0,0Z"/><path class="cls-1" d="M69.24,73.58c7.13,1.93,6.28,17.51,7.74,10.19C78.81,78.78,64.64,67.53,69.24,73.58Z"/><path class="cls-1" d="M108.33,66.31c-5.6,5.45,6.26-3.76,9.12,10.53C119.56,74.86,112.86,66,108.33,66.31Z"/><path class="cls-1" d="M90.2,72.37c-7.37-1.38,4,1,.77,4.34-.09,2.48,1.81,3.6,1-2,3,.77,4.93,11,4.86,7.82C98.34,78.62,87.52,68,90.2,72.37Z"/><path class="cls-1" d="M114.59,57.88c-3.29-.34-6.6,3.11-10.28,5.24C108.37,61.85,112.89,60.53,114.59,57.88Z"/><path class="cls-1" d="M99.83,64.71a10.79,10.79,0,0,0,4.48-1.59A42.49,42.49,0,0,0,99.83,64.71Z"/><path class="cls-1" d="M79.34,77.85a5.19,5.19,0,0,1,4.87,0,38.23,38.23,0,0,1-2.16-4h0C75.51,75.1,84.06,73.85,79.34,77.85Z"/><path class="cls-1" d="M84.21,77.85c1.92,3.07,1.88,1.1,0,0Z"/><path class="cls-1" d="M115.62,65.93c-7.19-4.48-4.68,1,1.4,2.3C122.61,70.69,106.46,61.87,115.62,65.93Z"/><path class="cls-1" d="M113.15,63.37c3-.06,5,1.07,8.2,4.42C122.58,66.28,112,60.48,113.15,63.37Z"/><path class="cls-1" d="M86.28,75.68c-1.34-1.35-6.74-4-4.24-1.88h0l0,0C84.16,73.73,84.17,77,86.28,75.68Z"/><path class="cls-1" d="M125.61,36.94l.55-.17a22.81,22.81,0,0,0-2.89-.29A11.3,11.3,0,0,0,125.61,36.94Z"/><path class="cls-1" d="M134.3,38.16a4.59,4.59,0,0,0,.26-.48,1.59,1.59,0,0,1-.54.26Z"/><path class="cls-1" d="M7.39,49.82a2.2,2.2,0,0,0,.2.23,5.09,5.09,0,0,1,.84-.27Z"/><path class="cls-1" d="M134,28.13c.12-5.06-1.87,0-2.1-3.14,5.48-6.59-2.79,1.92.34-3.23-2.79-.3,2.37-2.27.91-7.94-.75-2.88-1.56,5-6.08,1.1,1.41-9.88-5.69-6.24-10.44-11.19,3.44-4.84-7.21,1.24-8.59.42-1.63.13.87-.9,1.22-1.66-2.72.12-3.79,3.09-3.9-.22-1.8-1.85,1.54,3.55-4.21-.42-1.37-4.26,0,0-2,1.51,0,0,1.79,2.41-3.14,1.83.49-7.76-3.6,5.08-5.89.84-2.33-3.93-4,.63-6.39.77-3.5,2.45-6.58,4.36-8.25.81C57.76,21.93,38.8,29.49,13.76,40.85c4.71-5.94-.58.88-4-.85.44,1.51,0,2.47-2.34-.34,1.23,1.48-5.81-.82-2.14,2.48.3,2.26-2.37-.12-2.5-1.56-2.6,1.16,2.44,3.89.35,5.59-1.88.53-.5-2.51-3.1-1.42.53,5.47,4.54,1.83,7.39,5.07.82-.56,1.59-1.17,2.45-1.66,1.76-1-.71,1.63.87.9,3.65-2.35-1,3.41-3.12,1A5.1,5.1,0,0,0,6,51c-1.5,1.16,1.08,3.38.33,1.23,2.22,1.29,3.77.75,4.46,3.34-.05.44,7.09.16,4.48,2-5,.58.91,5.39,2,2.17C17,55,19.58,55,20.23,56.26c-4,10,27.05,13.8,27.54,23.52.79-3.18,10.21-4.22,8.81.48,0-.11,5.89-7.09,7.82,1.64,4.59-8.14,1.82-3.06-9-11.43-8.09-6.3-5.1-7.49-5.1-7.49-2.08-4.77-12.92-5.84-6.68-7.13C54.61,64,48,48.58,47,46.2c12.18-5.51,25.49-17.27,40.34-21.68-28.86,34.71,36.82,52.23,27.51,8.91,4.73,5.37-.25,28,3.84,13,7.74,1.15-2.06,5.3.62,8.5,1-1.54,2.54-2.78,3.21-4.27,14,12-4.61,2.67-7.67,9.31,5-4.13,12.63,1.12,17.49,0,2.46-6.18-12.88-13.58-2-14.05,2.46-1-3.43-.07-5-.51-.72-2,2.33-2.35,3.69-1.93.9-.31-5.8-.72-2.88-2.91,2.69-1.28-9.15-3.05-5.06-4a16.22,16.22,0,0,1,2.09-.07c-4.26-1.46,9.7-4.17,5-1.9-.59,1.66,3,.59-2.13,2.19,3.39.54,6.33,1.58,7.86,1.17l-2.51-2c1.78-2,4.1-.56,3.05,1.71.92-.7.8-2.57-.92-6.71C134.23,31.77,137.43,26.1,134,28.13ZM11.64,42.82l.63-1.66,0,.59.29.37v1ZM31,56.61c-1.9-.67-5.06-1.09-1.68-1.72C30.44,54.39,32.86,55.41,31,56.61Zm5.25.18c.19-1.08,3.28-4.4,3.91-4C40.28,55.3,37.89,55.68,36.22,56.79ZM49.15,32.9c-.27.87-.58-1.1-.45-1.24a.3.3,0,0,1,.44,0A4,4,0,0,1,49.15,32.9Zm2,1.61.26-2,.62,1.53Zm1.44-1a9.81,9.81,0,0,1-.62-1.3v-.09l.48-.3C52.3,32.08,52.63,33.52,52.61,33.51Zm-.11-2.62-3.85-1,3.85.43.39-.51Zm1.43,4.28c0,.28-.5-3.06-.5-3.06l1.16-.57S53.7,32.41,53.93,35.17ZM54.5,31c-.28.18-1.28.3-1.39.11s.45-.49.72-.86c.08-.11-.14-.27.05-.48s.51-.86.53-.86C54.59,29,55.06,30.66,54.5,31Zm3.48.55c-1.2-1.09-.24-7.5,2.53-4.47C58.53,28.21,60.55,30.89,58,31.58Zm5.43-1.74c-2.79,3-.48-10.7,2.33-5.47C65.09,32.46,62.34,23.85,63.41,29.84Zm3-5.23C65.88,22,67.71,21,69,22.47,68.08,23.64,67.29,27.43,66.44,24.61Zm5.13-.93c-1.45-3.38,2.44-5.57,3.55-4.57C75.53,22.15,72.73,22.27,71.57,23.68Zm6.69-3.13c-4.18-.09-.35-3.48,1.56-3.41C81.23,17.87,79.17,20.64,78.26,20.55Zm27.6-8.29c-.57,1.76-.61,3.63-2.4,4.69C101.81,16.06,105,7.78,105.86,12.26ZM99.74,9.94c.32,3.08-4.72,11.39-2.35,4.82C92.62,18.11,98,12.24,99.74,9.94Zm-4.44,1c-.3,2.08-.73,7.13-3.11,7C92.85,15.9,92.3,9.81,95.3,10.92ZM84.56,20.16c-1.42-1,2-9.23,4.12-7.12C88.33,16,85.62,17.68,84.56,20.16ZM98,36.55c-11,8.14-1.35,11.17,2,18.16C76.25,52.45,93.35,35.15,85.82,33c-2.31-2.51,5.35-9.28,8.78-10.41-1.44,4.84-.32,3-3.31,7.05,3.82-1.55,6-5.94,9.21-7.47-2,4.89.57,6.1,3.81,2.8-3.86,5.42,2.23.07,1.37,4.38.89,3.51-.66,12.37-6.11,9.75C101.74,37.69,96.94,34.36,98,36.55Zm5,17.15c5.09-4.21.45-6,5.5-7C108.54,50.34,106.74,54.61,102.93,53.7Zm2.44-35c1.88-1.11,5-8,6.23-5.43C110.32,15.13,107.67,19.64,105.37,18.72ZM113.59,16c-1,2-2.15,3.69-4.53,4.18C108.29,19.58,112.86,14,113.59,16Zm-3.53,5.47c1-.76,3.58-3.75,4.86-3A6.64,6.64,0,0,1,110.06,21.42Zm13.45,12.33,4.48-2A6.9,6.9,0,0,1,123.51,33.75Z"/></g></g></svg>