<svg xmlns="http://www.w3.org/2000/svg" viewBox="0 0 100 164.99"><defs><style>.cls-1{fill: white;}</style></defs><title>Asset 1</title><g id="Layer_2" data-name="Layer 2"><g id="Layer_1-2" data-name="Layer 1"><path class="cls-1" d="M69.94,136.1c.41-.36,1.56-.45.82-1.24C70.45,135.34,70.18,135.75,69.94,136.1Z"/><path class="cls-1" d="M99.39,43a23.28,23.28,0,0,0-1.09-7.82c-1.62-4.41-3.44-8.73-4.18-13.41-.12-.79-.9-1-1.6-1-3.81.3-4.13,3.69-3.38,7.46.69,3.47,1.16,8.35,1.82,11.82.09.43-1.6-.82-1.93-.43-.18-.33-.38-.64-.54-1-.32-.66-.62-1.34-.94-2-1.51-3.14-1.78-6.65-3-9.9C82,19.55,77.69,13.3,73.81,6.82c-.49-.81-.74-1.89-1.73-2.11-2.87-.65-6.26-.18-6.84,4,0,.19,1.63,4.56,1.58,4.75a47.38,47.38,0,0,0-3.08-4.84c-3-2.21-3.66-5.47-6.55-7.78C56.28.13,55.61-.26,54.55.2c-5,2.18-6.22,6.27-2.88,10.54a49.67,49.67,0,0,1,8.8,16.52c1.7,5.67,4.46,11,3.73,17.19,0,.24.24.54-.13.69a3.07,3.07,0,0,1-.29-.57,15.52,15.52,0,0,0-.84-2.25c-5.09-9-8.95-18.59-14.82-27.14a11.12,11.12,0,0,0-5.78-4.7c-2.21-.67-4.12.78-5.48,2.6a5.5,5.5,0,0,0-.3,6.07c2.09,4.28,4.86,8.34,6.19,12.83,2.27,7.67,5.36,15.1,6.08,23.29.5,5.79,2,11.49,1.37,17.4-.23,2.23-.86,4.38-.82,6.69a13.63,13.63,0,0,1-4.9,11,13.7,13.7,0,0,0-3.39,3.23c-1.32,2.24-5.55,2.2-7.34.28-2.76-3-4.33-6.61-6.25-10C23.93,77.48,18.87,73,11.83,71a12.22,12.22,0,0,0-9.77.85c-2.73,1.56-2.66,4.87-.29,6.82a41.92,41.92,0,0,1,8,8.42c1.53,2.23,2.75,4.69,4.5,6.71a50.53,50.53,0,0,1,9.84,16.93A17,17,0,0,0,28.47,118c5.62,5.28,12.77,8.7,17.64,14.94a31.29,31.29,0,0,1,6.52,13.71,29.68,29.68,0,0,1-.06,9.17c-.27,2.14.64,4.24,0,6.34-.41,1.23.25,1.77,1.28,2.21,2.3,1,4.69.56,7.05.57.75,0,1.5,0,2.26-.07-.71-.09-1.42-.16-2.11-.28a13.07,13.07,0,0,1-1.39-.41c.75-.38.54-1.4,1-1.76s.91-.43.18-1c-.22-.17-.13-.72-.18-1.09.41.16.39-.52.54-.4s0,.52-.15.77c0,.05,0,.14.05.21a1.25,1.25,0,0,0,.41-.15c.76-.65.65-3.35-.12-4-.13-.11-.15-.37-.2-.57,0,0,.09-.16.11-.15.88.2.18-.3.2-.46s0-.58.06-.87h.18c.06.29.22.62.5.37s-.08-.53-.25-.75c-.46-.59-.1-1.07.27-1.41,1-.93,2-1.81,2.24-3.28a4,4,0,0,1-1.85,1.73.51.51,0,0,1-.31,0,4.73,4.73,0,0,1-.17-1.61c0-.19.09.25.21.35l.23.19c.06-.18.22-.4.17-.54-.3-.9,0-1.21.93-1.2.22,0,.65-.07.5-.43s-.38,0-.58.07a1.4,1.4,0,0,1-.41,0,1.35,1.35,0,0,1,.1-.46c.21-.35.69-.67.09-1.1,0,0,0-.19,0-.28.18,0,.52.09.53.16.08,1,.84,1.17,1.57,1.42h0l1-.44s.18.16.16.22a6.67,6.67,0,0,1-.23.72c.32-.24.63-.49,1-.73s.81-.64.92-.56c.37.27-.2.38-.25.61a1,1,0,0,0,0,.24,1.32,1.32,0,0,0,.45-.14c1.09-.82,1.15-2.52,2.61-3l.54-.17a2.77,2.77,0,0,1-.26.48,19.31,19.31,0,0,0-1.4,1.6c-.52.77-.6,1.87-1.92,1.93-.24,0-.73,1-.6,1.42.2.61.73-.24,1-.12.72.34,2-1.1,2.24.65.37-.41.74-.83,1.13-1.23.11-.12,0-.55.37-.27.16.14.31.57.25.62-1,.91-.46,2.62-1.73,3.38h0c0,.28-.08.56-.11.84h0c-.38.41-.77.82-1.13,1.24a1,1,0,0,0-.15.39c1.19.5,1,1.35.68,2.32a8.24,8.24,0,0,0-.15,2.28c0,.19.29.44.51.54s.44-.07.51-.34.08-.27.12-.41a4.54,4.54,0,0,1,.09.51c0,.86-.46,2,1,2.17.33,0,1-.3.87.48-.08.55-.07,1.09-1,1.23-1.5.23-3-.5-4.48.12-.18.08-.36.18-.54.28a3.42,3.42,0,0,0,.62.13,69.93,69.93,0,0,0,14.31-.81c2.58-.42,5.19-.61,7.76-1,1.36-.22,2.82-.64,2.85-2.42,0-2.87-.06-5.75-.08-8.63,0-3.92-.15-7.85,0-11.76.11-4.09.5-8.18.67-12.26.19-4.5,1.12-8.89,1.62-13.33.51-4.59.77-9.21.84-13.85.08-5.87-.38-11.76.9-17.59,1.17-5.35.49-10.91,1.62-16.3A82.16,82.16,0,0,0,100,55.24C100.21,51.17,99.41,47.07,99.39,43ZM8,81.66c-.33.33-1.07.14-1.4,0C6,81.43,5.73,81,5.26,80.4a18,18,0,0,0-2.09-2.11c-1.32-1.23-1.88-1.47-1.9-2.12A1.54,1.54,0,0,1,1.87,75c.36-.28.83,1.12,1.23,1.16s1.82,3.82,2,1.42c0-.23,0-.35,0-.07,0,0,0,0,0,.07a1.15,1.15,0,0,0,.29.82c.26.22.56,1,.79,1.31s.56-.33.73-.08c.3.43.29-.42.5,0s.4-.34.5,0C8.23,80.57,8.26,81.36,8,81.66Zm15.75,16.7c-.14-1,.66-1.58,1.28-2.15.1-.08-.88,1,.31,1.17l-.89,1.55C24.17,98.74,23.75,98.58,23.71,98.36Zm11.71,14.36c-1.31.33-2-.1-2.29-1.38-.31.14-.13-1.14-.72-.25,0,.07-.32,0-.5,0,.12-.93-.89-1-1.23-1.56-.94-1.62-2-3.16-2.92-4.79a9.93,9.93,0,0,0-1.45-2.47c-.81-.63-.39-2.13-1.76-2.15-.35,0-.18-.31,0-.53.4-.66.78-1.33,1.17-2l.45-.77c.05.32.1.64.12.79a4.36,4.36,0,0,1-.07.79c-.1.33-.25.63-.37,1,.27-.21.54-.43.83-.62.08,0,.21,0,.32,0,0,1,1.37,1,1.56,2.15.25,1.57.81,1.63,2.62,1.87.24,0,.37.86.55,1.32a1.87,1.87,0,0,0,.17.31s.09-.1.08-.13a1.08,1.08,0,0,1,.34-1.19,11.91,11.91,0,0,1,.8,1.07c.24.41.41.87.62,1.3a2.39,2.39,0,0,0,.21.34,2,2,0,0,0,.17-.46,5.31,5.31,0,0,0,0-.69c.17.26.55.61.48.79-.51,1.3.79,1.84,1.09,2.78s1.43,1.67.43,2.78c-.07.08,0,.41.13.54.28.29.74-.75.72-.09S36.21,112.51,35.42,112.72Zm5.48-16c-.08.23-.34.76-.53,0a3.62,3.62,0,0,1-1.7,1.38c-1.47.52-2.11-.71-3-1.33-.36-.26.17-.61,2.52-.58l1.95-.34c.28,0,.58-.54.81-.15A1.39,1.39,0,0,1,40.9,96.68Zm29.86,52.73a7.1,7.1,0,0,0-.87-.08c-.45,0-.92.24-1.35-.1a9.7,9.7,0,0,1,1-.71c.31-.17.28-.38.3-.66s.24-.29.4-.39.29.06.29.09a2.65,2.65,0,0,1-.1.55c-.06.18-.26.44-.21.5.27.32,1-.45,1.07.39,0,.07,0,.19,0,.19ZM69.87,5.92c.16.12.38.21.37.29-.15,1.38,1.12,2.26,1.26,3.54a2.17,2.17,0,0,0,1,1.49,1.54,1.54,0,0,1,.27.41,3,3,0,0,1-.45-.19c-1.66-1.18-2.43-3-3.16-4.74C69,6.24,69.6,6.19,69.87,5.92ZM56.38,10.38C54.57,10,53.7,8.5,52.7,7.18c-.19-.25-.54-.65-.15-.93s.53.22.71.46c1,1.3,2.79,1.59,3.56,3.1.12.22.21.46.34.73C56.79,11.1,56.63,10.43,56.38,10.38Zm-.12-2.92C54.8,6.64,53.35,5.78,53,3.91c.21-.61.14-1.57.88-1.7S55.18,3,55.5,3.6c.53.93,2.13,1.64,1,3.14-.08.1,0,.42.17.57a3.56,3.56,0,0,0,.6.49A5.89,5.89,0,0,1,56.26,7.46Zm8,19.38a30.3,30.3,0,0,0-1.3-4.23C61.85,20.5,61.6,17.87,60.35,16c-.41-.63-1.17-.78-1.24-1.87-.85.31-.67-.91-1-1.4-.4-.67-.44-1.2.29-.95,1.09-.39,1.76.93,2.08,1.78.4,1.09,1.22,1.21,1.58,2.26s1.26,1.68,1.28,3.07c0,.22.31.48.49.68,1.35,1.57,2,3.87,2.82,5.91.41,1.08.75,2.37,1.22,3.52a3.79,3.79,0,0,0,.75,1c.58.76,1,1.84,1.56,2.59a4.08,4.08,0,0,1,.89,2.85c0,.5,0,.91-.45.78,0,0-.1.08-.15.12.6,1.18.27,1.81-.5,2.19,0,.07.08.17.14.2s.5.18.39.37-.09.43-.17.62a.67.67,0,0,0,.14.28c.35.31.7-.21,1.17,0,1.19.51,1.07,1.34.59,2.41-.49.4-.33,1,.62,1.66s.83,1.08.08,1.72c.64,1,.26,2.16.11,3.09-.11.67,2.36.74.2,1.48-.06,0-.08.18-.12.27s.18.17.26.15c1-.22,0,1.29.73,1.36-.23.45-.6.67-1,.55s-.54-.46-.47-1.17c.11-1.22-1.08-.66-1.52-1.3-.18-.25-.7-.32-.59-.77s.36.12.57.09c.44-.06.2-.38.12-.55a16.11,16.11,0,0,0-1.11-2.15,2.28,2.28,0,0,1,.5-3c.24-.16.16-1.18.14-1.79,0-.43,0-.69.38-.54h0c-.3-.42-.62-.81-.89-1.26a2,2,0,0,1-.16-.36.45.45,0,0,1-.18,0c-1-.4-1.43-1.32-2-2.55-1.07-2.17-1.12-4.82-2.33-6.92A18.77,18.77,0,0,1,64.23,26.84Zm7,96.42a1.29,1.29,0,0,1-.07-.21,1.91,1.91,0,0,1,.52-.07c.84.09,1.65.19,2-.89.08-.22.53-.31.81-.46.16.43-.33.41-.43.64-.59,1.36-2,1.3-3.08,1.71-.18.07-.49-.18-.74-.29l.63-.16,0,.12c.22,0,.59,0,.65-.13C71.77,123.18,71.35,123.39,71.26,123.26ZM57.11,74.34c.42,0,1.17.13,1.1.5-.15.77-1,.61-1.59.77-.38,0-.88-.06-.78-.54S56.57,74.32,57.11,74.34ZM54.69,57.66c0,.1-.32.33-.5.5s-.19.21-.28.32c.1,0,.19.06.29.07s.41-.31.5,0c0,.11-.19.33-.35.44-.62.4-1.25.79-1.89,1.16-.22.12-.48.14-.6-.15a.74.74,0,0,1-.08-.51c.14-.3.34,0,.52,0a.8.8,0,0,0,.3,0c-1-.12.68-1.64-.81-1.49-.07,0-.17-.19-.25-.29a5.71,5.71,0,0,1,.71-.19,2.73,2.73,0,0,1,.67.07l1-.08C54.2,57.5,54.55,57.27,54.69,57.66Zm1.83,21.86c.17,0,.41-.31.5,0,0,.11-.2.34-.35.44-.62.41-1.26.79-1.9,1.16-.21.12-.48.15-.6-.15s-.14-.38-.07-.51c.14-.29.33,0,.51,0a1,1,0,0,0,.3,0c-.95-.13.69-1.65-.8-1.5-.08,0-.17-.18-.26-.28a6.29,6.29,0,0,1,.71-.2,3.45,3.45,0,0,1,.67.08l1-.08c.28,0,.63-.25.77.14,0,.09-.33.33-.5.5l-.29.31A1.09,1.09,0,0,0,56.52,79.52ZM38.82,12.76c.36-.12.47.18.6.39A8.31,8.31,0,0,1,41,16.42a5.83,5.83,0,0,0,1.43,2.92.93.93,0,0,0,.22.14.6.6,0,0,1-.88,0c-1.33-1.22-2.66-2.43-3.94-3.71C37.38,15.39,38.27,12.94,38.82,12.76Zm.88,7.32a4.51,4.51,0,0,1-.73-.3c-.59-.32-.73-.73-1.91-2.43-.16-.23-.32-.45-.25-.53s.47,0,.74.28.31.63.6,1.18a3.52,3.52,0,0,0,.79,1,14.29,14.29,0,0,0,1.39,1C40.31,20.28,39.83,20.13,39.7,20.08ZM49.56,45a51,51,0,0,1-1.82-5.48c-.41-1.35-.87-2.64-1.3-4-.32-1-.7-2.07-.91-2.88a10.17,10.17,0,0,0-1.27-3c-.54-.89-1-2.46-1.35-2.95s-.81-1.36-1.21-1.92a16.79,16.79,0,0,1-1.4-3.4c-.08-.21.07,0,.12,0,.47.34.92,1.72,1.38,2.32.17.22.5.25.55,1.29a1.23,1.23,0,0,0,.1.2c.2-.76.72.54,1,1,.39.81.64.71,1,1.2a14.86,14.86,0,0,1,1.18,2.88c.53,1.53,1.18,2.82,1.78,4.15.45,1,.7,2.2,1.07,3.27.22.61.24.13.33.38.21.58.4,1.21.61,1.79,0,.1.16,1.09.21.34,0,0,.09.07.11.14A26.62,26.62,0,0,0,51.12,44c.09.2.17.52.24.74,0,.39.08.43.18.55a1.94,1.94,0,0,1,.39,1,28.13,28.13,0,0,1,.18,2.89l0,0c.28.44.16.72.38,1.2a2.23,2.23,0,0,0,.81.89c.45.37.87,1.37.69,4.21a.82.82,0,0,1-.81.78h0a.83.83,0,0,1-.81-.63c-.08-.32-.15-.66-.22-1-.11-.52-.21-1-.29-1.51,0-.14-.37-3-.37-3.1s0-.35-.07-.52-.07-.47-.1-.61a2,2,0,0,1-.36-.65C50.53,47.1,50,46.11,49.56,45Zm6.77,84.32c-.16.25-.69.83-.59-.18-1.19.54-1.06-1.22-2.05-1.17-.5,0,.1-1.15-1.07-1.11-.68,0-.11-1.13.08-1.76h0c-.45.24-.55,1.25-1.2.84s-1.8-1-.93-2.26a3,3,0,0,1,.29-.33c.19,1,1.95.4,1.84,1.75h0c.71-.62.8.72,1.4.45.29,1.17,1.31,1.71,2.16,2.35C56.93,128.41,56.62,128.88,56.33,129.32Zm.75-34A7.7,7.7,0,0,0,55.34,97c-.09.15-.42.14-.63.21.12-.17.25-.34.36-.52l.74-1.27c-.59,0-.6.65-.93,1a5.4,5.4,0,0,0-1,1.17c-.1.17-.7.78.26.65.1,0,.32.17.31.2a3.12,3.12,0,0,1-.46,1,2.68,2.68,0,0,1-4,0s-.35-1.32-.75-.1c-.08.25-.25.07-.24-.09.06-.53,0-1.29.27-1.52.5-.39.26.45.53.6a1.1,1.1,0,0,1,.14.09c0-.14,0-.28,0-.42.38-2-.32-4-.44-6a2.21,2.21,0,0,1,.23-.7,5.07,5.07,0,0,0,.11.68c.08.29.2.57.3.86a2,2,0,0,1-.1-.76c.29-1,.63-1.88.95-2.82.71.3.28-.38.52-.52-.42-.88.25-1.6.33-2.4,0-.36.34-1.23.6-1,.47.47,1.56.38,1.47,1.34-.15,1.45,1.22,2.27,1.4,3.57,0,0,.41,0,.62.08a1.39,1.39,0,0,1,.45.19s0,.28,0,.29c-1.3.12-.3.86-.32,1.29s.26.67-.36.41c-.06,0-.27.32-.42.5l.48-.07c.9-.15.86-.14.92.48,0,.24.2.64.36.68C58.59,94.47,57.22,95.22,57.08,95.34Zm.47-18a2.94,2.94,0,0,1-2.48-1.07c.12,0,.22-.11.27-.08.95.53,2-.55,2.91.1C57.71,76.38,58.48,77.3,57.55,77.29Zm15.9,61.58a11.4,11.4,0,0,0-2.18,2.4,24.44,24.44,0,0,1-1.7,3.49s.07.13.11.2c.19-.13.44-.21.57-.39.31-.44.86-1.13,1.14-.8s-.51.7-.83,1a9.51,9.51,0,0,1-1.75,1l-.74.41c.27.42.41-.15.62-.07s.25.13.24.17a.64.64,0,0,1-.74.5c-.61-.09-1.23,1-1.76.09-.22-.4.35-.67.76-.91s1-.8,1.7-.76c0,0,.1-.18.16-.29l-.45,0c-1.27,0-2.2.88-3.27,1.34-.84.37-1.11-.36-1.67-.29,0,0-.07-.08-.1-.12h.87a6.61,6.61,0,0,0,3-1.68c.25-.25.67-.83,1-.43s-.46.34-.64.61a2.13,2.13,0,0,1-.28.33c.09,0,.22.11.27.07.44-.32,1.42-.21,1.37-.8-.13-1.55,1.18-2.18,1.91-3s1.17-1.8,2.15-2.3c.14-.07.13-.48.4-.22C73.65,138.47,73.56,138.76,73.45,138.87ZM75.3,127c-.22,1-2.23,3.75-.87,3.21,1.45-.19-1,1.76-1.25,2.09-1.78-.62-1.87,4-2.42,5.36-.1,1.56-1.88.69-.51-.2,0,0,1-.5-.08-.55-.32-.3-.39-.5-.34-.66-1.42,2.07-1.68,2.11-2.12,5.24.65,1.36,1.72-5.5,1.64-1.47.47,1.69-2.44,5.16-4.62,4.47a2.94,2.94,0,0,1,1.67-1.15c.21-.51-1.71.15-1-1.31.35-1.2-2.06-.32-1.32-1.81.33-.77-1-1.14-1.37-1.4-.05-1.23-1-2.23.14-3.41-1.75-.64-3.18.09-1.91-2-.2,0-.43,1-.63,0-.05-.27-1.18.28-.89-.77.07-.22-.68.44-.46-.08,1.39-.88,2.79-3.72,2.62-1.06,1-.61.5-3.44-.62-2.24-.14-1.54-2.2-4.86,1.08-5.76,6.68-1.59-3.5,3.15,2.53,1.51.82.06,1.2-.27,1.66-1,2.51-1.23,1.41-.68.06.92,1.84,1.32,8.95-1.68,7.91.88-1.29,1.51,2.21-1,.41.82C71,130.55,77.19,124.73,75.3,127Zm.76-71.59c0,.11-.18.34-.32.44-.57.4-1.15.79-1.73,1.16-.2.12-.44.14-.55-.15s-.13-.1-.07-.23c.13-.3-.73-.18-.49-.82,0-.08.4,0,.49,0-.87-.12-1.71-.19-.53-.57.06,0,.38-.57.31-.67a3.75,3.75,0,0,1,.65-.2,3,3,0,0,1,.61.08l.82-.08-.14-.17a.6.6,0,0,1,.28-.07.41.41,0,0,1,.28.07.27.27,0,0,1,.07.08.28.28,0,0,1,.31.22s-.06.14-.16.23a.06.06,0,0,0,0,0c.1.26.15.28.16.43a.76.76,0,0,1,0,.2S76.06,55.41,76.06,55.42ZM84,43.27c-.22,1.43-.21,3.72-.48,4.2-.67,1.23.34,2.11-.1,2.92.5.92-.1,1.94,0,3,0,.4-.32,1,.2,1.2-.26.32-.52,0-.78,0a1.23,1.23,0,0,1-.43-.18c.1.38.29.36.47.38s.41.14.52.55c-.33-.24-.27.91-.6.67l-.11,0c.09.38.19.75.3,1.12,0,0,.09,0,.12-.07s0-.42.15-.26a.88.88,0,0,1,0,.41A7.92,7.92,0,0,0,83.21,60c0,.16.09.42-.08.26a2.28,2.28,0,0,1-1-2.12q0-4.38-.1-8.74c0-.54.52-.69.17-1.31.48-.9,0-1.82,0-2.7,0-1.33-.15-2.66-.1-4,0,0,.09,0,.1,0,.14-.53.75,1.14,1.38-.32l.3.4c0,.69.28.5.07.86C83.59,42.84,84,42.93,84,43.27Zm-1.54-3.69c-.26,0-.48-.42-.67-.43.07-1-.65-1.83-.73-2.79a.25.25,0,0,0-.1-.15c-1.2-.54-1.93-2.21-2-3.83A26.08,26.08,0,0,0,78,28.76c-.61-2.79-2.35-5.2-2.69-8.07,0-.12-.08-.33-.13-.34-.58-.05-.7-.06-.58-.79s-.64-.5-.9-.86c-.72-1-.37-2-.3-3h0c-.24-.06,0,1.3-.58.2-.14-.26-.23-.14-.37,0s.24.69-.21.57c-.28-.07-.54-.53-.65-.87a3.76,3.76,0,0,0-1.22-2.13c-1.64-1.27-2-3.33-2.56-5.22,0-.13.08-.3.13-.46a4.19,4.19,0,0,1,.5.31c1.33,1,1.41,2.79,2.47,4,.24.27.52.52.78.78l.4.4a4,4,0,0,0-.49,0,1.32,1.32,0,0,0-.33.08c.18.1.35.28.52.28.89,0,1.39.22.78,1.19a.72.72,0,0,0-.07.25,1.54,1.54,0,0,0,.3,0l.81-.21-.21.88h0c.74-.37,1.13.26,1.51.64a25.45,25.45,0,0,1,1.67,2.06c.07.09.17.27.14.3-1.66,2,.88,2.14,1.45,3,.72,1.07.83,2.48,1.91,3.3,0,0,0,.26-.06.29-.49.3-.32.18.11.89a14.07,14.07,0,0,1,1.3,3.18,49.31,49.31,0,0,1,1.76,6.14c.23,1.21.93,2.56.87,3.42a1.36,1.36,0,0,0,0,.2C83.44,39.16,82.84,39.57,82.42,39.58Zm9.36-18a1.07,1.07,0,0,1,.47.11,1.27,1.27,0,0,1,.36.2s-.55.22-.59.46a2.75,2.75,0,0,0,.34,1.31c.11.26-.08-.28,0,.89.08,1,.82.9.54,1.1a.54.54,0,0,1-.49.09c-.23-.1-.25-.45-.26-.58,0-.53-.43-2.37-.43-3.24Zm6.45,36.6c-.62.41-1.25.8-1.9,1.16-.21.12-.48.15-.6-.15s-.14-.38-.07-.51c.14-.29.33,0,.51,0a1,1,0,0,0,.3,0c-1-.12.69-1.65-.8-1.5-.08,0-.17-.18-.26-.28l.15,0c-.34,0-.8-.43-.89.71l-1.15,2.14c-.08.63,2.33,2.68,1,3.26-.31.14-.69-.05-.57-.18,1-1.13-.21-.57-.46-.58-2.48-.07,0-.74-1-3.29l-.05-.71c0-.09.79-1.39.79-1.48.3-3.26,1.31-6.24.89-9.58-.13-1.05.1-1.44-.07-2.48-.29.22-.57-2.1-1.11-1.25,0,0-.58-1-.62-1,1.25-.78.58-2.25.62-2.4.57-2-.17-1.94.32-3.88a5,5,0,0,0-.94-4.66c-.43-.48.25-.63-.62-2.51-.75-1.63-2.4-2.93-1.38-4.76.14-.24.25-1.69.56-1.61,0,0,.06.72.13.87s.16-.21.23.05.07.23.11.35-.08,1.4-.06,1.51c.2.79.47.45.44.79C91.63,27.89,93,31,93,30.41s1.09.15.53-2.65c0-.28.39-.42.5.12.22,1.11.2,4.21.32,4.66a1,1,0,0,1,.83.74c.6,1.73-.71,1.56-.34,2.26-.06,4.54.38,1.87.25,4.47-.11,2.25.39,8.39,1.28,10.69a1.69,1.69,0,0,1-.12,1c-.14.42-.5,1-.08,1.19s.11-.62.38-.86c.12-.1.27-.17.4-.26a2.09,2.09,0,0,1,0,.49c-.09.95-1,1.76-.45,2.85.06.13-.59.29-.61.91,0,.43-.08.63-.18.72a2.54,2.54,0,0,1,.37-.1,3.61,3.61,0,0,1,.68.08l1-.08c.28,0,.63-.25.77.14,0,.1-.33.33-.5.5l-.29.31a1.67,1.67,0,0,0,.3.08c.17,0,.41-.32.5,0C98.61,57.86,98.38,58.09,98.23,58.19Z"/><path class="cls-1" d="M64.06,147.66a.71.71,0,0,1,.14.1.75.75,0,0,1,.12.14.53.53,0,0,1-.11-.14A.56.56,0,0,0,64.06,147.66Z"/><path class="cls-1" d="M64.35,147.92c.38.49.11.86-.45,1-.85.25-.46,1.18-1,1.57-.09.07-.09.09,0,.05l.22-.14c.28-.18.41-.5.65-.72a.53.53,0,0,1,.66-.07l1-1.69C65.1,148,64.68,148.22,64.35,147.92Z"/><path class="cls-1" d="M65.73,152.19c-.2.11-.38.22-.53,0s.07-.53.3-.72.43-.44.18-.75c-.11-.13-.35-.31-.43-.27-.43.22.22.36.08.56a5.14,5.14,0,0,1-.68.91,4.5,4.5,0,0,0-1.16,2.36,3.22,3.22,0,0,0,0,.45c.14-.2.2-.28.24-.35.48-.72.65-1.76,2-1.5.32.06.82-.85,1.23-1.31C66.34,151.37,66.13,152,65.73,152.19Z"/><path class="cls-1" d="M70.67,152.61a1.34,1.34,0,0,0,.11-.14A.76.76,0,0,0,70.67,152.61Z"/><path class="cls-1" d="M71.14,151.76a1.58,1.58,0,0,0,0-.44c0-.41.34-.61.44-.94a.81.81,0,0,0,0-.22.47.47,0,0,1,0,.17.59.59,0,0,1-.89.29l.2.88A.7.7,0,0,1,71.14,151.76Z"/><path class="cls-1" d="M70.61,154a1.13,1.13,0,0,1-.19-1.06c-.25-.27-.16-.56.22-.86.18-.14.46-.22.26-.54-.35.15-.7.29-1,.46-1.34.66.8,1.53-.13,2.22.39.35.57-.21.88-.21h0Z"/><path class="cls-1" d="M70.67,152.61l-.24.25v0a1.56,1.56,0,0,0,.3.22h0A.34.34,0,0,1,70.67,152.61Z"/><path class="cls-1" d="M71.14,151.76a1.77,1.77,0,0,1-.36.71C71,152.24,71.27,152,71.14,151.76Z"/><polygon class="cls-1" points="52.69 125.1 52.69 125.1 52.7 125.09 52.69 125.1"/><polygon class="cls-1" points="73.4 15.73 73.4 15.73 73.4 15.73 73.41 15.72 73.4 15.73"/><path class="cls-1" d="M95.75,56.79l-.19.05A.26.26,0,0,0,95.75,56.79Z"/></g></g></svg>