<svg xmlns="http://www.w3.org/2000/svg" viewBox="0 0 582.83 582.56"><defs><style>.cls-1{fill:none;stroke:#231f20;stroke-miterlimit:10;stroke-width:5px;}</style></defs><title>Asset 2</title><g id="Layer_2" data-name="Layer 2"><g id="Layer_1-2" data-name="Layer 1"><polygon class="cls-1" points="574.28 573.83 540.49 575.83 504.92 578.39 469.35 571.24 433.78 572.57 398.21 578.99 362.64 576.28 327.06 580.06 291.49 579.23 255.92 575.1 220.35 573.55 184.78 576.18 149.2 579.53 113.63 572.89 78.05 573.88 42.47 572.98 4.32 578.18 9.17 540.03 2.53 504.46 7.83 468.89 10.17 433.32 8.88 397.75 10.19 362.18 8.94 326.6 9.99 291.03 10.22 255.46 10.91 219.89 9.21 184.32 3.18 148.74 6.03 113.17 4.67 77.59 4.07 42.01 9.79 9.33 42.46 9.47 78.03 10.88 113.61 5.27 149.18 2.61 184.75 3.55 220.32 7.47 255.89 10.12 291.47 3.74 327.03 5.65 362.6 5.83 398.18 6.78 433.75 3.91 469.33 2.51 504.9 9.33 540.48 2.9 579.15 3.34 578.29 42.01 576.72 77.57 573.64 113.15 576.96 148.72 580.32 184.29 577.12 219.86 572.09 255.43 572.83 291.01 577.31 326.57 571.64 362.14 579.16 397.72 577.97 433.29 574.9 468.87 572.98 504.44 577.13 540.05 574.28 573.83"/></g></g></svg>