<svg xmlns="http://www.w3.org/2000/svg" viewBox="0 0 160.29 41.61"><defs><style>.cls-1{fill:#fff;}.cls-2{fill:none;stroke:#231f20;stroke-miterlimit:10;}</style></defs><title>Asset 4</title><g id="Layer_2" data-name="Layer 2"><g id="Layer_1-2" data-name="Layer 1"><polygon class="cls-1" points="36.82 9.75 39.34 13.43 40.94 17.69 40.96 22.25 39.42 26.5 38.26 30.83 35.4 34.3 32.31 37.6 28.03 39.1 23.92 41.09 19.4 40.54 14.91 40.21 10.7 38.54 7.38 35.47 4.29 32.25 2.17 28.31 1.02 23.98 0.51 19.49 1.81 15.17 2.99 10.78 6.05 7.43 9.28 4.3 13.2 2.05 17.66 1.35 22.12 0.57 26.42 2.02 30.53 3.64 34.1 6.28 36.82 9.75"/><polygon class="cls-2" points="36.82 9.75 39.34 13.43 40.94 17.69 40.96 22.25 39.42 26.5 38.26 30.83 35.4 34.3 32.31 37.6 28.03 39.1 23.92 41.09 19.4 40.54 14.91 40.21 10.7 38.54 7.38 35.47 4.29 32.25 2.17 28.31 1.02 23.98 0.51 19.49 1.81 15.17 2.99 10.78 6.05 7.43 9.28 4.3 13.2 2.05 17.66 1.35 22.12 0.57 26.42 2.02 30.53 3.64 34.1 6.28 36.82 9.75"/><polygon class="cls-1" points="100.25 20.88 99.63 25.27 98.81 29.74 96.31 33.56 92.77 36.38 89.14 39.01 84.81 40.18 80.4 40.88 75.98 40.25 71.85 38.63 68.24 36.12 64.88 33.25 62.48 29.5 61.03 25.3 60.31 20.88 61.32 16.52 62.17 12.09 64.39 8.11 67.89 5.18 71.72 2.84 75.99 1.54 80.4 0.51 84.91 1.12 89.23 2.54 92.96 5.13 95.85 8.56 98.08 12.37 99.97 16.41 100.25 20.88"/><polygon class="cls-2" points="100.25 20.88 99.63 25.27 98.81 29.74 96.31 33.56 92.77 36.38 89.14 39.01 84.81 40.18 80.4 40.88 75.98 40.25 71.85 38.63 68.24 36.12 64.88 33.25 62.48 29.5 61.03 25.3 60.31 20.88 61.32 16.52 62.17 12.09 64.39 8.11 67.89 5.18 71.72 2.84 75.99 1.54 80.4 0.51 84.91 1.12 89.23 2.54 92.96 5.13 95.85 8.56 98.08 12.37 99.97 16.41 100.25 20.88"/><polygon class="cls-1" points="147.46 39.8 143.05 40.86 138.54 40.81 134.2 39.79 129.89 38.44 126.25 35.72 123.56 32.09 121.11 28.28 120.28 23.83 120.55 19.38 120.87 14.92 122.92 10.94 125.69 7.5 128.7 4.16 132.82 2.34 137.06 0.75 141.61 0.72 145.85 2.22 149.96 3.8 153.79 6.13 156.69 9.58 158.79 13.56 159.79 17.93 159.52 22.36 159.09 26.77 157.14 30.77 154.42 34.24 151.58 37.81 147.46 39.8"/><polygon class="cls-2" points="147.46 39.8 143.05 40.86 138.54 40.81 134.2 39.79 129.89 38.44 126.25 35.72 123.56 32.09 121.11 28.28 120.28 23.83 120.55 19.38 120.87 14.92 122.92 10.94 125.69 7.5 128.7 4.16 132.82 2.34 137.06 0.75 141.61 0.72 145.85 2.22 149.96 3.8 153.79 6.13 156.69 9.58 158.79 13.56 159.79 17.93 159.52 22.36 159.09 26.77 157.14 30.77 154.42 34.24 151.58 37.81 147.46 39.8"/></g></g></svg>