<svg xmlns="http://www.w3.org/2000/svg" viewBox="0 0 112.91 109.49"><defs><style>.cls-1{fill:#231f20;}</style></defs><title>Asset 4</title><g id="Layer_2" data-name="Layer 2"><g id="Layer_1-2" data-name="Layer 1"><path class="cls-1" d="M105.8,59.16s0,0,.07-.08l-.08,0Z"/><path class="cls-1" d="M105.13,70.67c-.1,0-.34.2-.33.22.5,1-.68,1.64-.52,2.74.08.34.2.87.33,1.4a1.92,1.92,0,0,0,.23.42c.13-.11.39-.29.37-.33-.61-1.37.28-2.56.43-3.84C105.69,70.89,105.44,70.73,105.13,70.67Z"/><path class="cls-1" d="M103.28,77.43a6.07,6.07,0,0,1-.83,3.58c.08.48.12.75.17,1,.09-.06.24-.11.26-.19.44-1.29.88-2.58,1.24-3.9,0-.18-.29-.49-.48-.71C103.62,77.21,103.28,77.37,103.28,77.43Z"/><path class="cls-1" d="M107.59,13.69C97.82,1,98,.92,76.93.92,43.13-.38,50.24-1.63,22.86,7.09,14.89,9-3.38,19.3.55,33.36A11,11,0,0,0,.68,40c2.23-6.28,1.44,8.33,4.63,11-.52-3.33,2.68-2.2,1.84-4.76,2.33-.74.54,6.71.9,8.83.24,2.59,2.47-2,2.43.88-.31,1.07,2.36,3.08-.34,3.82.59,1.73,1.94,4.63,2.29,7,1.23-2.38,1.75-.32,2.35,2.34.9.12,1.72.17,1.76,1.74,0,.92,1.18,1.85.74,3.12-.08.24.25,0,.31,0,.81-.81,1.59-.74,2.74-.45,2.17.55,2.14.23,4.17,3.36.3.45.94,2.31,1.22-.06,0-.12.24-.22.36-.32.05.08.16.2.13.25-.42,1,.56,2.33-.25,3.18a2.59,2.59,0,0,1,1.38.26c.58.23,1.63,1.55,1.48-.5,0-.18.28-.41.31-.24.39,2.24.77-.68,1.22,0,0,0,.73-.18,1,.32a1.73,1.73,0,0,0,1.2,1.07c1.53.28,2.29.75,1.5,2.56-.27.62,1.28,1.16,1.86,1.37.8.29-.08-.65.11-1,.66-1,1.55-.09,1.77.17a1,1,0,0,0,1.57.08c1.63-2.57,2.13-.09,2.93.65.26.24.26.81.3,1.24.1,1.36-.22,3.3,2.11,1.43.05,0,1-.69,1,0,0,1.6,1.39,2.5,1.71,3.89.18.75.55,1.59,1.26,1.37,1-.31.75-1.77.37-2-1.63-1.11,0-1.78.18-2.61,0-.09.26-.11.29-.2.16-.49.29-1,.44-1.49.07.54.1,1.1.22,1.63.08.33.22.85.45.91.59.18.33-.43.49-.69.49-.83.7.38,1.13.19l.33-.48h0a6.08,6.08,0,0,0-.29-2.5c-.14-.41-.1-.88.5-1s.61.21.65.74c.06.71.89,1.25.6,2.1l.68-1c-.49,1,.92.92,1,1.77s-2,2.65.88,2.79c.39,0,.19,1.43-.29,1.75s-.08-.67-.45-.7c-1.52-.16-1.18-1.6-1.74-2.42h0v0h0c.09,1-.28,2.07,1,2.65A.59.59,0,0,1,55,93a.94.94,0,0,1-.81-.19c-.45-.4-.74-1.06-1.25-1.31-.95-.48-1.3.28-1.31,1.71s.61,3.14-.8,4.39c-.17.15-.29.5-.44.5-.46,0-.3-.41-.33-.68-.1-.69,0-1.46-1-.4-.23.25-.55-.67-.67-1.16,0-.22-.16-.56-.32-.61-.5-.14-.29.36-.42.56-.28.39-.7,1-1.17.69-.78-.44-1.82-2.28-1.44.5,0,.06-.27.17-.42.26-.08-.21-.17-.4-.23-.61-.11-.36.38-.9-.26-1-.12,0-.35.56-.57.83A5.48,5.48,0,0,1,43,97c-.28-.35.08-.53.2-.79a.9.9,0,0,0,0-1,5.68,5.68,0,0,0-.7.51c-.21.19-.4.6-.71.27s.12-.56.38-.76c.75-.59-.21-.91-.35-1-.58-.49-.28.28-.4.43-.33.42-.83,1-.76,1.4.3,1.82-.57,1.44-1.56.94s-1.22.5-1.69.94c-.21.21-.1.78-.66.61s-.33-.6-.35-.93c0-.85.16-1.05,1.22-1.44,0,0,.09,0,.1,0,.88-2.09-.58-3.58-1.51-5.07-.51-.82-1.66.1-2.51.22-.56.07,0,.67,0,1,0,1,0,1.83-1.07,2.28-.79.32-1.25-.55-1.09-.66,1.37-1-1-1.12-.39-1.87a.22.22,0,0,0-.33-.25c-.09.06-.13.21-.22.29-.35.26.81,1-.25.94a1.12,1.12,0,0,1-1-1.5c.82-2.1-.06-4-.94-5.69a10.24,10.24,0,0,0-3.63-3.56c-.14.4-.27.81-.43,1.2-.07.16-.26.41-.31.39-.42-.14,0-.36,0-.56,0-1-1.53-1.4-1-2.6-.36-.12-.46.24-.49.39-.12.66-.15,1.33-.25,2s-.28,1.53-.42,2.3c-.36-.81-.77-1.61-1.05-2.45a6.55,6.55,0,0,1,0-1.26c0-.2-.22-.39-.34-.59-.43,2.06-1.69-1.23-2.19.34l-.53-.48h0c0-.91-1.64-1-1.06-2.13.17-1-.9-1.75-.66-2.79,0-.1-.07-.23-.11-.35-.1.12-.29.24-.29.37a1.51,1.51,0,0,1-.81,1.34c-.24.15-.69.42-.47-.15.82-2.22-.43-4.18-.68-6.25C15.27,82.7,8.09,59.36,6.8,58.4c-1.45,1.37,1.38,2.49.55,3.76.35,2.16,1,5.37,2.2,7.39C14.2,77.82,14.3,87.72,21,95.33c2.08.6,2.34,2.94,3.92,4.18,2.27.94,3.9,1.87,4.67,3.72C46.52,110.31,74.7,113.94,90,99.91a12.15,12.15,0,0,0,7.91-8.21,4.79,4.79,0,0,0,1.93-2.82c.43.21.53-.26.64-.51.62-1.42,1.21-2.84,1.84-4.33l-.47-.77c-.13.08-.34.13-.38.24-.28.63-.55,1.27-.81,1.9.65-3.9.87-8.53,1.79-10.84.94-1.1.79-21.8,3.33-15.46h0c-.29-1.36-.61-2.71-.83-4.07,0-.35.21-1,.43-1.08.53-.11.32.49.44.79.25.61,1,.8,1.17,1.55.35,1.24.38,2.19-.79,2.66-.47,2.84-1.69,7.5.25,7.72C111.93,48.5,117.17,31.14,107.59,13.69Zm-62,86.66c0,.32-.1.57-.54.59a5.3,5.3,0,0,1-.75-1.43c-.05-.28.51-.53.86-.41C45.73,99.31,45.52,99.9,45.56,100.35Zm9-.94c-.12,0-.32,0-.34,0a11.23,11.23,0,0,1-1.44-3.22c-.09-.62,1-2,1.25-2,1.19.25,1.65,1.38,1.89,2.52S54.33,98.17,54.6,99.41Zm48.16-45.85a.81.81,0,0,1,.22.09,12,12,0,0,1,.16,3.79c-.14.14-.35.27-.37,0-.14-1.18-.23-2.36-.3-3.55C102.46,53.81,102.67,53.68,102.76,53.56Zm-1.7-32.41c1.39.42.42,1.89,1.14,2.47,0,.47-.09.94-.37.78-1.1-.63-.52-2-1.17-2.91C100.45,21.21,100.85,21.09,101.06,21.15Zm-.63,5.26c.48-.06.53.39.68.71-.09.57-.54.55-1,.58s-.71-.19-.67-.63S100,26.45,100.43,26.41ZM99,54.14a1.62,1.62,0,0,1,.15,1.31c-1.8.74-.93,2.37-1.28,3.57v0h0v0a4.76,4.76,0,0,1,.32-4.31C98.42,54.38,98.49,53.68,99,54.14ZM30.55,29C29,28.84,27.72,27.9,26,28.18c-1.21.2-2.41-1.45-3.33-2.61-.17-.22-.17-.71-.52-.62a.71.71,0,0,0-.44.91,2,2,0,0,1-.9,2.38c-.53.34-1.68,1.63-1.91-.37-.05-.44-.35-.42-.64-.46,0,.21.18.53.1.61-.55.5-.17,1.18-.4,1.74s-.13,1.35-1,.35c-.56-.67-1.46.79-1.91.1-1.15-1.73-2.64-3.24-3.27-5.34-.23-.78-1.31-1.34-1.47-2.32-.05-.27-1.08-.49-.18-.7.38-.08.92-1.29,1.39-.11a1.45,1.45,0,0,0,1.09,1c-.11-.45-.19-.92-.33-1.37-.5-1.66.65-2.62,1.58-3.63l.81-.59c-.06-.29,1.6-.21,1.67-.46.19-.71.35-.1.48.06s.32.53.52.76.49.42.8.18c.59-.48.66-.5.81.37s1.31,1,1.62,1.8a3.9,3.9,0,0,0,.63-1.68c.39-2.37,1-4.6,3.45-5.78.47-.23.76-.56,1.08.19.22.49.71.17.94,0a10.39,10.39,0,0,1,5.24-1.61,1.69,1.69,0,0,1,.5.14c1.6.95,2.74.73,3.18-1.26,1.15.74,1.94-.41,2.9-.6,2.57-.52,5.18,0,7.79-.48a7.6,7.6,0,0,1,4.51.89c.71.4,1.89,0,1.85,1.4.48-.66,2,.5,2-1.2,0-1.11,1.42-.93,2-1.05A41.69,41.69,0,0,1,67,8c1.47.07,3.29-.69,4,1.49,2.81-.38,1.72,2.05,2.33,3.26a1.81,1.81,0,0,1,.12.58c.13-.21.24-.42.38-.62.33-.45-.18-1.39.67-1.46.38,0,.75,1,1.27.09.37-.66,1.29-.91,1.3-1.86,0-.19.33.11.45.14,2,.5,3.55,1.84,5.57,2.33A4.32,4.32,0,0,1,86,15.34a4.39,4.39,0,0,0,.54,1.55c.51.67,1.14,1.72,1.83,0,.21-.5.78-.86,1.18-1.28.57,1.13,2.48.31,2.76,1.89.34,1.9,3,1.51,3.36,3.41.87-.51,1.2-.69,1.9.61,1.11,2.09-1,3.17-.82,4.81-1.58-.61-1.53.83-2.07,1.59a.61.61,0,0,1-1-.08c-.19-.32-.32-.85-.66-.74s-.06.64-.08,1c0,.58-.52.75-1,.7-1.16-.1-2.38-.27-2.7-1.61-.22-.87-.11-1.66-1.47-1.21-.5.17-1.17-.42-1.09-1.23,0-.33.37-.75-.14-.91s-.61.28-.85.56c-2.66,3.16-6.25,3.11-9.82,2.52-.8-.13-1.42-1.55-2-2.42-.37-.51-.65-.65-.79.06-.79,3.92-4.43,3.09-6.19,4.21-2.42.12-4.13.34-5.82.25-1.88-.09-3.87,0-5.37-1.55a49.11,49.11,0,0,1-.55-5c.39,9.08-7.26,7.21-11,7.51a14.64,14.64,0,0,1-4.52-.14,3.16,3.16,0,0,1-2.3-1.6c-.42-.84-.26-9.89-.86-.5C36.32,29.48,32.51,29.08,30.55,29ZM96.66,65.8c0,.53-.33,1.07-.73,1.08s-.65-.62-.57-1.17c.17-1.16.32-2.32.47-3.49,0,0,0,0,0,0A10.05,10.05,0,0,1,96.66,65.8ZM94.47,76.9c.14.25.35.62,0,.75a1.06,1.06,0,0,1-.88-.3c-1.69-1.31-1.62-2.92-1.08-4.69.06-.23.07-.46.13-.89.09.32.16.44.14.53C92.33,74.21,93.69,75.44,94.47,76.9ZM80.05,55a1.13,1.13,0,0,1,.13-.42c.37.23,1.09.51,1.07.71-.18,1.82,1.1.88,1.8,1,0,0,0,0,0,0l0,0,0,0h0c-.81-.84-.32-2.12-1-3-.07-.09,0-.29,0-.45.22.07.6.09.62.2.23.86-.16,2,1.12,2.41.15.05-.48.55-.76.85a.1.1,0,0,1,0,.05h0c.33.42,1.17-.47,1.24.4.06.69-.63.52-1.08.62C80.66,57.94,80.15,57.57,80.05,55Zm2.53,7.56c-.21.34,0,1.09-.36.87-.68-.39-.68-1.33-.82-2.08-.05-.28,0-.8.34-.68C82.62,61.05,82.28,62,82.58,62.6Zm-4-6.16a9.9,9.9,0,0,1-1.31-.4v0l-.05,0h0c-.12.33-.23.93-.38.94-.5,0-.29-.52-.44-.81a.36.36,0,0,1,0-.18c.08-.71-1-1.94.09-2,1.57-.16,0,1.11.35,1.63.13.17.28.31.42.47h.05c0-.53.31-1.24.68-1.15s.87.77,1.11,1.28S78.74,56.48,78.57,56.44Zm.38,4.5c-.7.53-1.35,1-1.66-.36-.1-.42-.33-1,.09-1.11.66-.17.39.53.5.87.17.52.62.55,1.06.6ZM78.4,47.32c.12-.1.25-.3.37-.29,1,0,.89,1.15,1.66,1.46-.3.35-.58.87-.72.83C78.7,49.07,79.47,47.6,78.4,47.32Zm-7.15,13c0-.55-.12-1.38.24-1.31h0s0,0,0-.06c0-.66.59-.13.83-.37.33.9,1.12-.22,1.18.23.16,1.06-.8.57-1.29.7h-.09a2.37,2.37,0,0,1,.34.9c.14.77-1.08.37-.82,1.12C70.92,61.23,71.56,60.57,71.25,60.28Zm.7,5.17c1,.27,1,1.17,2.71,1.06-.56.38-.9.63-.92.62-.79-.37-1.57-.75-2.29-1.17C71.39,65.93,71.91,65.44,72,65.45Zm2.65-7.53c-.55-.65-.21-1.37-.07-2,0-.23.35-.4.55-.6v-.09l0,.05,0,0c0,.33,0,.65,0,1V58C74.9,58,74.68,58,74.6,57.92Zm-5.43.76c-.52.91.94,1.34.51,2.24-.84-.52-.6-1.68-1.33-2.26.22-.2.45-.57.67-.57C69.74,58.1,68.88,58.5,69.17,58.68ZM67.41,62a.59.59,0,0,1-.86-.37c-.16-.38-.35-.75-.53-1.13h0a4.92,4.92,0,0,0,1-.13c.53-.17.64.07.65.51S67.88,61.78,67.41,62ZM58.78,96a4.2,4.2,0,0,1-.68,2.47c-.86-.66.28-1.63-.35-2.34a.27.27,0,0,1,0-.18c.08-.65-.11-1.71.6-1.73S58.66,95.26,58.78,96ZM58.1,82.91A27.78,27.78,0,0,1,52.19,81a6.93,6.93,0,0,0-3.32-.89c-.56,0-1.33-.15-1.41-.56-.25.13-.91.09-2.33-.46-1.71-.66-3.19.22-4.87-1.11l-4-1.31-1.52-.58a7.33,7.33,0,0,1-1.26-.92c-.75-.34.22-1.15.42-1.57s.43-.17.5-.17a7.08,7.08,0,0,1,5.91,2.79l0,1.26.25-1.19c.74-.14.19-1,.88-1a47.38,47.38,0,0,1,6,1.69c.35.23-.2,1.72.09,2.17h0c.33-.52.77-2,2-1.43,2.32,1,4.52.12,6.91.16.23,0,.79.31,1.44.4,1.55.23,1.08,3,1.41,3s-.46-3.64.94-3.31c.94.22,1.65-.6,2.26-.56,2.32.14,4.55-.61,6.87-.35.92.11,1.54.18,1.7,1.15v0c0-.13,0-.26.09-.41L71,77c.64-.33,1.3-.66,2.08-1a3.88,3.88,0,0,1,1.36-.45,3.74,3.74,0,0,1,.84,0c1.46.11,2-1.25,3.3-1.17a2.44,2.44,0,0,1,1.55.8.8.8,0,0,1,0-.27c.2-.68,1.3-.91,2.43-1.14,1.41-.29,1.52,0,2.43-.31,1.1-.42,1.39-1.06,2.12-.93a1.61,1.61,0,0,1,1,.63c.27-.91.68-1.88,2-1,.51.35,0,.83-.15.85-.56,0-1,.65-1.47.85a1.24,1.24,0,0,1,0,.58,1.74,1.74,0,0,1-.67,1c-1.31,1.06-4.61,1.27-5,1.3l-1.3.31a5.49,5.49,0,0,1-.57-.47,1.16,1.16,0,0,1,0,.33,1.43,1.43,0,0,1,0,.28c-.19.57-.89.65-3.24,1.23-4.43,1.08-5.89,1.75-6.47,1A.91.91,0,0,1,71,79a1.54,1.54,0,0,1-1,1.12A46.42,46.42,0,0,1,58.1,82.91ZM74,84c-.42.11-.92-.56-.69-1s-.17-1.44.68-1.43c.69,0,0,.49,0,.76C73.45,82.89,75.65,83.54,74,84ZM65.71,98.08c-1.13.39.6,1.85-.75,1.88-.44,0-1.31-.34-.8-1.21-.42-1.06.45-.94,1-1.12S66,98,65.71,98.08Zm3.94,1c-2.78-1-.56,1.36-1.21,1.81-.14.1-.11.45-.16.68-.38-.14-.21-.48-.25-.73-.14-.77-.25-1.55-.36-2.31a3.38,3.38,0,0,1,.93-2.15,1.29,1.29,0,0,1,.59.25c.77.57,0,1.58.58,2.21C69.79,98.81,69.66,99,69.65,99Zm1.39.12c-.67.07-.53-.74-.57-1.14-.06-.76.38-1.7,1-1.81s-.08.89.31,1.2C71.44,98.07,72.1,99.05,71,99.15ZM84.82,96c-1.17-.48-1.12-1.65-1.39-2.62.17-.31.14-1.07.39-.84a5.68,5.68,0,0,1,1.23,3C85.12,95.76,85.11,96.13,84.82,96Zm4.48-2.37c-.37.78.19,1.88-.77,2.28-.35.15-.24-.58-.16-.88.19-.71-.12-1.73.73-2.05C89.57,92.82,89.05,93.45,89.3,93.64Zm4.44-1c-.72-.73-2,.54-2.15-.27s1.16-.53,1.81-.78c.48-.08.86.07.9.6C94.33,92.56,94,92.86,93.74,92.65Zm.31-12.12a2,2,0,0,0-1,3.21c.51.61.94,2-.8,2.34-.21,0-.28.52,0,.79h0A2.64,2.64,0,0,1,91.65,89c-.21.75-.42,1.41-1.49,1.14a1.59,1.59,0,0,0-2,1.15c-.15.38-.3.71-.75.6s-.5-.49-.52-.88a13.14,13.14,0,0,1-.06-2c0-.31.73-.64,0-.86-.51-.15-.81.23-.89.69a5.88,5.88,0,0,0,0,1.11c0,.63.4,1.52-.67,1.53-.9,0-.5-.92-.67-1.43-.07-.17.15-.52-.15-.59s-.57.27-.57.56c0,1.17-.87,1.73-1.6,2.4a.9.9,0,0,0-.21.3c-.48.9-1.2-1.52-1.46.07-.08.49.53,1.12.58,1.84.12,1.61-1.71,2.19-1.83,3.66,0,.19-.56,0-.54-.16.1-1-.67-1.68-1.13-2.45-.19-.31.31-1.25-.62-.85-.42.18-1.23-.14-1.29.92s-1.64,2-.94,3.41c0,.08-.14.27-.22.41a1.33,1.33,0,0,1-.25-.4c-.17-.83-.07-1.69-1.27-2.06-.54-.17.34-.89.39-1.41,0-.32.56-.64.11-1-.83-.6-.36.31-.53.45-.44.35-.58-.2-.76-.44-.83-1-.81-2.36-1.12-3.58-.06-.26,0-.74-.41-.68s-.38.48-.26.86A4.52,4.52,0,0,1,71,93.87c-.16.62-.44,1.44-.91,1.67s-1-.56-1.4-1c-.27-.23-.58-2.39-1.07-.07-.06.3-.23.27-.52.19-.93-.26-.88-.23-.88.82,0,.53.73,2.36-1,.75,0,0-.15-.06-.17,0-1.9,1.67-2.23-.54-3.15-1.28-.18-.14-.43-.37-.42-.55.17-2.6.15-5.29,2.25-7.27.48-.44,1.08-.16,1.65.18a3.63,3.63,0,0,0,5.19-2.11,16,16,0,0,1,.88-1.88,8.43,8.43,0,0,0,1.07,1.29c.87.71,1.8,1.2,2.49-.24.14-.27.18-.59.31-.86.26-.56.55-1.11.83-1.66-.31,1.3,1.55,1,1.56,2.27,0,2.09,0,4.24,1.47,6,.52.64-1,1.31-.14,2.12.2.2-.06.82.52.72.1,0,.13-.52.19-.8.54-2.69-1-5-1.23-7.62a6.49,6.49,0,0,1,1.44-3.38c.54-.45-.49-.67-.32-1.14l0,0,0,0s0,0,0,.06c1.13.74,2.32,1.41,2.74,2.84a1.81,1.81,0,0,0,.4.53c.13-.19.4-.41.37-.55-.2-.8,1.28-1.9-.54-2.5-.36-.11-.29-1.54-.41-2.37a2.46,2.46,0,0,1,1.67.11c.88.58,2.45-1.59,2.87.74.1-.48.76-.17.9-.74.33-1.29,1.46-1.24,2.48-1.21.13,0,.21.34.54.15,1.28-.75,1.92-.34,2.06,1.28,0,.43,0,.86.06,1.29a7.6,7.6,0,0,0,.17.8c.38-.19.22-.49.17-.78s-.15-1,.42-1c.24,0,.55.59.69,1C94.27,79.8,95.27,80.13,94.05,80.53ZM95,73.61c-.25.6.41,1.22-.35,1.55-.27-.7-1.66-.59-1.35-1.48.17-.5.37-1.61,1.3-1.43S94.8,73.24,95,73.61ZM97.08,70c-.21,1.06-1,2-.46,3.23.16.33-.17.47-.3.21-.46-.9-1.29-1.62-1.31-2.71a4.31,4.31,0,0,1,.09-1.26c.15-.39.28-1.28.6-1C96.22,68.74,97.31,68.79,97.08,70Zm3.46-2.38-.53,1.5a10.07,10.07,0,0,1-.42-1.52c-.06-.42,0-1.06.46-1.07C100.77,66.46,100,67.32,100.54,67.57Zm2.38-7.72a7.53,7.53,0,0,0-1.3,3.78c0,.23-.05.47-.08.7a4.24,4.24,0,0,1-.28-.62c-.12-.46-.67-.78-.43-1.35.17-.38.48-.76,0-1.16-.29.4-.86.83-.82,1.19A2.28,2.28,0,0,1,99,64.86c-.55.37,0,1.13.08,1.71.17.83,0,1.44-1,1.46l0,.06L98,68a1.48,1.48,0,0,1,.21.3c.27.85.73,1.7,0,2.56-.06.06-.44,0-.44,0-.19-.93-.64-1.9.22-2.75-1.08.13-.79-.69-.82-1.23-.08-1.32.81-2.56.35-3.93,0-.12.1-.45.11-.44,2.22.52,1.37-1.67,2.12-2.44.55-.56.25-1.69,1.14-2.07.55-.23.24-1.9,1.07-1C102.55,57.58,103.8,58.72,102.92,59.85Zm.4-29.82a.9.9,0,0,1-.71-1.06c.15-.44.32-1.21.92-1.15s.34.78.47,1.23C104,29.5,104,30.13,103.32,30Zm2.27,19c.45-.16-.66-1.27.71-1,.47.08.81.28.77.5-.1.7-1.16.83-1.15,1.67C105.5,49.92,105.63,49.48,105.59,49.07Zm2.84,1.59c-.14,1.19-.27,2.34-.43,3.48,0,.3.18.81-.4.81-.09,0-.24-.5-.27-.78,0-.5.51-1.27-.24-1.41-.59-.11-.08.72-.34,1s-.46.32-.7-.15A2.61,2.61,0,0,1,108.2,50C108.93,50,108.32,50.49,108.43,50.66Zm1-3.69c0,.47-.29.81-.56.75-.63-.15,0-.56-.06-.87a7.58,7.58,0,0,1-.67-2.53c0-.29,0-.58-.08-.87l.57.69.66.78c0-.35-.08-.7-.16-1a2.48,2.48,0,0,1,.15-2c.24-.37.4-1.13.93-1,.86.24-.12.82,0,1.12C111.26,43.93,109.48,45.3,109.46,47Z"/><path class="cls-1" d="M5.35,50.92l0,0h0Z"/><path class="cls-1" d="M5.17,55.13c.1,0,.27-.06.28-.12a5,5,0,0,0,0-4S5.38,51,5.33,51C4.7,52.32,5.29,53.74,5.17,55.13Z"/><polygon class="cls-1" points="54.03 89.3 54.03 89.3 54.03 89.3 54.03 89.3"/><path class="cls-1" d="M25.83,80l.13-.12-.19,0Z"/><path class="cls-1" d="M25.19,81.81l-.31,0a2,2,0,0,1-.22,0,.92.92,0,0,0,.12.4A3.89,3.89,0,0,0,25.19,81.81Z"/><path class="cls-1" d="M55.64,91.3c-.32,0-.61-.61-.88-1.34C54.91,90.63,54.73,91.56,55.64,91.3Z"/><path class="cls-1" d="M54,89.33h0v0Z"/><path class="cls-1" d="M54.65,89.65a11.54,11.54,0,0,0-1-2.44,1.55,1.55,0,0,0-.29,1.54,2.85,2.85,0,0,1,.52.33c0,.07.07.15.11.22h0a0,0,0,0,1,0,0A.62.62,0,0,1,54.65,89.65Z"/><path class="cls-1" d="M54,89.37a.06.06,0,0,1,0,0s0,0-.06,0Z"/><path class="cls-1" d="M106.24,57a3,3,0,0,1-.37,2.13,1.7,1.7,0,0,0,.34-.12,8.72,8.72,0,0,0,.16-1.5C106.31,57.26,106.27,57.09,106.24,57Z"/><path class="cls-1" d="M105.76,59.12l0,0s0,0,0,0Z"/><path class="cls-1" d="M90.15,88.25c-.2.25-.14.72-.67.6s-1.14-1.12-1.29,0c-.11.79,1,.37,1.5.4a11,11,0,0,0,2-.2c0-.3-.89-.25-.35-.82a12.64,12.64,0,0,0,1-1.33h0C91,86.48,90.7,87.57,90.15,88.25Z"/><path class="cls-1" d="M49.53,13.5c.73.38.52-.6.81-.79a7.85,7.85,0,0,1,1.76-.64c.27-.1.54-.23.83-.35-.12-.1-.22-.24-.28-.23-1.13.29-1.39-.43-1.64-1.28,0-.11-.66-.06-1-.05-.18,0-.43.22-.21.31,1.54.64,0,1.24-.14,1.58C49.36,12.61,49.26,13.35,49.53,13.5Z"/><path class="cls-1" d="M47.54,79.17a.49.49,0,0,0-.08.35A.22.22,0,0,0,47.54,79.17Z"/><path class="cls-1" d="M53.55,87l.16.12H54A.6.6,0,0,0,53.55,87Z"/><path class="cls-1" d="M18.16,79.43a3.11,3.11,0,0,1-.41-.4.89.89,0,0,1-.13,0c-.28.06-.64-.2-1-.32,1.15,1.46,1.15,1.46,1.06,2.13h0A1.48,1.48,0,0,0,18.16,79.43Z"/><path class="cls-1" d="M52.87,88.19l-.19.26.27.1A.9.9,0,0,1,52.87,88.19Z"/><path class="cls-1" d="M53.92,89.33h0l0,0H54Z"/><path class="cls-1" d="M52.68,88.45l-.52-.18a1.46,1.46,0,0,0,.21.47C52.48,88.65,52.58,88.55,52.68,88.45Z"/><path class="cls-1" d="M54,89.38h0Z"/><path class="cls-1" d="M53.69,87.21l0,0a.38.38,0,0,0-.37-.06,1.84,1.84,0,0,0-.47,1.09,2.4,2.4,0,0,0,.2-.39C53.28,87.07,53.48,87,53.69,87.21Z"/><path class="cls-1" d="M53.92,89.33s0,0,0,0a1.56,1.56,0,0,1-.57-.58,3,3,0,0,0-.45-.2A1.66,1.66,0,0,0,53.92,89.33Z"/><path class="cls-1" d="M53.34,87.1s0,0,0,0a.55.55,0,0,1,.18,0c-.78-.57-.76.4-1.06.75h0C53,88,53,87.23,53.34,87.1Z"/><path class="cls-1" d="M23.05,15c0,.25,0,.67.43.49l1.73-.88a1.81,1.81,0,0,0-1.4-.54C23.21,14.05,23,14.42,23.05,15Z"/><path class="cls-1" d="M77.21,56l.05,0s0,0-.05,0Z"/><path class="cls-1" d="M35.7,12.8c.46-.33,1.07-.61.95-1.38,0-.25.08-.64-.43-.5-.78.23-.63,1.05-1,1.56C35.11,12.7,35.52,12.93,35.7,12.8Z"/><path class="cls-1" d="M91.92,83.51c-.74,0-1,.61-1.33,1.08-.17.24.24.47.41.41a16.13,16.13,0,0,0,1.53-.82C92.44,83.76,92.26,83.52,91.92,83.51Z"/><path class="cls-1" d="M72.11,59.48a1.1,1.1,0,0,0-.62-.51A.48.48,0,0,0,72.11,59.48Z"/><path class="cls-1" d="M71,79a1.71,1.71,0,0,0,0-.72A2,2,0,0,0,71,79Z"/><path class="cls-1" d="M87.57,73.65a.81.81,0,0,0,.86.16,1.88,1.88,0,0,0-.27-.61l-.07-.09v0C87.59,73.18,87,73.16,87.57,73.65Z"/><path class="cls-1" d="M80.91,76.51a2.18,2.18,0,0,0-.52-1.06,2.83,2.83,0,0,0-.28-.32A2.26,2.26,0,0,0,80.91,76.51Z"/></g></g></svg>