<svg xmlns="http://www.w3.org/2000/svg" viewBox="0 0 89.08 157.79"><defs><style>.cls-1{fill: white;}</style></defs><title>Asset 7</title><g id="Layer_2" data-name="Layer 2"><g id="Layer_1-2" data-name="Layer 1"><path class="cls-1" d="M37.55,7.62a5.29,5.29,0,0,0,.47.59c.07.06.22,0,.33,0a2,2,0,0,1-.22-.56,3.3,3.3,0,0,1,0-.7c.16.15.45.31.44.46,0,1.2-.17,2.39-.16,3.59a5.39,5.39,0,0,0,.45,1.67,3.6,3.6,0,0,0,.61-.11L39,12.25c.42-.55,1.22-1.13,1.17-1.63a14.62,14.62,0,0,0-1-3.83c-.18-.46-.88-.72-1.34-1.08-.21.31-.55.61-.57.93s.35.52.55.79Z"/><path class="cls-1" d="M46.49,8.07c-.15-.54-.25-.93-.35-1.32-.13.23-.2.55-.4.66a5.92,5.92,0,0,1-1.15.35c.08-.24.16-.48.23-.73a1.11,1.11,0,0,0,0-.26c-.14,0-.36,0-.4,0a4.75,4.75,0,0,0-.59,1,8.51,8.51,0,0,0,1.9,1.13C45.87,9,46.27,8.33,46.49,8.07Z"/><path class="cls-1" d="M44.45,28.51c.29.06.47.58.7.9a4.83,4.83,0,0,0-.33-1.14,7.38,7.38,0,0,0-1-1.35,2.73,2.73,0,0,0-.73-.42l-.21,2.15A4.47,4.47,0,0,1,44.45,28.51Z"/><path class="cls-1" d="M42.69,32.22c0,.09.16.32.26.49.27-.46.54-.91,1.06-1.81-.53,0-.86,0-1.06-.09s-.34-.45-.51-.69l-.75,1.43a8.19,8.19,0,0,1,1.07-.17.27.27,0,0,1,.12,0,1,1,0,0,1,.23.15l.12.08h0A2.45,2.45,0,0,0,42.69,32.22Z"/><path class="cls-1" d="M88.91,58.81c-.18-.36-.48-.3-.77-.12-.48.29-.93.9-.72.41,0-.11.12-.27.23-.49l.18-.36a3.59,3.59,0,0,1-.84-.2c-.15-.07-.16-.14-.08-.23s.56-.35.9-.65A1.42,1.42,0,0,0,88,55.09a3.67,3.67,0,0,0,.25-.55c.37-1-.06-1.53-.54-1.49a.73.73,0,0,0-.52.3,2.6,2.6,0,0,0-.14,2.3c.06.18.11.38.19.59-1-.77-1-2-.76-3.3.2-1.13.59-2.29.72-3.2s0-1.56-.84-1.69a3.53,3.53,0,0,0-1.27.1l-.26.05a2.43,2.43,0,0,0,.51-.32c2.94-2.28,0-10.38,0-10.38h0a9.64,9.64,0,0,1-1.19-1.37,1.61,1.61,0,0,1-.36-1c.06-.54.72-.71,1.07-1.06s.39-1.05-1.44-2.78c-.35-.34-.76-.7-1.25-1.12,0-.24-.06-.47-.09-.68a11.51,11.51,0,0,0-.59-2.73c-.56-1.25-1.08.44-1.36-.16a3,3,0,0,1-.15-.81c0-.28,0-.63,0-1.08A5.84,5.84,0,0,0,80.49,23c0-.15-.16-.12-.38-.13a1,1,0,0,1-.49-.13,2.42,2.42,0,0,1-1-1.45l-2-5.25s-2.83-2.45-3.06-2.85c-.65-1.18-.38-5.36-.38-5.36.11.84.49,2.29-.45-3.56A9.93,9.93,0,0,0,71.49,2a4.64,4.64,0,0,1-3-.61,5.43,5.43,0,0,1-1-.76A7.23,7.23,0,0,1,66.84,0h0a1.15,1.15,0,0,1-.18.81,1.66,1.66,0,0,1-.5.58l-.15,0c-.06,0-.07-.14,0-.36a1.86,1.86,0,0,1,.09-.24,8.32,8.32,0,0,1-.76,1.46A6.18,6.18,0,0,1,64,3.82a3.77,3.77,0,0,1-.79.45,2,2,0,0,1-1.44.14,2.18,2.18,0,0,1-1.1-1.33c0-.08,0-.15-.08-.22-.09-.29-.14-.55-.17-.69A21.77,21.77,0,0,0,58,7.08c-1,2.84-.47,3.27-1.48,5.71-1.22,2.94-2.46,3.54-2.21,5.34.16,1.12.76,1.72.55,2.95a4.08,4.08,0,0,1-1.16,2.16h0c1,.54,1.51.88,1.45,1l0,0a.58.58,0,0,1-.31,0h-.21L54,24.23h-.11c-.79-.11-1,.1-1,.46s.48,1.14.62,1.7a.67.67,0,0,1-.12.72.57.57,0,0,1-.24.14h0a14.9,14.9,0,0,0-.83,2.06A36.14,36.14,0,0,1,50.58,34,8.48,8.48,0,0,1,50,35c-.09.13-.19.26-.29.38a3.4,3.4,0,0,1-1.13.92h0c-.21-.16-.36-.17-.47-.09a.77.77,0,0,0-.22.48c-.11.58-.09,1.54-.17,2.5a5.49,5.49,0,0,1-.52,2.21h0c-.21-.37-.39-.66-.55-.9a3.82,3.82,0,0,0-.53-.63c-.28-.25-.5-.26-.67-.11l-.09.08a5.32,5.32,0,0,0-.57,1.85,9,9,0,0,1-.67,2.45,1.33,1.33,0,0,1-.3.38c-.32.25-.74.21-1.34-.33h0a1.31,1.31,0,0,0-.16.79c0,.8.36,1.8.07,2.34a.7.7,0,0,1-.51.34,1.79,1.79,0,0,1-.53,0h0a29,29,0,0,1,1.28-6.33l.36-1c.2-.61.2-.81-.2-.83a3.35,3.35,0,0,0-.5,0l-.32,0-.71.09c-.44.06-1,.12-1.63.17a.08.08,0,0,1,0,0,5.59,5.59,0,0,1,1.47-3.32,4.13,4.13,0,0,1,1.62-1c1.17-.39,1.89-.27.43-1.67h0a3,3,0,0,1-1.21-.88,4.88,4.88,0,0,1-.76-1.51A4.2,4.2,0,0,0,40.41,30a2.34,2.34,0,0,0-.95-.64h0a.5.5,0,0,1,0-.18.6.6,0,0,1,.16-.55.93.93,0,0,1,.5-.16,6.11,6.11,0,0,0,.85-.08.81.81,0,0,0,.38-.19.6.6,0,0,0,.18-.29.85.85,0,0,0,.05-.25v0h0a1.24,1.24,0,0,1-.38.21c-.26.07-.29-.18-.2-.6a14.08,14.08,0,0,1,.68-2c.2-.5.38-.93.42-1.11h0c0-.49.27-.39.71-.2a4.61,4.61,0,0,0,1.12.36A2.15,2.15,0,0,0,45.29,24h0c-.25-.42-.6-1.09-1-1.79A21.77,21.77,0,0,0,43,20.08c-.47-.67-.83-.95-.91-.31a6.62,6.62,0,0,0,.07,1.37v0h0a5.79,5.79,0,0,0-1.2.54c-1.17.72-1.73,1.85-2.07,3.68-.29,1.63-.42,3.81-.63,6.78A39.68,39.68,0,0,1,36,40.36c-1.82,4-4.23,7.67-6.22,11.56a36.22,36.22,0,0,0-1.43,3.39c-.43,1.15-.87,2.3-1.41,3.4A24.57,24.57,0,0,1,25.61,61a20.34,20.34,0,0,0-2.14,3.75,35.5,35.5,0,0,0-1.3,4.3c-.37,1.46-.69,2.93-1.08,4.39l-.73-.47c-.68,2.23-1.39,4.46-2,6.71a.91.91,0,0,0,.35.72.77.77,0,0,0,.35.12l.45,0a6.59,6.59,0,0,1-.65,1c-.17.2-.54.43-.72.37l-.07,0a3.37,3.37,0,0,1-.69-.63c-.08.12-.23.22-.1.42a1.7,1.7,0,0,1,.24.62,2.13,2.13,0,0,1-1.22,2.31l-.05,0c-.25.18-.14.47-.12.74.2,0,.45,0,.59-.16h0a5,5,0,0,0,.61-.69c0,.27,0,.55,0,.82s0,.24,0,.36a1.34,1.34,0,0,1-.1.45c-.08.22-.71.33-1.07.3a.44.44,0,0,1-.26-.1c-.19-.11-.38-.3-.57-.43l-.2,1-.05.27v0c-.26.19-.6.34-.75.6-.85,1.51-1.69,3-2.53,4.54-1.2,2.16-2.4,4.33-3.62,6.47-.7,1.23-1.5,2.42-2.29,3.62a23.5,23.5,0,0,0-3.27,6.27h0c-.57,2-.92,1.11-1.66,3.13-.14.36-1.28,3.34-.73,4.75.42,1.08.14,2.48,1.21,3.4.33.28.12.86.21,1.27a11.59,11.59,0,0,0,.33,1.26,10.65,10.65,0,0,0,1.75,3.24c.2.25.4.49.62.73a14.59,14.59,0,0,0,1.42,1.3,16,16,0,0,0,2.48,1.61c.59.31,1.2.59,1.83.85a26.77,26.77,0,0,0,2.9,1c4.75,1.34,9.68,2,14.49,3.11,4,.93,9,.69,9.22,6.79a.49.49,0,0,1,.32.18c.44.44,1,2.06-.48,7.94-1.19,4.61-3.2,6.19-3.2,8.45l1.74-.62,2.11-.38,1.41-.38a7.24,7.24,0,0,1-1.23-3.18,17.47,17.47,0,0,1,2.29-9l.62-2.08c1.77-.81.67-1.87-1.1-2.09l-.42-1.3c.63-.37-1.56-.54-1.51-1.33a3.09,3.09,0,0,1,.76-.92,1.33,1.33,0,0,1,1.69,0,7.51,7.51,0,0,1,1.62,1.69c-.18-5.55.25-5.52-1-6.07a13.31,13.31,0,0,1-1.31-.64,19.87,19.87,0,0,1-2.9-2.07h0a3.24,3.24,0,0,1,2.35-.86,11.42,11.42,0,0,1,4.31,1,19.31,19.31,0,0,1,2.7,1.41c.27.17.53.34.74.5h0l1.4-.09a2.09,2.09,0,0,0,1.06-.26c.16-.13.2-.34.1-.66a5.31,5.31,0,0,0-.49-1.06h0a5.3,5.3,0,0,0,2.22,1.16,2.27,2.27,0,0,0,1.73-.4,6,6,0,0,1,.64-.36h0c1.14-.21,1.6-.42,1.66-.61a.14.14,0,0,0,0-.09c-.06-.17-.44-.32-1-.43a9.14,9.14,0,0,0-1.34-.15h0a9,9,0,0,1,5.9,0,6.37,6.37,0,0,1,3.06,1.84,1.41,1.41,0,0,1,0,1.93c-.57.63-1.8,1.21-3.92,1.6a.15.15,0,0,0,0,.07c0,.06,0,.14,0,.19s0,.05,0,.05c-.89.52-1.78,1-2.69,1.51a.3.3,0,0,0-.13-.18.59.59,0,0,0-.38-.11,1.85,1.85,0,0,0-.89.24.75.75,0,0,0-.29.26,6.31,6.31,0,0,0,.55.6,1.2,1.2,0,0,0,.21.13c.67.28,1.37.46,2.06.68a.92.92,0,0,0,.24.09c.1,0,.15,0,.18-.07a.59.59,0,0,0,0-.28c0-.25-.06-.5-.1-.75a9.75,9.75,0,0,1,1.08.19c.35.1.7.33,1,.42a.74.74,0,0,0,.33,0c1.19-.16,2.36-.51,3.54-.76a23.33,23.33,0,0,0,3.7-.77,16.49,16.49,0,0,0,7.1-4.82,14.85,14.85,0,0,0,3.27-8,21.63,21.63,0,0,0,0-4.48A30.45,30.45,0,0,0,73,107.71q-.52-1-1.08-1.95a21.84,21.84,0,0,0-1.29-1.91,13.49,13.49,0,0,0-1.32-1.49l0,0a6.64,6.64,0,0,0-.69-.58,3.65,3.65,0,0,0-.79-.46,1.26,1.26,0,0,0-1.42.13h0a4.47,4.47,0,0,0-.06-3.58,14.48,14.48,0,0,1-1.47-3,5.26,5.26,0,0,1-.13-1,.63.63,0,0,0-.53.14,2.18,2.18,0,0,0-.5.54,7,7,0,0,1-.82,1.16c-.17.08-.26-.2-.24-1.26.35-.33.15-1.23-.29-2.28A33.4,33.4,0,0,0,60.17,88c-.34-.57-.52-.85-.34-.61l.17,0a1.72,1.72,0,0,0,1,0c.27-.13.27-.43.11-.78L61,86.43a1.68,1.68,0,0,1,.27-2.1,1.76,1.76,0,0,0,.32-.4c.66-1.1.27-2.87.21-4,0-.72.1-1.12.78-.83a6.62,6.62,0,0,1,1.42.93,2,2,0,0,0-1.26,1.34,3.29,3.29,0,0,0,1.4,3.41l.21.11A1.22,1.22,0,0,0,65,85a10.15,10.15,0,0,1-1-2.54,2.1,2.1,0,0,1,.51-2.26c1-.85,3.19-.69,5-.85,1.57-.13,2.86-.52,2.85-2a4.44,4.44,0,0,0-.18-1.15h0a.63.63,0,0,1,.34.74c0,.45-.16.88.83.7a10.67,10.67,0,0,0,1.22-.35c.34-.11.71-.25,1.16-.43.15,0,.26,0,.37.07.71.11.69-.07.39-.4s-.77-.7-1.18-1.13a1.89,1.89,0,0,1-.61-1c0-.27.17-.5.67-.64l.18.11a6.68,6.68,0,0,0,1.88.85c1.13.23,1.43-.51,2-1.06a2.08,2.08,0,0,0,.66-2.09,1.3,1.3,0,0,0-.16-.31c-.14-.22.06-.28.47-.4A6.61,6.61,0,0,0,83,69.56v0a2.78,2.78,0,0,1,1-1.91c.43-.34,1-.57,1.56-1a6.55,6.55,0,0,0,1.4-1.34.65.65,0,0,0,0-.31v0c-.2-.65-1.34-1.31-1.37-2a.68.68,0,0,1,.11-.37,1.33,1.33,0,0,1,.38-.36h0c2,1.64,2.28,1.64,2.19,1.16s-.87-2,.76-1.63h0A15.05,15.05,0,0,0,89.08,60,2.74,2.74,0,0,0,88.91,58.81ZM41.23,23.28l-1,2.75C39.89,25.49,40.87,21.92,41.23,23.28ZM14.71,98.72c.73-1.79,1.45,1.1,2.36,1.68C18.09,103.56,12.94,98.1,14.71,98.72Zm-1.87,8.14c-.85,3-.75-2.67-.84-4.64C12.78,103.75,13.84,105.12,12.84,106.86Zm-11,12.75c.07-1.63,0-4.49.79-2.18C3,117.42,2.15,118.6,1.88,119.61ZM5,116.47c.71-1.85-3.42-2.08-.39-2.42.94-1.3-1.9-1.32.16-2C4.87,111.4,7.11,116.39,5,116.47Zm.38-5.56c-.9-1,.07-1.77-.83-2.77.34,0,.36-.43.35-.43.31-.46.75-.13.87-.29.14.24.87.06,1,.29.45.59.2.62.66,1.21.11.14-1.55-.47-1.59-.38C6.59,109.42,5.62,110.65,5.42,110.91ZM8,116.16c-1.76-.61.55-1.81,1,.25C9.84,116.73,7.69,117.66,8,116.16Zm29,1.6c.2,4.94-5.84-4.42-3.06,3.26,7.18,1.82-2.5,3.34-1.67-2.62-5.39-1.88-6.72-.82-8.63-1.76-.17,3.09-7.1-2.43-3.44,1.47-.77-.71-2.81.87-3,.67-1.9-2.49-8.11,2.17-6.29-3.93-3.75-3.49.12.18.61-2.13-.09-1.39-.71-2-2.15-1.76-.72-.5-.06-3.33.55-1.45,5.26,3.85,0-3.86,5.28,1.58.18-.49.34-.91.49-1.29a1.25,1.25,0,0,0,.29.31c.18.13.34.12.66.08.49,0,.79-.07,1.07-.49a6.24,6.24,0,0,0,.59-2.67v-.32a8.22,8.22,0,0,0,1.89-1.7c.44-.34,1.51.07,2.79-.17a7.82,7.82,0,0,0,1.76-1,1.49,1.49,0,0,1,0-.43c.43-.74,2.79-2,2.79-2a4.31,4.31,0,0,1,0,1.54c-.44.85-3.11,2.19-3.11,2.19a20.73,20.73,0,0,1,5.68,2.16c-2.84,2.11,2-.78,2.57,3.47L35,112.21c.66,1,.29-.49,1.24-.8.19.72,1.47,2.5,1.25.86-1.07-3.07.62.63,2.19.81,4.24,4.31,3.83-1.16,6-.2-.67,4,3.74,1.3,3.86,5.68C44.22,118.94,40.2,120.3,37,117.76Zm28.86-15.92c-.65-2.31.14-3.64-1.68-4.28C66.85,97.73,65.89,99.19,65.83,101.84Zm-1.42-5.16c-2.55.29-.29,1.61-1.89,1.73C60,97.76,63.83,95.67,64.41,96.68Zm1.55-24c.66,1,2.37,2.08,2.35,2.93C67.57,74.61,65.05,74,66,72.64Zm3.43,2.43c2,.11-.67-1.15.93-2.35C71.52,73.23,71,76.62,69.39,75.07ZM76.62,19c-.14.4-.38,1.25-.68,1.9-.06.12-.12.24-.18.34-.23.38-.48.6-.75.41a22.09,22.09,0,0,1-.36-2.56V19a1.07,1.07,0,0,1,.23-.86c.27-.2.81,0,1.76.79h0Z"/><path class="cls-1" d="M31,7.16a28.74,28.74,0,0,1,3.4,3.13,10.17,10.17,0,0,1,.77,1l.19.27c2,3.1,2.3,1.93,2.2,5.57s.95,3.21.95,3.21h2.59l.1-1.05-2.18-4.34s.46.27-.33-.89c-.17-.26-.41-.59-.74-1-.64-.85-1.27-1.64-1.81-2.31s-1.05-1.29-1.33-1.63l-.29-.34.29-.14c.43-.23,1-.72-.38-1.13-1.94-.57-7.57-3.34-7.57-3.34s.87.57,2.07,1.45C29.59,6,30.3,6.58,31,7.16Z"/><path class="cls-1" d="M20.52,105.6l-1.83,2.07c1.37.82.29,1.68,1.37.82l1.08-.87a5.1,5.1,0,0,0,.54-1.47C21.92,105.12,20.52,105.6,20.52,105.6Z"/></g></g></svg>