<svg xmlns="http://www.w3.org/2000/svg" viewBox="0 0 115.03 206.93"><defs><style>.cls-1{fill:#dddfd8;}</style></defs><title>Asset 13</title><g id="Layer_2" data-name="Layer 2"><g id="Layer_1-2" data-name="Layer 1"><path class="cls-1" d="M98.18,206.89c-1.81.48-4.77-3.45-5.38-5.23-1.36-3.92-4.5-3.19-5.78-7.14-1.56-4.81-3.15-9.6-4.66-14.42-1.38-4.43-2.69-8.88-4-13.31q-4.35-14.43-8.7-28.85c-1.74-5.8-3.48-11.6-5.15-17.42-.69-2.42-4-5.38-3.28-7.93a22.1,22.1,0,0,0,.1-7.78c-.65-4.08-5.4-8.25-9.48-7.06-.72-.37-2,.83-2.92,1a41.44,41.44,0,0,1-18.21-.13,70.46,70.46,0,0,1-8.2-2.85c-.43-.16-.75-.62-1.51-1.27,3.48-.67,3.63-3.29,4.21-5.61.34-1.33,1.1-1.6,2.26-1a40.78,40.78,0,0,0,14.92,4,80,80,0,0,0,8.88-.28,4.62,4.62,0,0,0,1.29-.45l0-.47c-.65,0-1.3,0-2,0-15,.18-27.46-5.39-37.23-16.83-.54-.63-1-1.34-1.46-2l.41-.47a5.8,5.8,0,0,1,1.25,1.22c2,3.71,5.4,6,8.59,8.28a40.39,40.39,0,0,0,14.18,6.83c6.51,1.57,12.92,2.44,19.51.86a.08.08,0,0,1,.07,0c.82.47.83.46,1.26-.62l-1.32.64c.52-.5,1-1.19,1.58-1.45,1.2-.49,2.51-.71,3.76-1.08,1.78-.53,3.54-1.1,5.54-1.71L65.63,85.8c2-.42,4.1-.44,5.42-2.46a.1.1,0,0,0,0-.14l-1.77-.5c.74-.34,1.64-.46,2-1,1.87-2.36,1.9-2.42,4.28-.72l0,0a39,39,0,0,1-3.7,3.35c-1.85,1.3-1.92,1.2-.91,3.17.54,1,.45,1.4-.55,2.37a.08.08,0,0,0,0,.09c.63,2.12,1.25,4.19,2,6.6l-1.6-1.23c-.7,1.63-.42,2.1,1,2.23.46,0,.87.61,1.31.93l-1.72.33,1.91,1.81.27-.35L73,98.47c1.51,0,1.75.83,1.48,1.94a.07.07,0,0,0,0,.09l4.29,2.15a.1.1,0,0,1,0,.11c-.39,1.54-1.6,2.27-2.92,2.9h0l-1.7.32.8,1,.85-1.28a.1.1,0,0,1,.07,0,41.54,41.54,0,0,0,4.62-.46c1.84-.39,1.83-.42,2.77,1.91.55,1.38-.14,1.78-1.21,2.2-1.88.73-3.73,1.54-5.58,2.34a6.69,6.69,0,0,0-1,.71c4.79,3,6.71,7.28,6.26,12.67a.09.09,0,0,0,0,.08c2.18,1.58,4.14.11,6.15-.47,1-.28,1.89-.64,2.22.86-1.55,1.36-3.89,1.27-5.57,2.4l.31.68c1.44-.46,2.9-.9,4.33-1.41.76-.27,1.52-.38,1.67.57.05.37-.54,1.06-1,1.26-1.28.58-2.64,1-4,1.73a4.9,4.9,0,0,0,1.32,0c1.09-.28,2.14-.76,3.24-1,.51-.09,1.09.29,1.64.45v.64l-5.92,2.85.2.48c1.6-.54,3.19-1.12,4.81-1.58a4.81,4.81,0,0,1,1.6,0c-.35.46-.6,1.1-1.06,1.34-1.47.77-3,1.39-4.54,2.08s-2.69,1.92-2.1,3.78,0,4.27,2.19,5.56c.2.11.15.65.23,1a39,39,0,0,0,1,3.89c.48,1.29,1.66,1.26,2.73.9,2.08-.69,4.12-1.53,6.2-2.22a4.9,4.9,0,0,1,1.7.05,5.61,5.61,0,0,1-1.18,1.2c-1.9,1-3.81,2-5.78,2.76-1.67.69-1.32,1.68-.7,2.83a30.38,30.38,0,0,1,2.52,4.69,22.18,22.18,0,0,1,1,5.73c.14,2.17.63,2.7,2.67,2s4.1-1.59,6.17-2.33a6.77,6.77,0,0,1,1.58-.19l.25.77-8.34,4.3.19.49c1.5-.49,3-1,4.5-1.48a23,23,0,0,1,4.47-1.27c-2,2.76-5.48,3-7.87,5,3.17.09,5.81-2,8.83-2.51l.27.51a14,14,0,0,1-1.86,1.33c-1.8.9-3.69,1.64-5.48,2.58-3.15,1.65-3.39,2.38-2.07,5.58,1,2.44,2,4.89,3.05,7.3a3.54,3.54,0,0,0,4.35,1.83c2.62-.95,5.2-2,8-3.08a.08.08,0,0,1,.11,0c.22.5.42,1,.66,1.48.7,1.38.41,2.35-1.07,3-1.2.51-2.35,1.15-3.51,1.75-2.74,1.42-2.86,3.34-.34,5.17.86.63,1.38,2.36.88,3.07L109,200.12c.07,2,.07,2,2.57,2.19a.09.09,0,0,1,.09.08c.25,1.37.76,2.76-.37,3.9a.08.08,0,0,1-.07,0l-5.41-.29a.07.07,0,0,1-.06,0l-.81-1-.3.06c0,.45.1.9.16,1.35l0,0-2.09-1.61s0,0,0-.07c.17-1.69.35-3.41.53-5.13l-.57-.32c-.56.42-1.15.81-1.67,1.28a.05.05,0,0,0,0,.05l-.12,1.12a2,2,0,0,1-.49,1.39v.33a1.84,1.84,0,0,0,.57,1.36l0,0c.54.52.57,1.9-.18,1.84ZM67.36,92a.09.09,0,0,1-.12,0c-.64-.43-1.12-1.27-2.12-.67s-1.55.33-2-.69c-.1-.27-.45-.45-.86-.83,0,.49-.08.76,0,.91.7,1.06,1.51,2.05,2.15,3.14.91,1.54,1.6,3.2,2.58,4.67a4.21,4.21,0,0,0,2,1.07c.2.07.82-.44.8-.48a9.54,9.54,0,0,0-1-1.71c-.3-.44-.7-1.11-1.08-1.13-1.7-.08-1.83-1.37-2.14-2.14a.1.1,0,0,1,0-.09l1.52-2s0,0,.06,0c1-.11,1.86-.36,1.43-1.73Zm-3,13.67.15.8a.09.09,0,0,0,.06.07c2.27.66,4.19-.6,6.14-1.62l-4,1.11-.13-.42,4.64-1.93a.09.09,0,0,0,.05-.12h0ZM65,96.11a7.58,7.58,0,0,0,.57,6.64C65.74,100.46,67,98.28,65,96.11Zm38,101.32,1.09,2.8a.09.09,0,0,0,.12.05l1.37-.74-1.47-.74a.07.07,0,0,1,0-.12l.91-1.25-1.91-.13A.09.09,0,0,0,103,197.43Zm-32.11-95c-2.61-1.34-2.61-1.34-3.2-.66Zm34.28,99.27c-1.73.13-1.83.34-1,1.67C104.48,202.82,104.77,202.34,105.19,201.66ZM66.62,101c-.18.51-.38.81-.35,1.08s.33.37.52.55c.19-.23.55-.47.54-.69S67,101.39,66.62,101Zm7.5,1.55.2.53L76,102.3l-.19-.44Zm33,101.69.29-.24-.64-.89-.39.33ZM65,90.6a2.09,2.09,0,0,0-.55-.19c-.09,0-.18.12-.27.19.1.1.2.28.31.29S64.77,90.75,65,90.6Zm43.26,107.87c-.16-.14-.28-.33-.4-.33s-.23.19-.35.29l.4.41ZM68.47,87.5l.08.27.84-.25-.08-.27Zm3,13.23.31-.07-.19-.75-.29.07ZM109,203c0-.1-.07-.24-.15-.28s-.19.05-.29.08l.22.39Z"/><path class="cls-1" d="M10.84,70.29c-1.77-3.34-3.56-6.66-5.3-10a19.26,19.26,0,0,0-1-2.13c.11,1.06.23,2.11.35,3.29-2.73-.82.35,1.59-.23,4.17a21.64,21.64,0,0,0-.13,5.58,20,20,0,0,0,.66,3.31c.82,3.8,6.22,7.23,8.4,10.25,1.34,1.87,3,3.51,4.48,5.3a5.63,5.63,0,0,1,.65,1.5l-.61.42c-1.86-1.8-3.82-3.52-5.55-5.44C8.5,82,3.57,75,2.18,69.2.41,61.86.33,58,0,50.15c.06-5.63,1-16,4.77-20.71,3.4-4.26,5.36-9.33,9-13.47C26.94.75,45.71-3.63,63.42,3c14.73,5.52,24,16.7,27.82,32.13S91.11,64.08,81.11,76c-1.58,1.89-3.71,3.31-5.59,4.95l0,0a5.68,5.68,0,0,1,.72-1.82c1.37-1.56,2.87-3,4.3-4.51a5.84,5.84,0,0,0,.59-1l-.32-.23-3.33,2.87-.44-.44a33.79,33.79,0,0,0,2.4-4.67c2.23-6.7,1.1-13.36-.5-20-.63-2.58-1.38-5.13-2.1-7.69a5.15,5.15,0,0,0-.6-1.28c-2.16-3.53-4.3-7.08-6.51-10.58a56.8,56.8,0,0,0-10.1-12.09c-4.29-3.86-9.52-6-14.82-7.9a24.45,24.45,0,0,0-13.22-.57c-4.77,1-9.47,2.35-13.27,5.72-1.42,1.26-3,2.35-4.47,3.52l-.14-.15,1.39-2.37a1.86,1.86,0,0,0-1.16.74c-1.75,2.69-3.81,5.24-5.14,8.12-6.22,13.4-5.65,26.73.88,39.91a25.4,25.4,0,0,1,1.2,3.67Z"/><path class="cls-1" d="M102.57,180.13a11.51,11.51,0,0,1,.39-1.83c.56-1.58,1.79-1.89,3.25-1.09,2.67,1.46,4.17,7.16,3.46,9.52-.56,1.9-2.16,2.38-3.7,1A9.63,9.63,0,0,1,102.57,180.13Z"/><path class="cls-1" d="M94.2,148.36l-1.33.82a10.1,10.1,0,0,1-4.53-9.94,3.45,3.45,0,0,1,1.56-2.3c.44-.25,1.63.38,2.21.91a9.87,9.87,0,0,1,3.07,7.84A9.13,9.13,0,0,1,94.2,148.36Z"/><path class="cls-1" d="M96.73,156c.57-1.08.88-2.76,1.75-3.13,1.42-.6,2.08,1.11,2.52,2.17a60.27,60.27,0,0,1,2.55,7.35c.21.76-.34,1.73-.55,2.61a9,9,0,0,1-2.46-1.08A12.13,12.13,0,0,1,96.73,156Z"/><path class="cls-1" d="M81.81,115.43l1.45-2.84c.75.65,1.83,1.15,2.2,2A65.25,65.25,0,0,1,88.23,122c.18.59-.34,1.39-.54,2.1a8,8,0,0,1-2-.7C83,121.53,82.27,118.3,81.81,115.43Z"/><path class="cls-1" d="M95.84,140c.81,1.8,1.62,3.59,2.42,5.39l-.54.2c-.62-1.87-1.23-3.75-1.85-5.62Z"/><path class="cls-1" d="M12.29,71.34l-.41.47c-.35-.51-.69-1-1-1.52l.07-.06Z"/><path class="cls-1" d="M95.87,140l-.54-1.15.24-.08.27,1.26Z"/></g></g></svg>