<?xml version="1.0" encoding="utf-8"?>
<!-- Generator: Adobe Illustrator 24.0.2, SVG Export Plug-In . SVG Version: 6.00 Build 0)  -->
<svg version="1.1" id="Layer_1" xmlns="http://www.w3.org/2000/svg" xmlns:xlink="http://www.w3.org/1999/xlink" x="0px" y="0px"
	 viewBox="0 0 383.9 307.1" style="enable-background:new 0 0 383.9 307.1;" xml:space="preserve">
<title>Asset 32</title>
<g id="Layer_2_1_">
	<g id="Layer_1-2">
		<path d="M71,97c-0.3-1,0-1.5,1-1c2.5,1.1,4.6,0,6.8-1.1c0.4-0.3,1-0.3,1.5-0.2c3.1,1.3,6.1,0.4,9.1-0.3c4.8-1.1,9.5-2.6,14.2-4
			c5.2-1.6,10.3-3.3,15.4-5.2s10.2-4.1,15.3-6.2c3.7-1.4,7.2-3.1,10.7-4.9c4.9-2.8,9.7-5.9,14.3-9.2c1.9-1.4,3.1-3.6,4.7-5.4
			c2.8-3.1,5.1-6.5,7.1-10.1c1.6-2.9,1.9-6.2,2.1-9.5c0.4-4.8,0.9-9.7,1.2-14.5c0.3-2.8,0.3-5.5,0-8.3c-0.8-4.8,0.5-9.7,3.7-13.4
			c0.6-0.7,1.4-1.3,2.3-1.7c8-3.4,11.3-2.6,16.7,2.6c3.7,3.4,5.8,8.2,5.6,13.2c-0.1,6.9,0.4,13.9,1,20.8c0.3,3.3,0.6,6.8,2.4,9.6
			c1.4,2,3.1,3.8,5,5.4c2.2,1.7,4.7,2.9,7.1,4.5c4.9,3.2,10.4,5.1,16,6.8c5.1,1.6,10.1,3.3,15.3,4.7c3.2,0.8,6.4,1.2,9.7,1.2
			c1.7,0,3.5-1,5.2-1.4c0.7-0.2,1.4-0.3,2.2-0.3c1.6,0.4,3.3-0.2,4.1-1.6c1.3-1.9,2.7-3.8,4.2-5.5c2-2.2,4.3-4.1,7.4-4.5s6-1,9-1.4
			c1.1,0.1,2.2,0.2,3.3,0.4c2.9,0.1,5.7,0.1,8.6,0.1c3,0,5.8-1.2,8-3.2c1.9-1.7,3.9-3.3,6-4.7c0.9-0.3,1.8-0.1,2.6,0.4
			c0.6,0.6,0.8,1.4,0.6,2.2c-0.8,1.6-1.7,3.2-2.7,4.7c-0.3,0.5-0.8,0.9-0.9,1.4c-0.1,0.5,0.1,1.1,0.5,1.5c3.1,1.7,6.2,3.4,9.4,5
			c1.1,0.6,2.4,0.8,3.5,1.4c0.6,0.4,1.1,0.8,1.6,1.2c-0.5,0.4-1,0.8-1.6,1.1c-0.4,0.1-0.7,0.2-1.1,0.2c0.2,0.4,0.5,0.8,0.8,1.1
			c1.4,1.3,3.3,2.1,5.2,2.1c0.7,0.1,1.3,0.4,1.8,0.8c-0.4,0.6-0.9,1.1-1.5,1.6c-1.1,0.6-2.4,0.6-3.4-0.2c-1-0.6-2.1-1-3.1-1.4
			c0.2,1.2,0.4,2.3,0.7,3.5c0.3,1.8,1.3,3.5,2.8,4.6c1,0.7,1.9,1.3,3.2,1.1c0.9,0,1.7,0.3,2.4,0.8c0.5,0.4,0.8,1.1,1.1,1.7
			c-0.6,0.3-1.2,0.4-1.9,0.5c-0.9-0.1-0.9,0.3-0.8,0.9c0.2,1.2,0.4,2.4,0.4,3.6c0,0.4-0.4,0.8-0.6,1.1c-0.4-0.2-0.7-0.5-1-0.8
			c-0.2-0.3-0.3-0.7-0.3-1.1c0.2-2.7-1.3-4.4-3.2-5.8c-3-2-4.8-5.4-4.9-9c-0.1-3.8-2-5.9-5-7.4c-2.7-1.3-5.6-2.5-8.5-3.4
			c-1.3-0.4-2.8,0-4.2,0.1c-0.4,0-0.7,0-1.1-0.1c0.2-0.3,0.4-0.7,0.6-0.9c0.2-0.2,0.6-0.3,0.8-0.5c0.9-0.9,2.3,0.3,3.1-0.9
			c0.6-1,1.3-2,2-3c0.8-0.9,1.6-2,2.3-3c0.2-0.7,0.3-1.5,0.3-2.3l0,0c-0.8,1-1.6,2-2.4,2.9c-0.3,0.3-0.6,0.5-1,0.6
			c-0.2,0.1-0.3,0.3-0.5,0.4c0.6,0.9,0.4,1.4-0.5,2c-0.6,0.6-1.5,0.6-2.2,0.1c-0.4-0.3-1-0.4-1.5-0.3c-1.4,0.4-2.7,0.9-4.1,1.3
			c-0.6,0.2-0.5,0.3-0.2,0.9c0.6,1.3,0.9,2.7,1,4.1c0,0.4-1.1,1.2-1.8,1.3c-2.8,0.5-5.7,0.7-8.5,1.1c-2.4,0.3-4.9,0.7-7.2,1.4
			c-2,0.6-4,1.7-3.9,4.2s1.1,5.4,4,6.2c2.7,0.6,5.5,1.2,8.2,1.8c7.2,1.8,13.6,5.9,18.2,11.8c3.2,3.9,6.1,8,9.2,11.9
			c0.7,0.9,1.6,1.8,2.6,2.4c2.8,1.7,5.1,4.1,6.6,7c1,2.1,2.1,4.1,3.3,6.1c2,3,4.4,5.5,8.3,5.6c4.3,0.1,7.8,2.6,11.7,4
			c2.6,1.1,5.4,1.5,8.1,1.1c1,0,2,0.1,3,0.4c1.9,0.3,2.1-0.2,2.5-2c0.8-3,1.7-5.9,2.8-8.8c0.1-0.3,1.1-0.8,1.3-0.6
			c0.4,0.3,0.7,0.9,0.8,1.4c-0.2,2.1-0.6,4.2-0.9,6.4c0,0.5,0.1,0.9,0.2,1.3c0.5-0.1,1-0.2,1.5-0.4c2-1,3.9-2.2,5.9-3.2
			c0.7-0.2,1.5-0.3,2.2-0.2v1.4c-1,0.6-2,1.2-3,1.9c-1.4,1-2.8,2-4.1,3.1c-0.8,0.6-1.4,1.5-2.2,2.1c-3.6,2.3-7.5,2.6-11.5,1.9
			c-3.2-0.6-6.4-1.4-9.6-2c-0.6-0.1-1.2,0-1.7,0.3c-0.3,0.4-0.1,1.2,0.1,1.8c0.4,1.1,0.9,2.2,1.5,3.3c1.9,4,2.2,8.6,4.8,12.2
			s4.3,7.5,9.2,9.1c4.6,1.4,8.7,4.5,13,6.8c1.2,0.7,2.4,1.5,3.6,2.3v3.8c-1.1-0.7-2.1-1.5-3-2.3c-1.4-1.4-3.2-2.4-5.2-2.9
			c-2.1-0.5-4.1-1.2-6.2-1.8c-2.7-0.7-5.4-1.4-8.1-2c-1.5-0.2-3.1,0.3-4.2,1.3c-6.2,4.9-7.5,11.6-7.5,19c0.1,1,0.1,2.1,0,3.1
			c-0.1,0.6-0.9,1.4-1.5,1.4c-0.5,0-1.7-0.7-1.7-1.2c-0.2-4-1.2-7.9,0-11.9c0.2-0.6,0.8-1,1-1.6c0.2-0.9,0.7-2.2,0.3-2.9
			c-0.6-1.2-0.5-2.7,0.3-3.8c0.7-1.3,1.4-2.7,2.1-4c0.3-0.4,0.6-0.7,1.1-0.8c1.7-0.6,2.4-1.4,2-2.9c-1.4-4.9-2.4-9.9-4.9-14.4
			c-0.8-1.4-1.5-2.8-2.1-4.3c-2.3-5.2-6.6-8.6-10.9-11.9c-2.5-1.7-4.7-3.7-6.7-6c-0.8-1.1-1.4-1.1-1.9,0.2c-0.2,0.4-0.3,0.7-0.4,1.1
			c-0.8,3.7-1.6,7.5-2.3,11.2c-0.2,0.9-0.2,1.9,0,2.8c0.9,4.1,1,8.4,0.4,12.6c-0.1,0.9,0,1.8,0.1,2.6c0,0.6,0.3,1.3,0.3,1.9
			c0,1.1,0.1,2.6-1.3,2.7c-1.4,0.1-1.3-1.4-1.4-2.3c-0.2-2-0.3-4.1-0.4-6.1c0.1-0.6,0-1.1-0.2-1.6c-1.7-3.4-1.7-7.1-1.9-10.8
			c-0.2-3.8-0.2-7.6,0.2-11.4c0.4-3,1-6,1.8-8.9c0.1-0.4,0.7-0.7,1.1-1c0.3,0.3,0.6,0.6,0.8,1c0.1,0.4,0.2,0.8,0.1,1.2
			c-1,0.9-0.4,1.5,0.5,1.9l0,0l-0.5-1.9c0.8-0.6,1.9-0.5,2.6,0.3c0,0.1,0.1,0.1,0.1,0.2c1.3,1.4,2.7,2.7,3.8,4.2
			c1.5,2,3.4,3.6,5.5,4.9c1.6,1.1,3.2,2.2,4.8,3.4l0,0l0.4,0.4l0.2,0.2l0.4,0.4l0,0c1.3,1.4,2.6,2.8,3.9,4.1
			c0.3,0.3,0.6,0.5,0.9,0.7c0.2-0.3,0.6-0.7,0.5-1c-0.1-0.4-0.4-0.7-0.7-0.9c-1-0.3-0.9-0.8-0.4-1.4c1.9-2.7,5.5-3.6,8.5-2.3
			c1.3,0.5,2.7,0.7,4.1,1.1c2.8,0.6,5.5,1.3,8.3,1.8c0.7-0.1,1.4-0.4,1.8-1c-0.2-1.1-1.2-1-2.1-0.8c-0.9,0.2-1.9,0.3-2.8,0.4
			c-1.7,0-3.5-0.2-5.2-0.4c-2.3-1.9-5.3-2.6-8.2-2.1c-1.7,0.4-2-0.4-1.9-1.7l0.1-0.1l-0.1,0.1c-0.2,0.2-0.3,0.4-0.4,0.5l-1.1,1.9
			c-0.1-0.8-0.2-1.6-0.4-2.4c0.1-0.4,0.3-0.7,0.4-1.1l-0.2-0.1l-0.2,1.2l-1.8,0.6l-0.2-0.3c0.3-1,0-1.4-1-1
			c-0.3,0.1-0.5,0.8-0.8,1.1c-0.3,0.3-0.8,0.7-1,0.6c-0.4-0.2-0.6-0.6-0.7-1c0.3-1.2-0.3-1.8-1.2-2.4c-2-1.5-3.9-3.3-6.1-4.4
			c-2-0.9-3.3-2.5-4.9-3.7c-1.6-1.2-1.4-1.9-0.3-3.4c0.3-0.6,0.5-1.3,0.6-2.1c0.1,0,0.1-0.1,0.2-0.2c0,0,0-0.1,0-0.2l-0.2,0.3
			c-1.3,0.2-2.6,0.4-2.7,2.2c-0.1,0.4-0.3,0.7-0.6,1c-0.3,0.3-0.7,0.5-1.1,0.8c0-0.5,0-1,0.1-1.4c0.1-0.4,0.3-0.7,0.5-1.1l0,0
			c-0.9-0.4-2.4-0.6-2.7-1.3c-0.7-1.7-1.2-3.5-1.4-5.4c-0.1-1.1-0.2-1.4-1.2-0.7c-0.4,0.2-0.8,0.3-1.3,0.4c0.1-0.5,0.1-1,0.3-1.4
			c0.1-0.4,0.4-0.7,0.4-1.1c0-0.6,0.1-1.4-0.2-1.8s-1.2,0-1.8,0c-0.1,0-0.3,0.2-0.4,0.2c-0.5,0-1,0-1.4,0.1l0.6-1.5l0.3-0.2
			l-0.3,0.2c-2.4-0.3-4.2-2.2-4.2-4.6c-0.1-1.4-0.8-2.2-1.9-2.2c-1.5,0-1.6-0.5-1.2-1.7c0.1-0.5,0.1-1.1,0.1-1.6
			c-0.4,0.3-0.8,0.6-1.2,0.8c-0.5,0.1-1.1,0.2-1.6,0.2l-0.5-0.5c-0.2-0.9-0.3-1.8-0.5-2.8c0-0.2-0.3-0.4-0.5-0.6
			c-0.7,1-0.9,0.2-1.5-0.2c-0.8-0.6-1.6-2.4-3.1-0.9c-0.2,0.2-0.8,0.1-1.1,0.2c0-0.3,0-0.6,0.1-0.9c0.2-1,1.1-2,0-2.9
			c-1.1-0.9-2.1-0.3-3,0.4s-1.3,0.2-1.7-0.5c-0.6-0.9-0.9-1-1.2,0.3c-0.1,0.6-0.8,1.1-1.2,1.6c-0.3-0.4-0.7-0.8-1-1.3
			c-0.4-0.6-0.8-0.8-1.1,0.1c-0.4,1-1,0.8-1.7,0.3c-1.3-1.2-3.1-1.7-4.8-1.3c-0.2,0.1-0.8-0.5-0.9-0.9c0-0.6,0.1-1.1,0.2-1.6
			c0.1,0,0.1-0.1,0.2-0.2c0-0.1,0-0.1,0-0.2l-0.2,0.3c-0.3,0.3-0.5,0.6-0.8,0.8c-0.5,0.4-0.9,0.7-1.4,1.1c-0.2-0.6-0.5-1.2-0.7-1.9
			c-0.1-0.7-0.3-1.3-0.5-2c-0.1-0.1-0.7,0-1-0.1c0.1,0.2,0.2,0.5,0.3,0.6c0.8,0.5,1.1,1.6,0.6,2.4c0,0,0,0.1-0.1,0.1
			c-0.5,0.6-1.3,1-2.1,1.1c-1.4,0-1.1,0.4-0.4,1.1c0.1,0.2,0.1,0.4,0,0.6c-0.2,0.1-0.4,0.1-0.6,0c-0.4-0.2-0.7-0.6-1.2-0.8
			c-1-0.5-1.4-0.9-0.5-1.9c0.7-0.8,1.1-1.7-0.6-1.8c-0.4,0-0.7-0.5-1.1-0.8l-0.5-0.5L272,78l0.1,0.1l0.5,0.5
			c-0.2,0.8-0.4,1.6-0.7,2.4c-0.4,1.3-0.9,1.5-1.8,0.2c-0.9-1.2-1.8-2.4-2.8-3.5l-0.5-1c-0.1-0.3-0.2-0.6-0.3-0.9
			c-0.2-0.2-0.4-0.4-0.6-0.6c0,0.3,0.1,0.6,0.2,0.8c0.2,0.2,0.4,0.5,0.7,0.6l0.5,1c0.4,0.8,0.8,1.5,1.1,2.4c0.2,0.5,0.3,1.1,0.3,1.7
			c-0.5-0.2-0.9-0.5-1.3-0.8c-0.7-0.7-1.2-1.5-1.8-2.2c-0.6-0.7-1.1-1.3-1.7-1.9c-0.2-0.8-0.3-1.7-0.6-2.5c0-0.1-0.3-0.2-0.5-0.4
			c-0.1,0.2-0.3,0.5-0.3,0.6c0.4,0.8,0.9,1.5,1.3,2.3c-0.2,2.1-0.2,2.1-2,1.5c-0.5-0.2-0.8-0.7-0.9-1.2c-0.2-0.7,0-1.4-0.1-2.1
			c-0.1-0.4-0.4-0.6-0.8-0.7c-0.4,0.1-0.7,0.3-0.8,0.6c-0.2,0.8-0.2,1.6-0.4,2.3c-0.1,0.3-0.4,0.7-0.7,0.8s-0.7-0.3-0.8-0.6
			c-0.1-0.4-0.2-0.8-0.1-1.2l0,0c-0.3,0.2-0.7,0.3-1,0.6c-0.1,0.1-0.2,0.3-0.1,0.4c0.1,1.1-0.5,1.7-1.5,1.7
			c-1.4-0.1-1.1-1.3-1.2-2.2c0.4-0.7,0.8-1.4,1.1-2.2c-0.1-0.1-0.2-0.1-0.3-0.2c-0.2,0.7-0.5,1.4-0.7,2.1c0,0.1,0,0.1-0.1,0.2
			c-0.4-0.4-0.8-0.8-1.2-1.2c-0.2-0.4-0.3-0.8-0.3-1.2c-0.3,0.5-0.4,0.9-0.5,1.4c0,0.7,0.1,2,0.3,2c1.8,0.4,1.5,2.3,2.4,3.3
			c0.4,0.5,0.7,1,0.9,1.5c-0.7,0.1-1.3,0.3-2,0.4c-0.3,0-0.6,0-0.9-0.1c-3.3-0.6-6.8-0.3-9.9,0.9c-1.3,0.4-2.9,1-3,2.7
			c-0.2,4.9,0.1,9.8,2.2,14.3c2.2,4.8,5,9.3,8.2,13.5c0.8,0.9,1.5,1.9,2.1,2.9c0.2,0.6,0.2,1.4-0.1,2c-0.1,0.3-0.9,0.6-1.4,0.5
			c-1.1-0.1-4.5-3.8-4.3-4.8c0.5-2.1-1.2-3.4-1.9-5c-0.1-0.2-0.8-0.4-0.9-0.3c-1.1,2-1.6,0.3-2-0.4c-1.9-3.3-3.6-6.6-5.4-9.9
			c-2.7-5-4.4-10.5-5-16.1c0-0.6,0.2-1.2,0.4-1.7c0.5,0.1,1,0.3,1.5,0.5c0.3,0.2,0.5,0.4,0.8,0.6v0.7c-0.3,0.6-1,1.1-0.9,1.6
			c0.4,2.3,0.9,4.5,1.5,6.8c0.1,0.3,0.4,0.7,0.6,0.9c0.1-0.4,0.1-0.7,0.1-1.1c-0.4-2.7-0.9-5.5-1.3-8.2c0-0.1,0.1-0.1,0.1-0.1
			c0-0.1-0.1-0.2-0.1-0.3c0-2-0.2-4,2.1-5.1c0.6-0.3,1.2-0.7,1.7-1.2c0.3,0.7,0.6,1.5,0.9,2.2c0.2,0.3,0.4,0.5,0.6,0.7
			c0.1-0.3,0.1-0.6,0.1-0.8c-0.1-0.4-0.4-0.7-0.4-1.1c0-0.4,0.1-0.9,0.2-1.3c0.4,0.2,0.8,0.4,1.1,0.6c0.2,0.1,0.2,0.4,0.4,0.6
			c0.4,0.4,0.7,0.8,1.1,1.1c0.2-0.5,0.5-0.9,0.8-1.3c0.4-0.5,0.8-1.2,1.3-1.2s1.1,0.5,1.4,1c0.4,0.7,0.5,1.6,0.9,2.4
			c0.2,0.4,0.7,0.6,1,0.8c0-0.4,0-0.7,0.1-1c0-0.9,0-1.7,0.1-2.5s0.4-1.6,0.4-2.3c0-0.1-0.8-0.5-0.8-0.4c-1,1.7-1,0.6-1.7-0.3
			c-0.5-0.7-1.8-0.8-2.7-1c-0.2,0-0.7,0.8-0.9,1.3c-0.6,1.4-1.1,0.5-1.4-0.1c-0.5-0.9-0.7-0.9-1,0.1c-0.1,0.2-0.5,0.6-0.6,0.5
			c-0.3-0.1-0.5-0.4-0.6-0.7c-0.1-0.3-0.1-0.6-0.2-0.9c-0.1-0.3-0.3-0.7-0.5-1c-0.3,0.3-0.8,0.6-0.8,1c-0.2,1-0.1,2-0.2,3
			c-0.1,0.4-0.5,0.7-0.7,1c-0.2-0.3-0.6-0.6-0.6-0.9c0-1.4,0.1-2.7,0.2-4c-0.1-0.4-0.2-0.8-0.4-1.2c-0.4,0.2-1,0.3-1.1,0.6
			c-0.4,1.8-1.8,3.5-0.4,5.5c0.1,0.2,0,0.6,0,0.9c-0.3-0.1-0.9-0.2-0.9-0.4c-0.4-1.4-0.7-2.9-0.7-4.4c0.1-1.5-1.4-1.6-1.7-2.7
			c-0.2,0.1-0.5,0.2-0.6,0.4c-0.2,0.4-0.2,0.9-0.4,1.4c-0.2,0.3-0.5,0.6-0.9,0.9c-0.1-0.4-0.2-0.7-0.2-1.1c0-0.5,0.2-0.9,0.3-1.4
			c0-1.3,0.6-2.8-0.9-3.7l0,0c-0.3,0.5-0.5,1.1-0.7,1.8c0,1.2,0.1,2.3-1.6,2.3c-0.1,0-0.3,0.3-0.4,0.5c-0.2,1.5-0.7,0.9-1.2,0.2
			c-0.2-0.3-0.5-0.5-0.7-0.8c0,0.4,0,0.8,0,1.1c0.4,1.6-0.6,1.5-1.4,1c-0.5-0.3-0.8-1-1.2-1.6c-0.2-0.3-0.3-0.6-0.4-0.9
			c-0.3,0.2-0.9,0.4-0.9,0.7c-0.1,0.6,0,1.3,0.3,1.9c0.4,0.6,1.1,0.9,1.6,1.3c2.3,2.2,3.9,2.4,6.5,0.6c0.3-0.1,0.5-0.1,0.8,0.1
			c0.9,1.4,1.9,2.9,2.7,4.4c0.2,0.6,0.2,1.1,0.2,1.7c-0.5,0-1.1,0-1.6-0.2c-3-1.5-5.9-3-8.9-4.5c-0.4-0.1-0.8-0.2-1.3-0.3
			c0,0.4,0,0.8,0.1,1.1c0.9,3.6,1.8,7.3,2.8,10.9c0.2,0.8,0.6,1.5,1,2.1c0.8,1.3,1.7,2.5,2.4,3.8c1.3,2.7,1.7,5.9,4,8.2
			c1.3,1.2,1.9,3.1,2.9,4.6c3.6,5.2,7.2,10.4,10.7,15.6c0.7,1.1,1.2,2.4,1.4,3.8c0.1,1-0.3,2.8-0.7,2.9c-1.5,0.3-1.8-1.3-2.1-2.4
			c-0.4-2-1.5-3.7-3.1-4.9c-1.9-1.4-3.6-2.9-5.4-4.4c-5.6-4.8-9.3-11.1-13.2-17.2c-0.7-1-1.4-2.1-1.9-3.3
			c-2.4-6.3-4.7-12.7-7.1-19.1c-0.7-1.9-1.5-3.9-2.4-5.7c-0.6-1.1-1.3-2.2-2.2-3.1c-2.1-2.1-4.8-1.5-5.9,1.3
			c-0.2,0.5-0.4,1.1-0.4,1.6c-0.4,5-1.8,9.8-0.9,14.9c0.7,4.1,0.2,8.4,1,12.4c1,5.1,2.8,10.1,4.4,15.2c0.3,0.7,0.8,1.4,1.4,1.9
			c1.8,2,3.6,3.8,5.6,5.6c2.4,2,4.3,4.5,7.6,5.2c1.9,0.4,4,0.4,5.5,2c0.3,0.3,0.9,0.2,1.4,0.2c1.2,0.1,2.4,0.1,3.6,0.1
			c1.3-0.1,2.6-0.4,3.8-0.9c1-0.4,1.8-1.2,2.7,0c0.7,1,0.4,2.2-0.9,3c-1.1,0.6-2.3,1.1-3.4,1.7c-0.6,0.3-1.1,0.7-1.6,1.1
			c0.6,0.5,1.3,0.9,2,1.2c1,0.1,2.1,0.1,3.1,0.1c1,0.1,2,0.3,3,0.5c1.4,0.4,2.7,0.7,4.1,0.9c1.8,0.1,3.7,0.1,5.5,0
			c3.9,0,7.6,1.3,10.7,3.7c0.8,0.6,1.6,1.4,2.5,0.6c0.6-0.7,0.8-1.6,0.6-2.5c-1.1-4.8-1.3-9.8-0.8-14.7c0.5-5,2-9.3,6-12.6
			c1.9-1.6,3-3.4,2.2-6.2c-0.7-2.8-1-5.7-1-8.5c-0.1-3.3,0.2-6.5,0.4-9.8c0.1-1.4-0.5-2-1.9-2.1c-2.4-0.2-4.8-0.5-7.1-0.9
			c-0.4-0.1-0.8-0.4-1.1-0.7c0.5-0.2,0.9-0.5,1.4-0.5c2.9,0.2,5.9,0.4,8.8,0.6c2.6,0.2,2.9,0.4,2.4,3c-0.3,1-0.4,2-0.6,3.1
			c-0.2,2.3-0.2,4.6-0.3,6.9l-0.2,0.8l0.3,0.1v-0.9c1-0.4,2.1-0.7,3.1-1.1c0.3-0.1,0.5-0.3,0.7-0.5c-0.2-0.1-0.3-0.4-0.5-0.4
			c-0.7-0.2-1.4-0.4-2-0.6c0.6-0.4,1.2-0.6,1.7-1c0.2-0.2,0.3-0.6,0.5-0.8c1.1-0.8,1.7-1.6-0.2-2.2c-0.2-0.1-0.3-0.4-0.4-0.7
			c0.3-0.1,0.6-0.2,0.9-0.3c0.4,0,0.8-0.1,1.1-0.1c-0.2-0.3-0.5-0.5-0.7-0.8c-1.4-1.2-0.3-1.3,0.6-1.5c0.2,0.2,0.4,0.3,0.5,0.4
			c0.3,0.2,0.7,0.3,1,0.4c0-0.1,0-0.1,0.1-0.2c-0.3-0.2-0.6-0.4-0.9-0.6c-0.2-0.1-0.4-0.1-0.7-0.1c-0.2-0.2-0.4-0.3-0.5-0.5
			c-0.2-0.5-0.4-1-0.5-1.4c0.5,0.1,1,0.2,1.5,0.4c1.6,1,3.2,1.8,5,0.2c0.3-0.2,0.7-0.2,1.1-0.1c1.7,0.3,3.3,0.7,5,0.9
			c4.5,0.6,9,1,13.5,1.6c2.3,1,4.6,1.9,6.1,4c0.1,0.2,0.4,0.2,0.6,0.3l0.5,0.5c2,2.5,3.9,5,5.9,7.5c2.7,3.5,5.3,7,7.9,10.5
			c0.5,0.7,0.8,1.4,1.1,2.1c0.1,0.4,0.1,0.7,0,1.1c-0.4-0.2-0.9-0.3-1.1-0.6c-3.7-4.9-7.1-10-11-14.8c-2.1-2.8-4.6-5.3-7.4-7.4
			c-3.2-2.4-7.2-2.5-11-2.6c-0.2,0-0.3,0.1-0.5,0.1c-3.9-0.6-7.4,0.9-11.2,1.4c-1.2,0.2-2.1,0.6-2.3,2c-0.4,3.3-0.8,6.6-1.1,10
			c0,0.8,0.2,1.6,0.5,2.3c0.5,1.8,1.3,3.6,2.2,5.3c1.5,2.2,3.2,4.6,5.3,6c3.2,2.2,5.4,5.5,6.2,9.3c1.2,4.6,2,9.2,2.9,13.9
			c0.1,0.4-0.2,1-0.4,1.5c-0.5-0.2-1.2-0.4-1.3-0.8c-0.9-2.1-1.6-4.3-2.1-6.5c-1-5.7-3.9-10.9-8.2-14.8c-2.6-2.3-6.1-3-9.2-0.7
			c-2.1,1.5-2.6,3.9-3,6.1c-0.8,4.3-1.1,8.7-1.5,13c-0.1,0.7-0.1,1.4-0.2,2.1c-0.3,2.4,0.2,2.9,2.6,2.6c0.6-0.1,1.3-0.2,1.9-0.4
			c2.1-0.6,4.3-0.3,6.1,0.9c3,1.7,6.2,3,9.2,4.4c1,0.5,1.9,1.1,2.9,1.7c1.6,1.2,3.3,2.2,5,3.2c2.7,1.1,4.9,3.1,6.1,5.7
			c0.6,1.3,2.4,2.1,3.7,3.2c0.5,0.4,1.1,0.7,1.3,1.2c0.2,0.6,0.1,1.2-0.3,1.7c-0.3,0.3-1.2,0.1-1.7-0.1c-1-0.5-1.9-1-2.8-1.6
			c0.2,1,0.5,2.1,0.6,3.2c0.1,1.2,0.1,2.5,0.2,3.8s0.5,2.6,0.5,4c0,1.7,0,3.3-0.2,5c0,0.3-0.6,0.7-0.9,0.9c-0.1,0.1-0.7-0.5-0.7-0.8
			c-0.4-2-1.1-4.1-0.9-6c0.4-4.7-0.5-9.4-2.8-13.6c-0.2-0.5-0.5-1-0.9-1.3c-3.6-2.2-6.8-5-10.9-6.3c-0.5-0.2-0.9-0.6-1.4-0.9
			c-1.2-0.8-2.4-1.5-3.5-2.3c-2.8-2-6.2-1.8-9.4-2.3c-0.4,0-0.8-0.1-1.2-0.2c-0.6-0.1-1.2-0.4-1.8-0.6c0,0.8,0,1.6,0,2.3
			c0.1,0.5,0.2,0.9,0.5,1.4c2.4,5.5,3.4,11.3,4.7,17.1c0.1,0.7,0.3,1.6,0.8,1.9c1.6,1.1,2,2.9,2.6,4.5c1.1,2.6,2.2,5.3,3.3,8
			c0.5,1.2,1.1,2.8-0.2,3.4c-1.4,0.6-2-1.1-2.5-2.2c-2.1-4.5-4.1-9-6.2-13.5c-1.2-2.6-2.7-5-3.8-7.7c-1.6-4.1-2.8-8.3-4.2-12.4
			c-0.1-0.4-0.6-0.7-1-1.1c-0.1,0.5-0.2,1-0.2,1.5c0.6,3.7,1.1,7.4,1.8,11.1c0.3,1.2,0.8,2.2,1.5,3.2c1.1,1.4,1.4,3.3,0.8,4.9
			c-1,2.5,0,4.8,1.7,6.6c1.7,1.8,3,4.6,5.9,5.4c0.3,0.1,0.4,1,0.5,1.6c-0.6,0.1-1.2,0.3-1.9,0.4c-0.1,0-0.1-0.1-0.2-0.1L269,178
			c-0.4,1.1-0.6,2.3-0.7,3.4c0,1.4,0.6,2.8,0.7,4.2c0,0.9-0.1,1.9-0.4,2.8c-0.1,0.4-0.6,0.6-1,0.9c-0.4-0.3-0.7-0.7-1-1.2
			c-0.1-0.5-0.1-1.1-0.1-1.7c-0.2-1.7-0.5-3.4-0.7-5.2c-0.1-0.9-0.1-1.9,0.2-2.8c1-2.6,0.1-4.6-1.8-6.1c-1.9-1.5-2.4-3.7-2.5-6
			c0-1.1-0.1-2.2-0.3-3.3c-0.1-0.3-0.4-0.6-0.7-0.9l-0.8,0.7l-1,1c-0.3-0.5-0.5-1.1-0.7-1.6c-0.1-0.5,0-1,0.2-1.4
			c2.1-3.5,0.8-7.1,0.3-10.7c-0.2-0.7-0.5-1.3-0.9-1.9l0,0c-1.3-1.9-2.5-3.9-3.9-5.7c-0.5-0.6-1.2-1-2-1.1c-3.5-0.1-7,0-10.5,0.1
			h-5.9c-1.6,0.1-3,1.2-3.6,2.7c-1.4,3.8-0.9,7.7-0.3,11.6c0.7,4.7,3.2,8.4,6.2,11.9c0.7,0.6,1.4,1,2.2,1.3c1.3,0.6,2.3,1.1,2.3,3.1
			c0,1.7,1.4,3.3,2.1,5c0.4,0.8,0.8,1.5,1.1,2.4c0,0.4-0.2,0.9-0.5,1.2c-0.2,0.2-0.8,0-1.1-0.2c-0.4-0.4-0.8-0.8-1.1-1.3
			c-1.9-2.3-3.8-4.6-5.7-6.8c-0.6-0.6-1.3-1-2-1.3c-1.6-0.7-2.9-2-3.7-3.5c-0.8-1.6-1.6-2.9-0.4-4.6c0.2-0.2-0.1-0.9-0.2-1.3
			c0-0.1,0-0.1,0-0.2c0-0.1-0.1-0.1-0.1-0.1l0.2,0.3l-0.6,1.2c-0.4-0.3-0.9-0.6-1-1c-1.1-4.1-2.2-8.2-3.2-12.3c-0.7-3-0.9-6-1.6-8.9
			c-0.3-1.2-0.9-2.4-1.8-3.3c-1.7-1.7-3.6-3.2-5.5-4.5c-1.1-0.7-2.4-1.3-3.7-1.5c-3.8-0.9-6.8-3.1-9.9-5.2c-0.4-0.3-0.8-0.6-1.2-0.8
			c-0.8-0.5-1.6-0.5-1.9,0.6c-0.3,1.4-0.9,2.8-0.7,4.1c0.7,4.7,1.8,9.4,2.6,14.1c0.6,3.5,2.9,6,4.9,8.6c0.5,0.7,1,1.4,1.7,2
			c1.9,1.5,3.2,3.8,3.1,5.8s0.9,4,0.2,6c-1.1,3.4,0.1,6.3,2.6,8.7c3.1,3,6.5,5.7,9.5,8.8c3.1,3.1,5.1,7.2,5.6,11.6
			c0.1,1.2,0.5,2.3,1.1,3.4c1.6,2.6,3.4,5.2,5.2,7.8c0.2,0.5,0.4,1,0.5,1.5c-0.5,0.2-1.1,0.3-1.7,0.3c-3.4-0.6-6.8-5.1-6.5-8.6
			c0-0.5,0-0.9-0.2-1.4c-0.8-1.7-1.7-3.4-2.4-5.2c-1.1-2.8-2.8-5.4-5.1-7.4c-0.5-0.5-0.5-1.7-1-2.2c-0.3-0.3-1.4,0.6-2,0.4
			c-1.1-0.5-2.1-1.1-2.9-2c-1.9-2-3.7-4.2-5.4-6.3c-0.6-0.7-1-0.8-1.4,0c-0.4,0.9-0.7,1.8-0.8,2.7c-0.1,1-0.2,2.1-0.1,3.1
			c0.2,3.4-0.5,6.7-0.7,10c-0.4,7.8-0.1,15.6,0.7,23.4c0.5,4.7,0.5,9.4,0.2,14.1c-0.4,5.6-0.5,11.2-0.1,16.8c0.2,1,0.4,2,0.8,2.9
			c0.3,0.7,0.5,1.5,0.7,2.2c0.6,3.9,1.9,7.6,3.8,11c0.6,1,1,2,1.2,3.1c1.1,6.3,5.5,9,11,10.6c0.8,0.2,1.5,0.4,2.2,0.7
			c0.4,0.2,0.5,0.7,0.8,1.1c-0.4,0.3-0.9,0.5-1.4,0.7c-0.6,0-1.1-0.1-1.6-0.4c-2.8-1.1-5.7-2.1-8.5-3.3c-1-0.4-1.4-0.3-1.6,0.8
			c-0.6,3.8,1.6,6.3,3.9,8.8c0.2,0.2,0.6,0.5,0.8,0.4c2-0.6,2.6,1.3,3.9,2.1c0.9,0.6,1.8,1.4,2.5,2.2c0.3,0.4,0.5,0.9,0.6,1.4
			c-0.4,0.1-1,0.3-1.3,0.1c-2.7-1.1-5.4-2.4-7.4-4.6c-0.4-0.4-0.7-0.9-1.1-1.3s-1.1-0.9-1.6-1.3c0,0.8-0.3,1.8,0,2.5
			c0.9,1.6,1.9,3.1,3,4.5l0,0c0.9,1.2,2,2.3,2.8,3.5c2,2.8,3.9,5.6,5.8,8.5c0.6,0.9,1,1.8,1.1,2.9c0.1,0.5-0.4,1.2-0.7,1.8
			c-0.5-0.2-1.3-0.3-1.6-0.7c-1.6-2.4-3-4.9-4.5-7.3c-0.9-1.4-1.6-2.9-2.6-4.2c-1.7-2.5-3.6-4.9-5.2-7.5c-0.7-1.1-1-2.3-1.1-3.6
			c-0.2-5.7-0.9-11.4-2.2-17c-0.1-0.9-0.2-1.7-0.2-2.6c0-1.3,0.2-2.5-1.7-2.8c-0.7-0.1-1.4-1.3-1.7-2.2c-1.4-3.1-2.8-6.3-4.2-9.4
			c-0.2-0.4-0.3-0.9-0.5-1.3c-0.4-0.7-1-1-1.4-0.2c-2.4,4.4-7.5,5.8-10.8,9.4c-1.7,1.9-3.4,3.6-4.2,6c-0.8,3-1.4,6-1.8,9.1
			c-0.2,0.9-0.2,1.9,0,2.9c0.9,3.5-0.8,6.4-2.4,9.2c-0.4,0.6-1.3,1-2,1.4c-0.5-0.8-1.2-1.5-1.3-2.3c-0.3-2,0.1-4,1.1-5.8
			c0.7-1.4,0.8-3,0.5-4.5c-0.9-4.2,0.7-7.8,2.5-11.2c2.1-3.8,4.5-7.5,7.1-11.1c2.3-3.4,4.9-6.4,6.3-10.3c1.6-4.2,1.5-8.6,1.7-13
			c0.2-2.9-0.3-5.9-0.4-8.8c-0.1-4.8,0-9.6,0-14.3c0-3.9-0.1-7.8-0.1-11.8c0-0.3-0.1-0.6-0.3-0.8c-0.2,0.2-0.4,0.4-0.6,0.6
			c-0.9,2.3-2,4.5-3.1,6.7c-1.7,2.7-3.6,5.2-5.6,7.7c-0.4,0.5-1.2,0.6-1.8,0.8c-0.1-0.7-0.1-1.3,0.1-2c0.8-2.2,1.9-4.2,2.6-6.4
			c1.1-3.2,2-6.4,3-9.6c0.2-0.5,0.5-0.9,0.8-1.3c0.1,0.5,0.2,1,0.2,1.6c-0.1,1.3-0.3,2.7-0.5,4l-0.5,1.9l-0.2,0.3l0.2-0.4l0.5-1.9
			c1.7-3,3.2-6.2,4.6-9.4c0.6-1.6,0.1-3.6,0-5.4c0-0.5-0.3-1.1-0.1-1.4c1.9-2.6-0.4-5.1-0.4-7.6c0-0.2-0.2-0.3-0.4-0.5
			c-0.2,0.2-0.5,0.5-0.5,0.7c-0.2,2.1-0.3,4.3-0.5,6.4c-0.3,2.5-0.6,5.1-1,7.6c0,0.2-0.5,0.4-0.8,0.6c-0.2-0.3-0.5-0.7-0.5-1
			c0-1.1,0.3-2.2,0.3-3.3c0.2-2.5,0.3-4.9,0.4-7.4c0-0.9,0-1.5-1-1.9c-2.6-1.2-3-2.1-2.8-5.1c0.2-4.2,0.7-8.5,0.4-12.7
			c-0.4-5.6-1.5-11-2.3-16.6c-0.2-1.7-0.6-3.3-1-4.9c-0.7-2.7-2-3-4-1.1c-5,4.6-8.4,10.4-12.1,15.9c-2.3,3.5-3.9,7.5-5.6,11.3
			c-0.4,1-0.6,2.1-0.6,3.3c-0.4,6.4,1.2,12.3,3.7,18.1c1.3,3.2,2.2,6.5,2.6,9.9c0.1,1.5,0.2,3.1,0.5,4.6c0.2,1.7,0.4,3.3,0.9,4.9
			c1,3.4,2.8,6.2,6.3,7.7c2.2,0.8,4.4,1.8,6.4,2.9c0.8,0.4,1.2,1.7,1.6,2.7c0.1,0.2-0.7,1.1-1,1.1c-2.9-0.4-6,0.1-8.5-1.9
			c-0.1-0.1-0.3-0.2-0.4-0.3c-0.1-0.3-0.2-0.7-0.3-1.1c0.3-0.1,0.6-0.2,0.9-0.2c0.7,0.1,1.4,0.2,2.1,0.4l0.5,0.3l0.1-0.2l-0.6-0.1
			c-1.8-1.1-3.4-2.3-5.3-3.3c-4-2-5.2-5.7-5.7-9.7c-0.3-2-0.9-4.1,0-6.1c0.2-0.5-0.2-1.4-0.7-1.9c-1-1.1-1.4-2.6-1.1-4
			c0.1-1,0.7-2.9-1.8-2.1c-0.5-0.3-0.9-0.9-1-1.5c0.1-2.1-0.7-4.2-2.1-5.8c-0.3-0.4,0-1.3-0.1-1.9s-0.1-1-0.1-1.6
			c-0.4,0.2-0.8,0.4-1.1,0.6c-0.3,0.1-0.6,0.2-0.9,0.2c-0.1-0.4-0.3-0.8-0.2-1.1c0.4-0.9,1.3-1.5,2.3-1.2c0.4,0,0.8-0.1,1.2-0.3
			c-0.3-0.3-0.7-0.6-1.1-0.9c-0.3-0.2-0.7-0.1-0.9-0.2c-0.3-0.2-0.6-0.4-0.9-0.7c0.3-0.3,0.6-0.6,0.9-0.8c0.4-0.2,0.8-0.4,1.2-0.5
			c-0.4-0.3-0.9-0.5-1.3-0.7c-1.3-0.5-1.4-0.9-0.4-2c0.3-0.3,0.6-0.5,0.8-0.8c0.2-0.7,0.4-1.5,0.6-2.2c-0.5,0.5-1,0.9-1.5,1.4
			c-0.8,0.7-1.2,0.2-1.7-0.5c-1.7-2.8-0.6-5,1.4-7c0.8-0.7,1.8-1.3,2.2-2.2c0.2-0.4-0.8-1.4-1.2-2.1l0,0l-0.2,1.6
			c-0.4-0.4-0.7-0.8-1-1.2c-0.1-0.3-0.2-0.6-0.3-0.9c-0.1-0.2-0.2-0.4-0.2-0.6c-0.1,0.2-0.2,0.4-0.2,0.6c0,0.8,0,1.6,0,2.4l0,0
			c-1.3-0.3-1.4,0.5-1.3,1.5c0.1,0.6,0.1,1.3-1,0.9c-0.3-0.1-1.3,0.8-1.4,1.3c-0.3,1.9-1.1,1.5-2.1,0.7c0-0.1,0-0.1,0-0.2
			c0,0-0.1-0.1-0.1-0.1l0.2,0.3c0,0.9,1.1,2.3-1,2.4l0,0c0,1.2-0.1,1.8-1.6,2.2c-1.2,0.4-3.6,1.2-2.6,3.7c0.2,0.4-0.6,1.2-1.1,1.8
			c-0.5,0.5-1,0.9-1.5,1.4c0-0.6,0.1-1.3,0.1-1.9c0-0.4,0-0.9-0.1-1.3c-0.6,0-1.2,0.2-1.8,0.4c-0.2,0.1-0.3,0.9-0.1,1.2
			c0.5,0.7,0.4,1.7-0.3,2.3c0,0-0.1,0-0.1,0.1c-0.5,0.4-1,0.7-1.5,1.1c-0.2-0.5-0.4-1-0.6-1.4c-0.1-0.2-0.2-0.4-0.3-0.6
			c-0.2,0.2-0.5,0.4-0.5,0.6c-0.3,1.2-0.5,2.5-0.9,3.7c-0.3,0.5-0.6,1-1,1.3l-0.6-1.5l0.3-0.5l-0.2-0.1l-0.1,0.6
			c-1.1,1.1-1.5,3.1-3.7,2.8c-1.3,1.9-4.3,2.5-4.5,5.4c0,0.8-0.2,1.3,0.9,0.7c0.9-0.5,2.9,0.3,2.2-2c0,0,0.6-0.4,0.7-0.3
			c0.8,0.9,1.4,0.2,2-0.3c4.8-3.3,9.5-6.7,13.2-11.3c0.8-0.8,1.6-1.5,2.6-2.1c0.2-0.1,0.6,0,0.9,0c0,0.3,0,0.7-0.1,0.8
			c-3,3-5.9,6.1-9.1,8.8c-3.7,3.2-7.9,5.8-11.4,9.2c-4.4,4.3-8.1,9.2-11.1,14.6c-0.9,1.6-2,3.1-2.9,4.7c-0.7,1.1-1.4,2.3-1.9,3.6
			c-2,6-3.9,12-5.7,18c-1.2,3.9-0.2,7.9,0.2,11.9c0,0.1,0,0.2,0.1,0.2c0.2,0.9,0.6,2.2-0.6,2.5s-1.5-1-1.8-2c-0.8-2.8-2-5.6-2.5-8.4
			c-0.3-2.3-0.4-4.6-0.2-6.9c0.1-0.6,0.5-1.1,1.1-1.4c0.8-0.3,1.4-1.1,1.3-2c0.3-0.8,0.6-1.6,1-2.4l0,0l-1,2.4h-0.5
			c-0.3-0.5-0.4-1-0.5-1.6c0.4-3.2,0.9-6.4,1.4-9.6c0.1-0.4,0.7-0.7,1.1-1c0.2,0.4,0.4,0.8,0.6,1.2c0.2,0.4,0.3,0.8,0.5,1.2
			c0.3-0.4,0.5-0.8,0.8-1.2c0.7-1.7,1.3-3.3,2-5c0.2-0.5,0.5-1.2,0.9-1.3c3.2-1.1,3.2-4.5,4.7-6.8c1.5-2.3,2.8-5,4.2-7.5l0.5-1
			c1.3-0.6,2.6-1.4,3.9-2.2c0.6-0.7,0.9-1.6,1-2.5c0-0.2-0.8-0.6-1.2-0.8c-1.3-0.4-1.4,0.8-1.8,1.4c-0.7,1.3-1.3,2.7-1.9,4.1l-0.5,1
			c-0.4-0.5-0.6-1-0.8-1.6c0-0.6,0.1-1.2,0.3-1.8l0.1-0.1l-0.1,0.1c-0.7,0.9-1.4,1.7-2.1,2.6c-0.5,0.6-0.7,1.4-1.8,1.2
			c-0.2,0-1,1-0.9,1.5c0.4,2.1-0.5,3.7-1.4,5.4c-1.5,2.8-2.9,5.7-4.5,8.4c-0.4,0.7-1.4,1.2-2.2,1.7c0.3-0.9,0.6-1.7,1-2.5
			c1.7-3.4,3.5-6.8,5.2-10.2c0.8-1.5,0.2-2.4-1.2-3c-2.3-1.1-4.6-2.2-7.3-1.3c-0.2,0.1-0.5,0.1-0.7,0.1c-0.4-0.1-0.9-0.2-1.3-0.3
			c0.2-0.4,0.5-0.7,0.8-1c1.3-0.9,2.5-1.8,3.9-2.6c0.4-0.2,1,0,1.5,0c-0.2,0.4-0.4,0.7-0.5,1.1c0,0.3,0.1,0.6,0.3,0.8
			c1.4,0.6,2.8,1.2,4.2,1.7c0.1,0,0.4-0.2,0.6-0.2c-0.1-0.2-0.1-0.5-0.3-0.6c-1-0.4-1.7-0.9-1-2.2c0.1-0.1-0.3-0.7-0.6-0.8
			c-2.8-1.2-5.6-1.8-8.4,0.1c-0.3,0.1-0.6,0.2-0.9,0.2l-0.2-0.3l0.2,0.3c0.5,1.4,0.6,2.5-1.5,2.5c-0.6,0.1-1.2,0.3-1.8,0.6
			c-0.2,0.1-0.4,0.2-0.6,0.3c0.2,0.1,0.5,0.3,0.7,0.4c0.1,0,0.3-0.1,0.5,0c0.4,0.1,0.8,0.3,1.1,0.5c-0.3,0.3-0.6,0.7-1,0.9
			c-1,0.4-1.9,0.8-2.7,1.4c-1.2,1.1-2.4,2.3-3.4,3.6c-1.2,1.5-2.2,3.1-3.4,4.6c-0.2,0.3-0.8,0.2-1.2,0.3c0-0.4,0-0.8,0.1-1.2
			c0.9-1.5,1.9-3,2.7-4.5c0.7-1.3,1.2-2.8,1.8-4.1c0.1-0.3,0.1-0.7,0.4-0.9c2.1-2.3,3.9-5,6.4-6.7c5-3.5,10.3-2.6,15.2,0.6
			c2.4,1.5,2.4,1.6,4.2-0.6c0.9-1.1,1.8-2.2,2.7-3.4l0,0c0.5-0.3,1.1-0.6,1.6-1c5.8-4.9,11.4-10,17.4-14.7c3.3-2.6,5.7-6,8.2-9.3
			c3.5-4.8,5.9-10.2,8.7-15.4c2.5-4.4,5.4-8.6,8.5-12.6c2.5-3.4,5.3-6.6,7.9-9.9s3.9-7.1,2.4-11.6c-1.3-3.9-2.2-7.8-2.8-11.9
			c-0.6-4.5-0.6-9.1-0.9-13.6c-0.1-1.1,0.1-2.2,0-3.4c-0.1-1.6-0.4-1.8-1.9-0.9c-1.9,1.2-3.7,2.6-5.5,3.9c-3.7,2.7-7.5,5.1-12.1,5.9
			c-0.7,0.2-1.3,0.5-1.9,1c-1.9,1.3-3.7,2.7-5.7,3.9c-1.9,1.2-3.4,3-4.2,5.1c-2.8,6.6-3.3,13.5-2.5,20.5c0.7,6.4,1.9,12.8,2.8,19.2
			c0.1,0.6,0.2,1.1,0.5,1.6c0.5,0.7,0.2,1.2-0.1,1.9c-0.5,1.1-0.5,2.5-1,3.6c-3.2,6.4-6.4,12.9-9.6,19.3c-0.1,0.1-0.2,0.3-0.3,0.4
			c-0.6,0.5-1.5,1.5-1.9,1.3c-1.1-0.5-0.9-1.6-0.5-2.7c1.7-4.1,3.7-8.1,6.2-11.9c0.3-0.4,0.4-0.9,0.7-1.2c2.8-3.7,1.7-7.5,0.4-11.4
			c-0.4-1.1-0.9-2.2-1.2-3.4c-0.9-3.4-1.7-6.8-2.6-10.2c-0.1-0.5-0.3-1.1-0.6-1.6c-0.5-0.9-1-0.9-1.6-0.1c-0.1,0.2-0.3,0.4-0.4,0.6
			c-1.5,3.6-4.4,5.9-7.5,7.9c-1.3,0.9-2,1.8-1.7,3.3s0.7,3.2,0.9,4.8c0.1,0.7,0,1.4-0.3,2c-0.3,0.3-0.7,0.5-1.2,0.4
			c-0.5-0.5-0.8-1.1-0.9-1.8c-0.3-1.6-0.5-3.2-0.6-4.7c-0.1-1.2-0.8-1.4-1.6-1c-1.1,0.6-2.2,1.2-3.2,2c-0.7,0.5-1.4,0.8-1.8-0.1
			c-0.1-0.6,0.1-1.2,0.5-1.6c3-3.1,6.3-5.9,9.1-9.1c2.6-2.7,4.8-5.8,6.6-9.1c1.1-2.5,1.6-5.2,1.5-7.9c-0.1-4.3,0.3-8.6,1.2-12.8
			c0.3-1.3,1-1.6,2.1-1.2c0.6,0.4,1.2,0.8,1.7,1.3l0,0c0.4-1,1-1.1,1.9-0.6c0.2,0.1,0.5,0.2,0.8,0.4c0-0.3,0-0.6,0-0.9
			c-0.1-0.4-0.3-1-0.5-1c-0.9,0-1.3-0.1-0.6-1c0.4-0.6,0.8-1.2,1.7-0.6c0.5,0.3,1,0.5,1.6,0.6c0.4,0,0.7-0.2,0.8-0.6
			c0.1-0.6,0.1-1.3,0-1.9c-0.1,0.2-0.2,0.3-0.3,0.5c-0.2,0.4-0.4,0.8-0.7,1.1c-0.4-0.3-1-0.5-1-0.8c-0.3-1.5-0.8-1.1-1.6-0.4
			c-0.3,0.3-0.7,0.4-1,0.6c-1.6,1.6-1.8,1.6-2.7-0.5c-0.5-1.2-0.6-1.8-1.3,0c-0.4,1.2-1.5,0.5-2.2,0s-1-2-2.2-1.3
			c-0.9,0.7-1.6,1.6-2.3,2.6c0.6-0.3,1.4-0.5,1.8-1c1.1-1.4,1.6-0.9,1.9,0.4c0.3,1.1,0.6,2.1,0.8,3.2c0.1,0.4-0.4,0.9-0.7,1.3
			c-0.3,0.1-0.6,0.1-0.9,0c-0.1-0.4-0.1-0.8-0.1-1.2c0-0.4-0.1-0.7-0.1-1.1l-1.4,0.8l-0.2-0.4l0.2,0.4c-0.9,1.2-1.6,0.6-2.2-0.3
			s-1.2-2.6-2-0.1c-0.1,0.2-0.5,0.4-0.7,0.5c-0.3-0.4-0.5-0.7-0.7-1.1c-0.1-0.4-0.2-0.7-0.3-1.1c-0.2,0.4-0.5,0.8-0.6,1.2
			c-0.1,0.5,0,1.1-0.2,1.6c-0.1,0.2-0.6,0.2-0.9,0.4c-0.5-2.4-1.9,0.2-2.8-0.4c-0.2-0.1-1.1,1.1-1.5-0.2c-0.2,0.2-0.5,0.3-0.6,0.5
			c-0.4,0.8-0.2,2.6-1.8,0.8c-0.2,0.2-0.4,0.3-0.5,0.5c-0.6,1.6-1.4-0.1-1.7,0c-0.6,0.3-0.9,1.1-1.3,1.7c-0.8-0.8-1.3-0.3-1.8,0.3
			c-0.3,0-0.6-0.2-0.9-0.5c-0.6-2.1-1.2-0.9-1.7,0s-0.6,2-1.1,2.9c-0.1,0.3-0.6,0.5-1,0.8c-0.1-0.3-0.2-0.7-0.2-1.1
			c0.1-0.5,0.2-0.9,0.3-1.4c0-0.2,0-0.5,0-0.7c-0.2,0.2-0.5,0.3-0.6,0.5c-0.4,1-0.6,2.1-1.1,3.2c-0.2,0.5-0.8,0.8-1.2,1.1
			c-0.1-0.5-0.3-1-0.3-1.4c0-0.6,0.1-1.1,0.2-1.7c0-0.1,0.1-0.1,0.1-0.2s0-0.1,0-0.2l-0.2,0.4c-0.1,0.3-0.3,0.5-0.5,0.8
			c-0.4,0.3-0.8,0.6-1.2,0.8c-0.1-0.4-0.2-0.9-0.3-1.3s-0.2-1.2-0.5-1.3c-0.7-0.1-1.4-0.1-2,0c0,0.2,0,0.4,0.1,0.5
			c0.8,0.8,0.8,0.9,0,1.1c-0.9,0.2-1.8,0.2-2.7,0.3l-0.1-0.1l0.1,0.1c-0.4,0.3-0.7,0.8-1.1,0.9c-2.3,0.6-4.6,1-6.8,1.6
			c-1.1,0.3-1.9,0.4-2.6-0.8c-0.2-0.4-1.1-0.5-1.7-0.7c-0.2,0.6-0.3,1.3-0.3,2c0.2,0.8,0.6,1.5,1.1,2.1c0.2,0.3,1.1,0.5,1.3,0.3
			c0.7-0.8,1.8-1.1,2.8-0.8c0.5,0.1,1.5-0.3,1.6-0.7c0.5-2.6,1.1-0.9,1.9-0.2c0.6,0.3,1.3,0.3,1.9,0.1c0.2,0,0.2-0.9,0.3-1.3
			s0.2-0.6,0.4-1c0.4,0.2,1,0.4,1,0.7c0.3,1.8,1.5,1.5,2.7,1.3c0.8-0.1,1.6-0.2,2.4-0.2c1.7,0,3,1.3,3.1,3c0.1,0.7,0.1,1.4,0,2.1
			c-1,4.2-1.6,8.5-2,12.7c-0.4,3.7-1.8,7.3-2.7,10.9l0,0c-0.1,0.4-0.5,1-0.3,1.3c0.5,1.4,1.1,2.8-1.1,3.3c-0.1,0-0.2,0.7-0.1,0.8
			c0.5,0.2,1.3,0.6,1.4,0.4c1-1.2,2-2.4,2.9-3.6c0.1-0.3,0.1-0.6,0-0.9c-0.3-3.2,0.3-6.4,1.8-9.3c1.7-3.5,2.3-7.4,1.6-11.2l0.1-0.1
			l-0.1,0.1c-0.2,0.1-0.4,0.3-0.5,0.5c-0.3,0.5-0.6,1-0.9,1.6c-0.1-0.6-0.1-1.2,0-1.7c0.2-0.8,0.5-1.5,0.8-2.2
			c0.7-1.4,0.7-3,0.1-4.4c-0.3-0.6-0.4-1.4-0.4-2.1c0.1-0.6,0.4-1.1,0.9-1.4c0.6-0.1,1.1,0.2,1.5,0.6c0.9,1.4,1.5,0.7,2.2-0.1
			c1-1.3,2-2.6,3.1-3.8c0.3-0.2,0.6-0.4,1-0.5c0.4-0.1,0.9-0.1,1.1-0.4c3.1-2.9,7.1-3.6,11-4.4c0.2,0,0.5-0.2,0.7-0.2
			c0.7,0.1,1.4,0.4,2.1,0.5c-0.5,0.4-1,1-1.6,1.1c-5.8,1.1-10,4.7-14.2,8.5c-2.5,2.2-2.7,5.4-3,8.6c-0.5,5.7-1.6,11.4-3.1,16.9
			c-1.5,5.3-1.3,10.8,0.5,16c0.6,2,0.7,4.1,0.3,6.1c-0.4,1.6-0.5,3.3-0.8,4.9c-0.1,0.5-0.3,1.1-0.6,1.5c-0.3,0.2-0.7,0.3-1,0.2
			c-0.1,0-0.3-0.5-0.3-0.8c0-0.6,0.2-1.1,0.2-1.6c0-0.3-0.1-0.5-0.2-0.8c-0.1,0.2-0.2,0.4-0.4,0.6c-0.4,0.6-0.9,1.1-1.3,1.6
			c-0.1-0.7-0.2-1.5-0.2-2.2c0.3-1.9,0.8-3.7,1.1-5.6c0-0.2,0-0.6,0.2-0.7c1.9-0.9,0.8-2.5,0.8-3.8c0-0.5-0.1-1-0.1-1.4
			c-0.1,0.4-0.2,0.9-0.4,1.2c-0.1,0.1-0.9,0-0.9,0c-0.3-1.5-0.6-3.1-0.9-4.6c0-0.2,0.5-0.6,0.6-0.5c0.4,0.2,0.8,0.4,1.1,0.6
			c-0.2-0.7-0.5-1.3-0.8-1.9c-0.4-0.3-1-0.4-1.5-0.2c-0.6,0.2-1,0.6-1.3,1.2c-0.8,1.4-1.5,3-2.4,4.4c-0.6,1.2-1.4,2.3-2.4,3.3
			c-1.2,1.4-2,3.1-2.1,4.9c-0.8,5.9-1.3,11.9-2.5,17.8c-0.9,4.6-3.9,7.4-6.3,10.8c-0.2,0.4-0.9,0.4-1.4,0.6
			c-0.1-0.5-0.4-1.1-0.2-1.6c0.3-0.7,0.7-1.4,1.3-2c1-1.4,2-2.7,3-4c1.2-1.6,2.1-3.2,1.2-5.4c-0.4-0.9,0.1-2.2,0.2-3.3
			c0.1-1.6,0.2-3.2,0.4-4.8c0.1-0.6,0.1-1.4,0.5-1.8c1.3-1,0.8-2.3,0.9-3.6c0-0.9-0.3-0.6-0.7-0.2c-0.2,0.1-0.5,0.2-0.8,0.1
			c-1.1-2.1-2-0.6-2.9,0.2c-4.3,3.9-8.3,8-12.8,11.5s-6.2,8.4-8.1,13.2c-0.7,1.7-1,3.5-0.9,5.4c0.3,5.7,0.8,11.4,1.2,17.1
			c0.1,0.9,0,1.8,0,2.6c0,1.2,0.1,2.3,0.2,3.5c0.1,0.5,0.2,1.1,0.2,1.6c-0.2,0.6-0.5,1.1-0.8,1.6c-0.4-0.4-1.1-0.7-1.2-1.2
			c-0.5-1.5-1.4-3-0.1-4.5c0.1-0.2,0.1-0.6,0.1-0.9c-0.4-0.1-0.7-0.1-1.1-0.1c-5.4,1-9.8,4.8-11.5,10c-1,2.8-2.3,5.6-3.5,8.3
			c-0.3,0.4-0.6,0.8-1,1.1c-0.2-0.4-0.3-0.8-0.4-1.3c0.5-8.6,4.7-15.1,11.9-19.6c1.5-0.9,3.2-1.7,2.9-3.9c0-0.2,0.3-0.5,0.4-0.8
			c0.3,0.2,0.7,0.4,0.8,0.7c0.2,0.9,0.2,1.9,0.4,2.8c0,0.2,0.3,0.4,0.5,0.7c0.1-0.2,0.3-0.4,0.2-0.6c-0.7-3.5-0.1-7.2-1.9-10.5
			c-0.4-0.8-0.6-1.6-0.5-2.5c0.1-2.5-0.5-5-1.6-7.2c-0.3-0.6-0.5-1.7-0.2-2.1c0.7-0.8,1.2,0,1.6,0.7c0.2-0.1,0.6-0.3,0.6-0.5
			c0.1-1,0-1.9,0.1-2.9c0-0.4,0.5-0.8,0.7-1.1c0.3,0.3,0.5,0.6,0.8,1c0.1,0.3,0.2,0.7,0.3,1.1c0.2-0.3,0.4-0.7,0.6-1
			c0.8-1.8,0.8-1.9-1.2-2.2c-0.9-0.2-1.7-0.3-2.6-0.2c-7.4,0.7-14.3,2.6-19.6,8.3c-0.6,0.7-1.3,1.4-2,2.1c-0.4,0.3-0.9,0.5-1.4,0.6
			c-0.1-0.6-0.5-1.3-0.2-1.7c0.7-1.3,1.7-2.5,2.5-3.8c0.4-0.5,0.7-1.2,0.8-1.9c-0.2-1.2,0.6-2.3,1.8-2.5c4.8-1.6,9.7-3.2,14.5-4.7
			c3.1-0.9,5.9-2.4,8.5-4.3c2.7-2.1,5.7-3.9,8-6.5c2.5-2.9,6-4.4,8.5-7.1s5.5-5.5,8.3-8.3c0.7-0.7,1.5-1.5,2.2-2.2
			c2.6-2.4,2.9-5.8,4.2-8.8c3.1-7.3,3.9-15.3,5.6-23c0.2-1.3,0.4-2.7,0.4-4c0.2-1.3-0.7-2.5-2-2.7c-0.3,0-0.6,0-0.9,0
			c-6.6,0.5-13.1,1.8-19.4,3.9c-5.1,1.7-10.1,4-15.1,6c-0.3,0.1-0.7,0.2-0.8,0.5c-1.7,2.4-3.2,4.8-4.6,7.4c-0.8,1.6-0.6,3.4,0.1,5.3
			c1.1,3.2,1.9,6.4,2.6,9.7c0.2,0.7-0.2,1.6-0.1,2.4c0.2,1.7,0.5,3.4,0.7,5.1c0,0.4-0.1,0.9-0.2,1.3c-0.3-0.1-0.7-0.3-1-0.4
			c-1-0.7-2.1-2-3.1-1.9s-1.9,1.5-3,2.2c-3.1,2.3-6.2,4.6-9.3,6.8c-0.4,0.3-1.1,0.1-1.7,0.1c0.1-0.6,0.4-1.1,0.7-1.6
			c2.4-2.3,5.1-4.4,7.3-6.9c1.5-1.7,2.2-4,3.2-6.1c0.2-0.5-0.1-1.4-0.3-2.1c-1-3.9-2.2-7.8-3.1-11.8c-0.2-1.3-0.1-2.7,0.1-4
			c0.3-2.4-0.1-2.9-2.4-2c-5.2,2-10.3,4.3-14.6,8c-1.4,1.2-3.2,2.2-4.7,3.3c-3.9,3-7,7-9,11.6c-1.1,2.8-2.6,5.4-4.7,7.6
			c-2.1,1.9-3.1,4.6-2.9,7.3c0,1-0.2,2-0.6,3c-0.2,0.9-0.8,1.9-0.7,2.8c0.7,3.9-2,6.4-3.7,9.2c-0.3,0.4-1,0.6-1.5,0.9
			c-0.3-0.6-0.9-1.3-0.7-1.9c0.4-1.4,1.1-2.6,1.6-4c0.4-1.1,0.7-2.2,1.1-3.3c0.1-0.2,0-0.6,0.1-0.7c2.8-2.1,1.3-5.5,2.4-8.1l0.2-0.3
			l-0.2,0.3l-2.8,1.8L8,155.6c-2.5,2.2-4.7,4.7-8.1,5.7v-2.4c5-2.5,8.8-6.5,12.5-10.5c1.7-1.8,2.3-4.6,3.4-6.9s2.1-4.6,3.3-6.9
			c0.4-0.7,1.3-1.1,2-1.6c-0.3-0.3-0.7-0.6-1-0.9c-1.6-1.2-1.7-1.2-0.4-2.9c3.1-0.4,3.1-0.4,2.4,2.4l0,0c1.7-1.1,3.9-1.7,4.9-3.2
			c1.5-2.4,3.9-3.4,5.9-5c0.5-0.4,1.3-1.1,1.2-1.3c-0.4-0.7-1-1.3-1.6-1.8c-0.7-0.5-1.1-0.4-1.1,0.7c0,0.5-0.5,1-0.7,1.5
			c-1.5-1.2-1.4-0.1-1.5,1c-0.2,0.3-0.6,0.4-0.9,0.4c-0.7-0.4-0.8-0.2-1,0.5c-0.1,0.3-0.9,0.5-1.3,0.7l-0.1-0.6l-0.2,0.1l0.3,0.5
			c-0.4,0.6-0.8,1.5-1.3,1.6c-1.9,0.4-3.6,1.3-5,2.7c-4.4,0.2-8,2.4-11.5,4.8l0,0l-1.5,0.5l0,0c-1.3,0.1-2.7-0.1-3.6,1.3
			c-0.4,0.4-1,0.6-1.6,0.5c-0.3,0-0.9-0.8-0.8-1c0.3-0.6,0.7-1.4,1.2-1.5c4.9-1.3,9-4.3,13.5-6.5c2-0.9,3.8-2.3,4.9-4.2
			c1-2,2.9-3.4,5.2-3.8c2.9-0.5,5.7-1.9,8.5-2.9c0.2-0.1,0.4-0.2,0.6-0.3c1.5-1.7,3.6-2.2,5.7-2.7l0,0c3.8-1.3,7.6-2.5,11.3-3.9
			c3.1-1.1,5.7-3.4,7.1-6.3c0.9-1.8,1.5-1.7,3.1-0.7c1.4,0.8,3,1.5,4.5,2.1c0.2,0.1,0.7-0.1,0.7-0.2c0.1-0.3,0-0.6-0.1-0.9
			c-0.8-0.7-1.6-1.4-2.5-2.1c-0.2-0.2-0.6-0.4-0.7-0.6c-0.7-2.6-3.4-3.1-5-4.6c-0.5-0.3-1-0.3-1.5-0.1c-0.5,0.5-1,1.3-0.1,2.1
			c0.3,0.3,0.6,0.5,0.8,0.9c0.1,0.2,0.1,0.4,0.1,0.6c-0.2,0-0.5,0.2-0.6,0.1c-2.2-0.7-4.4-1.5-6.5-2.2c-0.2-0.1-0.4-0.3-0.4-0.5
			c0.1-0.2,0.3-0.4,0.5-0.4c1.3-0.1,2.5-0.1,3.8-0.2c0.3,0,0.5-0.1,0.8-0.1c-0.1-0.5-0.3-1.1-0.5-1.6c-0.1-0.1-0.5-0.1-0.8-0.1
			c-0.4,0.1-0.9,0.4-1.3,0.3c-4-0.5-7.4,0.3-10,3.7c-0.5,0.6-1.2,1-1.9,1.3c-1,0.4-2.3,0.3-2.7-0.9c-0.1-0.8,0.3-1.6,1-2.1
			c3.4-1.9,6.9-3.6,10.3-5.3c1.8-0.8,3.8-0.8,5.5,0.2c2.6,1.3,5.3,2.4,8,3.3c2.6,0.9,5.3,1.4,7.9,2L71,97z M188.1,256.3l0.5-0.5
			l0.7-0.8l-0.2-0.1l-0.5,0.9L188.1,256.3L188.1,256.3z M316.2,61L316.2,61L316.2,61L316.2,61z M190.9,6.3l-0.5-0.5l-1-1.4l0,0
			l0.9,1.4L190.9,6.3l0.4,0.5l0.5,0.5l0.5,0.5l0.5,0.5l0.5,0.5l0.5,0.5l0.5,0.5l0.5,0.5l0.5,0.5l0,0l-0.5-0.5l-0.5-0.5l-0.5-0.5
			l-0.5-0.5l-0.5-0.5l-0.5-0.5l-0.5-0.5l-0.5-0.5L190.9,6.3z M139.6,94.6L139.6,94.6L139.6,94.6L139.6,94.6L139.6,94.6z M198.1,19.7
			l-0.5-0.5l-0.5-0.5l-0.5-0.5l-0.5-0.5l-1.9-1.9l-0.5-0.5l-0.5-0.5l-0.5-0.5l0,0l0.5,0.5l0.5,0.5l0.5,0.5l1.9,1.9l0.5,0.5l0.5,0.5
			l0.5,0.5L198.1,19.7L198.1,19.7L198.1,19.7z M187.6,21.8l0.5,0.5l0.5,0.5l0.5,0.5l0.1,0.1l-0.1-0.1l-0.5-0.5l-0.5-0.5L187.6,21.8
			l-0.5-0.5l-0.5-0.5l-0.5-0.5l-0.9-1l-3.8-3.3l-1.8-1.8l-0.5-0.5l-0.1-0.1l0.1,0.1l0.5,0.5l1.9,1.9l3.8,3.3l1,1l0.5,0.5l0.5,0.5
			L187.6,21.8z M187.6,20.2L187.6,20.2l0.5,0.5l0.5,0.5l0.5,0.5l0.5,0.5l-0.5-0.5l-0.5-0.5l-0.5-0.5L187.6,20.2z M358.9,154.6
			L358.9,154.6z M184.2,11.1L184.2,11.1z M195.7,23.1L195.7,23.1z M178,18.7L178,18.7l-0.5-0.5l0,0L178,18.7z M193.9,12.1l-0.5-0.5
			l-1.5-1.4l0,0l1.4,1.5L193.9,12.1l0.5,0.5l0.5,0.5l0.5,0.5l0.5,0.5l0.5,0.5l0.1,0.1l-0.1-0.1l-0.5-0.5l-0.5-0.5l-0.5-0.5l-0.5-0.5
			L193.9,12.1z M180.4,13.1l-0.5-0.5c0-0.1,0-0.1,0-0.2c0,0-0.1-0.1-0.1-0.1l0.2,0.3L180.4,13.1l0.5,0.5l0.5,0.5l0,0l-0.5-0.5
			L180.4,13.1z M186.2,13.1L186.2,13.1l0.5,0.5l0,0L186.2,13.1z M183.8,20.7L183.8,20.7z M199.6,17.9L199.6,17.9l-0.5-0.5l0,0
			L199.6,17.9z M191,17.9L191,17.9z M197.2,21.7L197.2,21.7l-0.5-0.5l0,0L197.2,21.7z M323.9,121.4l0.5,0.5l0.2,0.3l-0.2-0.3
			L323.9,121.4L323.9,121.4z M199.1,14.4L199.1,14.4L199.1,14.4l0.5,0.5l0,0L199.1,14.4z M266.3,116.2L266.3,116.2L266.3,116.2
			L266.3,116.2L266.3,116.2z M183.3,15.9L183.3,15.9l0.5,0.5l0.5,0.5l0,0l-0.5-0.5L183.3,15.9z M232.2,114.7L232.2,114.7l-0.5-0.5
			c-0.9-3.4-3.7-5.4-5.9-7.9c-0.1-0.1-0.4-0.1-0.6-0.1c0.1,0.3,0.1,0.7,0.2,0.9c2.1,2.4,4.2,4.7,6.3,7.1L232.2,114.7z M197.6,15.9
			L197.6,15.9z M272,111.9L272,111.9l0.5,0.5l0.2,1.1l0.8-1.1c0.3-0.1,0.7-0.1,0.9-0.3c0.4-0.4,0.7-0.8,1.1-1.3l-1.8-0.5
			c0,0.5,0,0.9,0,1.4c0,0.2-0.1,0.5-0.1,0.7h-1L272,111.9z M139.6,119.5L139.6,119.5L139.6,119.5c-0.1,0-0.1-0.1-0.2-0.2
			c-0.1,0-0.1,0-0.2,0L139.6,119.5z M184.7,119.1l-0.2,0.4L184.7,119.1l0.5-0.5c0.3,0.2,0.9,0.5,0.9,0.7c-0.1,0.8-0.4,1.5-0.7,2.3
			c-0.4,1-0.7,1.8,0.8,2.1c0.4,0.1,0.8,0.7,1,1.2c0.4,1,0.6,2,0.9,3c0.5,1.6,0.6,3.2,2.2,4.3c0.5,0.3,0.4,1.9,1.1,2.7
			c0,0-0.4,0.6-0.5,0.5c-1.3-0.4-1.2,0.2-0.9,1.1c0.1,0.5,0.3,1.1,0.4,1.6c0.6,2,0.6,2,2.6,3.4c0.3,0.4,0.5,0.8,0.5,1.3
			c0.2,1,0.3,2.1,0.5,3.1c0,0.2,0.4,0.6,0.6,0.6c0.3,0,0.6-0.2,0.7-0.5c0.1-0.4,0-0.9,0.1-1.4c0.1-1.1,0.4-2.1,0.8-3.1
			c0.6-1.1,0.1-0.7-0.5-0.7c-0.3,0-0.7-0.1-1-0.3c-0.6-0.2-1.2-0.5-1.8-0.7c-0.3-0.1-0.6-0.1-0.9-0.1c0.2-0.3,0.4-0.7,0.7-0.8
			c1.8-0.2,3.4-1,4.7-2.2c0.1-0.2,0.3-0.3,0.4-0.5c-0.2,0-0.4,0-0.7,0c-1.6,0.3-3.1,0.7-4.6,1c-0.4,0-0.9,0-1.3-0.2
			c0.3-0.3,0.6-0.5,1-0.7c1-0.3,2-0.5,3-0.8c1.7-0.4,1.8-0.8,1.4-2.5c-0.3-1.4-1-1-1.9-0.9c-0.4,0.1-0.8-0.2-1.3-0.4
			c0.2-0.3,0.4-0.6,0.5-0.9c0.4-1.6,0.8-3.3,1-4.9c0.1-0.9-0.6-1.1-1.2-0.3c-0.6,0.9-1,1-1.4-0.2c-0.1-0.4-0.7-0.6-1.1-1
			c-0.2-0.2-0.3-0.5-0.5-0.8c0.3-0.1,0.6-0.4,1-0.4c1.4,0.2,2.8,0.3,4.2,0.3c1.7-0.1,3.4-0.4,5-0.9c1.2-0.4,1.3-1.4,0.1-1.8
			s-0.9-0.9-0.7-1.6c0.3-0.5,0.5-1,0.7-1.5c0-0.6-0.1-1.3-0.2-1.9l-1.1,1.3c0,0.1,0,0.2-0.1,0.2l-0.9,1.3c-0.4-0.4-0.8-0.7-1.1-1.2
			c-0.3-0.4-0.5-0.8-0.6-1.3c-0.3-0.7-0.5-1.4,0.7-1.6c0.4-0.1,0.7-0.6,1-1c0.1-0.1-0.1-0.4-0.2-0.6c-0.5,0.2-0.9,0.5-1.3,0.8
			c-2.2,1.6-2.2,1.6-3.4-0.9c-0.1-0.3-0.3-0.6-0.5-1c-0.1,0.3-0.1,0.7-0.1,1.1c0.1,1.4,0.4,2.8,0.4,4.2c-0.1,0.6-0.3,1.1-0.6,1.6
			c-0.3-0.5-1-1-1-1.4c0.1-2.3-1-3.9-2.2-5.6c-0.4-0.7-0.7-1.4-0.9-2.2c-0.1-0.2,0.1-0.5,0.2-0.8c0.3,0.1,0.6,0.2,0.8,0.3
			c0.6,0.6,1.2,1.2,1.8,1.8c0.3-0.8,0.5-1.6,0.8-2.5c0.2-0.8,0.4-1.5,0.8-2.3c0.8-1.6-0.6-2.2-1.2-3.2c0,0-0.8,0.3-0.8,0.4
			c0,0.9,0.2,1.9,0.2,2.8c0,0.4-0.1,0.8-0.2,1.2c-0.4-0.2-0.7-0.4-1.1-0.7c-1.3-1.5-1.3-3.4-1.5-5.2c0-0.1,0.6-0.4,0.6-0.4
			c1,1.4,1.2,0.3,1.4-0.5c0.2-0.9-0.1-2.2,1.5-2.2l0.1,0.1l-0.1-0.1V97l0,0v1c-1.4,0-1-1.1-1.3-1.9c-0.2-0.5-0.4-1-0.6-1.4
			c-0.1,0.5-0.2,1-0.2,1.4c-0.1,1-0.2,1.9-0.4,2.8c-0.1,0.3-0.5,0.5-0.8,0.7c-0.2-0.2-0.4-0.4-0.6-0.7c-0.1-0.3-0.1-0.7-0.1-1
			c-0.1-1.7-0.1-3.4-2-4.4c-0.8-0.4-0.8-1.2,0.2-1.5c0.9-0.2,1.9-0.3,2.8-0.5c0.3-0.1,0.5-0.3,0.7-0.5c-0.3-0.1-0.5-0.2-0.8-0.3
			c-1.3,0.1-2.5,0.3-3.8,0.4c-0.7,0.1-2.2-0.5-1.3,1.3c0,0.1-0.4,0.6-0.6,0.5c-0.5,0-0.9-0.2-1.2-0.5c-0.6-0.7-0.6-1.7,0-2.3
			c0.3-0.3,0.7-0.5,1.1-0.5c1.2-0.1,2.4,0.1,3.6-0.1c1.4-0.3,2.8-0.6,4.1-1.1c0.2-0.1,0.4-0.5,0.5-0.7c-0.3,0-0.6,0-0.8,0
			c-0.7,0.2-1.4,0.4-2.1,0.5c-0.5-0.1-0.9-0.3-1.4-0.5c0.4-0.3,0.6-0.7,1.1-0.8c1.2-0.5,2.7-0.5,3.3-2l0.5-0.5
			c0.1-0.2,0.3-0.4,0.3-0.6c-0.2-0.6-0.4-1.2-0.6-1.7c0,0-0.3,0-0.4,0c0.2,0.6,0.3,1.1,0.5,1.7c0.1,0.2,0.2,0.4,0.3,0.6l-0.5,0.5
			c-0.2,0-0.3-0.1-0.5-0.1c-2.5,0.3-2.5,0.3-3-2.3c-0.1-0.3,0.1-0.6-0.1-0.9s-0.4-0.7-0.6-0.7s-0.6,0.3-0.7,0.6
			c-0.1,0.5-0.1,1.1-0.2,1.6c-0.1,0.3-0.2,0.6-0.4,0.9c-0.2-0.2-0.5-0.5-0.4-0.7c0.3-0.9-1.9-1.4-0.5-2.6c0.1-0.1-0.5-1.1-0.8-1.7
			c1.4,0,2.8,0,4.2-0.1c0.2,0,0.4-0.2,0.6-0.3c-0.1-0.1-0.2-0.1-0.4-0.2c-1.4-0.2-2.8-0.4-4.2-0.5c0,0-0.1,0.7-0.2,1.1h-1.3
			c-0.1-0.8,0-1.6,0.1-2.3c0.1-0.2,1.1-0.3,1.6-0.2c3,0.4,6.1,0.4,8.9-1.1c0.3-0.1,0.4-0.4,0.6-0.7c-0.3,0-0.7-0.1-1,0
			c-2,1.3-4.4,1.8-6.7,1.2c-2.5-0.6-4.9-1.4-7.3-2.1c-0.3-0.1-0.6-0.1-0.9-0.1c0.1,0.2,0.3,0.5,0.5,0.7c1,1,1,1,0.1,1.7
			c-0.1,0.1-0.2,0.4-0.1,0.5c0.4,0.5,0.9,0.9,1.3,1.3c0.2-0.4,0.4-0.8,0.6-1.1s0.4-0.6,0.7-0.9c0.2,0.4,0.8,0.8,0.7,1.1
			c-0.7,1.7,1.6,3.4,0,5.1c0.2,0.2,0.5,0.4,0.6,0.6c0.3,1,1.1,2-0.3,2.8c-0.3,0.2-0.5,0.4-0.8,0.6c0.2,0.3,0.5,0.8,0.8,0.8
			c0.8,0.2,1.6,0.1,2.4,0.3c0.4,0.2,0.8,0.4,1.1,0.7c-0.4,0.2-0.7,0.6-1.1,0.7c-2.9,0.6-4.1-0.2-4.6-3.2c-0.1-0.4-0.2-0.8-0.3-1.1
			c0.2-0.9,0.4-1.8,0.6-2.7c0.3-1.1-0.3-2.3-1.4-2.7c-0.3-0.1-0.6-0.1-0.8-0.2c0,0.3,0.1,0.6,0.2,0.9c0.3,0.5,0.8,0.8,1,1.3
			c0.5,1.5-0.8,0.3-1,0.6c-0.1,0.2,0.1,0.5,0.3,0.8c0.4,0.7,0.8,1.3,1.2,2c-1.2,0-2.2,0.2-0.7,1.5c0.2,0.2,0.3,0.5,0.4,0.8
			c-2,0.5,0.3,2.1-0.7,3c-0.4,0.4-0.7,1.7-0.4,2c1.1,1.3-0.6,2.9,0.6,4.3c0.4,0.5-0.4,1.8-0.2,2.6c0.4,1.8,1,3.5,1.6,5.2
			c0.6,2.1,0.9,4.5,3.3,5.5c-0.1,0.2-0.2,0.4-0.3,0.6c0,0.3,0.1,0.7,0.1,1c0.1-0.3,0.1-0.6,0.1-0.9c0-0.2,0-0.5,0-0.7
			c0.4-1,0.6-1.9,1.1-2.9c0.1-0.3,0.6-0.7,0.9-0.6c0.4,0.1,0.8,0.4,1,0.9c0.1,0.5,0,0.9-0.2,1.3c-0.7,1.8-1.5,3.6-2.2,5.4
			c-0.1,0.3-0.2,0.9,0,1.1c1.2,1.2,0.8,2.6,0.5,4L184.7,119.1z M193.3,78.3l0.2-0.3L193.3,78.3z M350.7,139.2l0.2-0.4L350.7,139.2
			l-0.5,0.5c-0.6,0.5-2,0.3-1.4,1.7c0.9,2.2,1.9,4.3,2.9,6.5l1,2.9c0.7,2.4,1.3,4.9,2.1,7.3c0.1,0.4,1.1,1,1.3,0.9
			c0.7-0.5,1.2-1.1,1.6-1.8c0.1-0.2-0.6-1.1-1-1.1c-1-0.1-1.1-0.7-1.1-1.5l0.7-0.3l-0.7-0.1c-0.1-2.7-0.1-2.7-2.7-3.2
			c-0.1,0-0.1-0.1-0.2-0.1c0.8-1,0.8-1,0.4-2.4c0-0.1,0.1-0.3,0.1-0.4l0.1-0.1l-0.1,0.1h-1.5c-0.5-1.5,1.2-3.4-0.9-4.6
			c-0.1,0,0-0.5,0.1-0.6c0.5-0.7,0.6-1-0.4-1.3c-0.2-0.1-0.2-1.1-0.3-1.6L350.7,139.2z M95,139.2l-0.5,1c-0.3,0.2-0.5,0.4-0.7,0.6
			c-0.1,0.3-0.2,0.5-0.2,0.8c0.2-0.2,0.4-0.4,0.6-0.6c0.1-0.3,0.2-0.6,0.3-0.9L95,139.2l0.2-0.4L95,139.2z M17.7,140.6
			c-0.1,0-0.1,0.1-0.1,0.2c0,0,0,0.1,0,0.2L17.7,140.6c0.1-0.1,0.1-0.1,0.2-0.2c0-0.1,0-0.1,0-0.2L17.7,140.6z M199.6,31.2l-0.2,0.3
			L199.6,31.2L199.6,31.2z M177.5,12.1l0.5,0.5l0.5,0.5l-0.5-0.5L177.5,12.1l-0.2-0.3L177.5,12.1z M198.1,156.9L198.1,156.9
			c0-0.1-0.1-0.1-0.2-0.2c-0.1,0-0.1,0-0.2,0L198.1,156.9z M220.7,99.4l-0.5-0.5c0.5-0.8,1.1-1.6-0.5-1.8c-0.2,0-0.3-0.1-0.4-0.2
			c0.2-0.4,0.4-0.9,0.6-1.2c0.7-0.9,1.3-1.6-0.6-1.4c-0.5,0-1.6-2.9-1.2-3.4c0.1-0.1,0.4-0.1,0.7-0.2l0.6,0.3l-0.6-0.3
			c-0.7-0.9-2.6-1.5-0.9-3.2c0.1-0.1-0.2-0.7-0.4-1c-0.6-0.7-1.3-1.4-2-2.1c-0.2-0.3-0.3-0.6-0.4-1c0.3,0,0.6,0,0.9,0s0.6,0,0.9,0.1
			c-0.1-0.3-0.3-0.7-0.5-1c-0.8-1-1.7-1.9-2.5-2.9c-0.1-0.3-0.1-0.7,0-1.1c0-0.1,0.6-0.1,0.8-0.1c1.8,0.2,1.8,0.2,1.3-1.6
			c-0.5-1.8-0.9-3.7-1.3-5.6c-0.1-0.6,0.3-1.8,0.8-1.9c1.6-0.6,3.4-0.9,5.1-1.3c0.4-0.2,0.9-0.4,1.2-0.7c-0.4-0.2-0.9-0.3-1.4-0.4
			c-1.1,0-2.1-0.1-3.1-0.2c-0.2,0-0.2-1-0.4-1.5c-0.1-0.2-0.3-0.3-0.4-0.4c-0.1,0.2-0.4,0.3-0.4,0.5s0.1,0.6,0,0.9
			c-0.1,0.4-0.2,0.8-0.4,1.2c-0.3-0.4-0.9-0.7-1-1.1c-0.2-0.9-0.3-1.7-0.3-2.6c-0.1-0.2-0.2-0.4-0.3-0.5c-0.1,0.1-0.2,0.3-0.2,0.4
			c-0.3,0.6-0.5,1.4-1.3,0.6c-0.6-0.6-2.2-0.5-1.7-2.1c0.1-0.7,0.2-1.4,0.2-2.1l0,0c0,0.6-2.8-0.6-0.8,1.3c0.1,0.1,0,0.5-0.1,0.6
			c-1.4,1.5-2.6,1.5-3.8-0.1c-0.4-0.6-1-1.1-1.4-1.6c-0.6-0.9-0.6-1.5,0.8-1.4c0.3,0,0.5,0,0.8,0c-0.1-0.2-0.3-0.4-0.4-0.6l-0.8-1.6
			c0.6,0,1.2,0,1.8,0c0.4,0,0.8,0.2,1.2,0.2c0.1,0,0.2-0.2,0.3-0.4c-0.8-0.6-1.7-1.1-2.7-1.4c-0.4-0.1-1.3,0.9-1.5,1.5
			c-0.2,1.2-0.4,2.3-0.5,3.5c0,0.3-0.4,0.6-0.6,0.8c-0.2-0.2-0.6-0.5-0.5-0.7c0.1-1.5,0.2-3,0.3-4.5c0.1,0,0.1-0.1,0.2-0.2
			c0-0.1,0-0.1,0-0.2l-0.2,0.4c-0.2,0.3-0.4,0.7-0.6,1c-0.3,0.6-0.6,1.2-0.9,1.9l-0.4-2.4l0.5-1.4c0.2-0.1,0.4-0.3,0.6-0.4
			c0.4-0.5,0.9-1.1,1.3-1.6c-0.1-0.1-0.4-0.2-0.4-0.2c-0.5,0.6-1,1.1-1.4,1.7c-0.1,0.1,0,0.3-0.1,0.5l-0.5,1.4l-1.1,1
			c-0.1-0.4-0.3-0.9-0.4-1.3c0-0.2,0-0.5,0-0.7l1-2.9l0.1-0.1l-0.1,0.1l-1,2.9c-0.6,0.2-1.5,0.1-1.8,0.5c-0.5,0.7-0.4,1.7-0.8,2.4
			c-0.2,0.4-1,0.5-1.5,0.6c-0.5,0.1-1.1,0.1-1.6,0.1c-0.4,0-0.7,0.1-1.1,0.1c-0.1-0.4-0.1-0.9-0.1-1.3c0.1-0.4,0.4-0.7,0.7-1
			c0.6-0.6,1.1-2.3,2.1-0.2c0,0.1,0.6,0,0.7-0.1c0.2-0.8,0.7-1.9,0.4-2.2c-1.4-1.5,0.1-2.2,0.7-3.2l0.1-0.1l-0.1,0.1
			c-1.1,0.3-2.1,0.7-3.2,0.9c-0.3,0.1-0.7-0.2-1-0.4c0.2-0.3,0.3-0.6,0.6-0.9c0.3-0.1,0.6-0.3,0.9-0.3c1.5-0.7,3-1.4,4.5-2.2
			c0.4-0.3,0.6-0.8,0.5-1.2c-0.1-0.5-0.6-0.9-0.9-1.3c0,0.5,0,0.9,0,1.4c0,0.2-0.1,0.4-0.3,0.6c-1.9,1-3.8,2-5.7,2.9
			c-0.3,0.1-0.7-0.1-1.1-0.2c0.3-0.3,0.5-0.8,0.8-0.9c1.4-0.3,2.8-0.7,3.5-2.1l1-0.5l0.1-0.1l-0.1,0.1l-1,0.5
			c-2.6,0.8-5.2,1.6-7.8,2.2c-0.4,0.1-1-0.5-1.5-0.8c0.4-0.4,0.8-0.7,1.2-0.9c0.4-0.2,1,0,1.4-0.1c2.2-0.8,4.3-1.6,6.4-2.4
			c0.2-0.1,0.3-0.3,0.5-0.5h-0.8H194c0.1-0.4,0.3-0.7,0.5-1c0.3-0.4,0.7-0.7,1.1-1c0.4-0.4,0.7-0.8,1.1-1.2
			c-0.6,0.1-1.1,0.1-1.7,0.2c-0.2,0-0.4,0.3-0.6,0.4c-1.1,0.3-1.5,0-1.6-1.4c0-0.2-0.1-0.5-0.3-0.5c-1.9-0.2-1.8-1.7-2-3l1-0.5l0,0
			l-1,0.5l-1.9,0.5l0,0l-4.8-0.5l-1.4-0.5c0-1.8,1.4-0.8,2.1-1c0.8-0.1,1.7-0.1,2.5,0c-0.8-0.3-1.6-0.5-2.4-0.9
			c-1.8-0.7-2.3-1.4-1.8-2.8c0.1-0.3,0.3-0.6,0.6-0.6s0.6,0.3,0.6,0.5c0,1.8,1.3,1.8,2.5,1.8c1.6-0.1,3.3-0.3,4.9-0.6
			c0.8-0.1,1.6-0.6,2,0.5c0,0.1,0.5,0,0.8,0c-0.4-1.4,0.8-2,1.4-2.8c0.2-0.2,0.3-0.5,0.4-0.8c-0.3,0.1-0.5,0.2-0.8,0.3
			c-0.9,0.6-1.9,1.1-2.9,1.6c-0.8,0.3-1.3,0.1-0.7-0.9c0.1-0.3,0.3-0.5,0.4-0.8c-0.4,0-0.7,0.1-1.1,0.1H189c0.4-0.3,0.9-0.7,1.3-1
			c0.2-0.1,0.4-0.2,0.6-0.3l1-0.3l-0.1-0.2l-0.9,0.5c-1.6,0-3.2,0-4.8-0.1c-0.4,0-0.7-0.5-1-0.8c0.3-0.3,0.7-0.4,1.1-0.6
			c0.9-0.1,1.9,0,2.8,0c0.4,0,0.8-0.4,1.2-0.6c-0.5-0.2-1-0.4-1.5-0.5c-0.9,0.1-1.7,0.1-2.6,0c-3.1-1.1-6.2-2.3-8.2-5.1
			c-0.2-0.3-0.6-0.6-0.9-0.7c-0.2-0.1-0.9,0.2-0.9,0.3c0,2-1,4,0.4,6c0.9,1.6,1.6,3.4,2.1,5.1c0.1,0.3-0.1,0.7-0.2,1.1l-0.4,2.1
			c-0.2,0.5-0.4,1-0.6,1.5c-0.7,1.6,0.4,0.9,1.1,0.8c-0.2,1.1-0.4,2.3-0.6,3.5c-1.7-0.3-0.7,0.6-0.6,1.2c0.1,0.5,0.1,1.1,0.1,1.6
			l0,0c-0.9-0.4-1.1,0-1,0.8c0.2,3.9,2.1,7.1,4.4,10c1.2,1.5,2.7,3.1,3.2,4.9c0.8,2.8,1.2,5.7,1.3,8.6c0.1,1.5,0.6,2.1,2,2.3
			c0.8,0.2,1.5,0.6,2.2,1l-2.3,0.6c-0.1,0-0.2,0-0.2,0l-1,0.5l-0.7,1.7c0.6,0.2,1.2,0.3,1.8,0.3c1.5,0,3-0.1,4.5-0.2
			c0.5-0.1,0.9-0.2,1.3-0.4c0.1-0.1,0.1-0.2,0.2-0.4c-0.1,0-0.3-0.2-0.4-0.1c-0.4,0.2-0.7,0.3-1.1,0.4c-2,0.2-4.1,0.8-5.6-1.2l1-0.5
			c1.2,0.6,2.6,0.5,3.6-0.2c0.7-0.5,1.3-1.2,1.7-1.9c0.2-0.3,1.8,0.2,0.7-1c-0.5-0.5-0.4-1.6-1.6-1.1s-1.3-0.2-0.9-1
			c0.5-0.6,1-1.1,1.6-1.5c0,0.1,0.1,0.1,0.2,0.2c0.1,0,0.1,0,0.2,0l-0.4-0.2c-0.1-0.5-0.3-0.9-0.5-1.3c-0.3-0.4-0.7-0.7-1.1-1
			c-0.2,0.4-0.4,0.8-0.5,1.3c-0.2,1.5-0.2,3.1-0.5,4.6c-0.3,0.6-0.8,1-1.4,1.1c-0.8,0-1-0.5-0.8-1.5c0.6-2.9,1-6,1.5-9l0.1-0.7
			l-0.1,0.7h-1.4l0,0c-0.2-0.5-0.2-1.1-0.2-1.6c0.3-1.4,0.1-2.1-1.6-1.8c-1,0.1-1.2-0.9-0.5-1.4c1.1-0.8,2.3-1.6,3.6-2.2
			c0.1-0.1,0.8,0.5,1,0.9c0.2,0.5,0.2,1.1,0.2,1.6c0.2-0.5,0.4-1,0.7-1.6c0.1-0.1,0.1-0.3,0.2-0.4c0.3-0.3,0.6-0.5,0.9-0.7
			c0.2,0.4,0.6,0.8,0.6,1.1c-0.1,1-0.3,2-0.6,3c-1,2.7-0.6,5,1.8,6.7c0.3,0.2,1,0.4,1.2,0.3c0.4-0.4,1.6-0.3,1.1-1.4
			c-0.1-0.4,0.2-1,0.3-1.5c0.4,0.4,0.7,0.9,1,1.4c0.2,0.4,0.2,1,0.4,1.4c1.2,2,1.2,2.8,4,2.3c2.4-0.4,4.8,0.1,6.1,2.7
			c0.4,0.7,0.8,1.4,1.2,2.1c3,5,4.2,10.6,6.3,16c1.4,3.6,2.8,7.1,4.2,10.7l1,1.9L220.7,99.4l0.2,0.3L220.7,99.4z M237.5,99.8
			L237.5,99.8l-0.5-1l-0.1-0.6l-0.2,0.1l0.3,0.6L237.5,99.8z M262.9,160.8L262.9,160.8c0-0.1,0-0.1,0-0.2c0,0-0.1-0.1-0.1-0.1
			L262.9,160.8z M142,168L142,168l-0.2-0.3L142,168z M59,171.8l-1,0.5l-6.7,1.4l-0.3,0.2l0.3-0.2l6.7-1.4L59,171.8l1-0.5
			c0.3,0,0.6-0.1,0.9-0.1c0.3-0.1,0.6-0.3,0.8-0.4c-0.3-0.1-0.7-0.1-1,0c-0.3,0.1-0.5,0.3-0.8,0.6L59,171.8z M191.4,34.6l-0.3,0.1
			L191.4,34.6c0.1,0,0.1,0,0.2,0c0,0,0.1-0.1,0.1-0.1L191.4,34.6z M274.9,77.3L274.9,77.3L274.9,77.3l0.6,0.3L274.9,77.3z
			 M176.5,62.9L176.5,62.9l-0.6-0.3L176.5,62.9z M198.6,52.3c-0.1,0.4-0.2,0.7-0.3,1.1l0.2,0.1L198.6,52.3L198.6,52.3L198.6,52.3z
			 M179.9,69.1l0.1,0.7l0.2-0.1L179.9,69.1l-0.2-1.1l-0.2,0.1C179.7,68.4,179.8,68.8,179.9,69.1z M20.6,135.4l0.7-0.8l-0.2-0.1
			L20.6,135.4L20.6,135.4L20.6,135.4z M270.1,74.4L270.1,74.4c0,0.2,0.1,0.4,0.2,0.6c0.2,0.2,0.3,0.4,0.5,0.6c0-0.3-0.1-0.5-0.2-0.8
			C270.5,74.7,270.3,74.6,270.1,74.4z M164.5,76.3l-1.4-0.9l-0.5-1.5c1.1,0.3,2.3,0.7,3.4,1c0.3,0,0.6,0,0.9,0
			c-0.1-0.3-0.3-0.5-0.5-0.8c-1.1-1.2-3.1-1.8-3.4-3.8c0-0.1-0.1-0.2-0.2-0.3c0,0.2-0.1,0.5-0.1,0.7c0,1.1-0.1,2.2-0.1,3.2
			c-1.6-1.2-1.4-2.9-1.5-4.5c0-0.3-0.1-0.6-0.2-0.8c-0.1,0.2-0.2,0.4-0.3,0.6c-0.8,2.6-0.4,5.5,1.2,7.7c0.8,1.3,1,0.1,1.2-0.6
			L164.5,76.3c0.2,0.2,0.4,0.4,0.7,0.6c0.1,0.1,0.4-0.1,0.6-0.2c-0.2-0.1-0.3-0.2-0.5-0.3C165,76.3,164.8,76.3,164.5,76.3z
			 M236,80.2L236,80.2c0,0.2,0,0.5,0.1,0.7c0.1,0.2,0.3,0.5,0.5,0.7c0-0.3-0.1-0.5-0.1-0.8C236.3,80.5,236.2,80.3,236,80.2z
			 M303.7,63.4c-0.2,0-0.4,0-0.7,0s-0.6,0.1-0.9,0.1c0.3,0.1,0.7,0.1,1,0.1C303.4,63.7,303.5,63.5,303.7,63.4c0.1,0,0.2,0,0.2,0
			c0.1,0,0.1-0.1,0.1-0.1L303.7,63.4z M224,66.7l0.9-0.6l-0.1-0.2C224.5,66.2,224.3,66.5,224,66.7c-0.2,0.3-0.3,0.3-0.4,0.5
			c0,0.3,0,0.5,0,0.8c0.1-0.2,0.3-0.4,0.4-0.7C224,67.2,224,67,224,66.7L224,66.7z M225,104.2L225,104.2L225,104.2
			c0-0.2,0-0.5-0.1-0.7c-0.2-0.2-0.5-0.3-0.8-0.5c0.1,0.3,0.2,0.5,0.3,0.7C224.6,103.9,224.8,104.1,225,104.2L225,104.2z M142,84.5
			L142,84.5c0-0.3,0-0.6-0.1-0.9c-0.1-0.2-0.2-0.3-0.4-0.5c-0.1,0.2-0.2,0.5-0.2,0.7S141.8,84.3,142,84.5L142,84.5z M49.9,115.7
			c0.1-0.6,0.3-1.2,0.4-1.8c0-0.1-0.2-0.2-0.2-0.2l-0.1,1.6C49.9,115.4,49.9,115.5,49.9,115.7L49.9,115.7z M196.7,108.1
			c0.1-0.2,0.1-0.5,0.1-0.7c0-0.3-0.1-0.6-0.2-0.8c-0.1,0-0.2,0-0.4,0.1c0,0.3,0,0.6,0.1,0.9C196.4,107.7,196.5,107.9,196.7,108.1
			c-0.1,0.3-0.1,0.6-0.2,0.9c-0.2,0.5-0.4,1-0.5,1.6c0.1,0,0.2,0.1,0.3,0.1c0.3-0.6,0.6-1.1,0.8-1.7
			C197.1,108.6,196.8,108.3,196.7,108.1z M243.2,80.2L243.2,80.2c0-0.2,0-0.5,0-0.7c0-0.5-0.1-1-0.1-1.5c-0.1,0-0.4,0-0.4,0.1
			c0,0.6,0,1.1,0,1.7C242.8,79.9,243.1,80.1,243.2,80.2L243.2,80.2z M264.4,122L264.4,122c-0.2-0.6-0.3-1.3-0.5-1.9
			c1.6,0,0.4-0.9,0.5-1.4l1.1-0.9l-0.9-1c0,0.5-0.1,0.9-0.1,1.4c0,0.1,0,0.3,0,0.5l-0.5,1.5l-1.1,0.7L264.4,122z M347.4,138.3
			c0-0.1,0-0.1,0-0.2c0,0-0.1-0.1-0.1-0.1L347.4,138.3c0.9,1.3,1.2-0.2,1.7-0.4c0.1-0.1,0.2-0.4,0.3-0.6c-0.5,0.2-1,0.3-1.4,0.5
			C347.7,137.9,347.5,138.1,347.4,138.3L347.4,138.3z M75.7,103.3c0-0.1,0-0.1-0.1-0.2c0,0-0.1-0.1-0.1-0.1L75.7,103.3
			c0.1,0.7,0.2,1.3,0.4,2c0.5,0.9,1.1,0.9,1.5-0.1l2,0.1l-1.1-1.4l-0.9-1.1c0-0.1,0-0.1,0-0.2c0,0-0.1-0.1-0.1-0.1l0.2,0.3v2.4
			L75.7,103.3z M71.4,164.2c-0.7,0.2-1.3,0.5-1.9,0.8c-0.2,0.1-0.3,0.5-0.4,0.8c0.3,0,0.7,0.1,0.8-0.1
			C70.5,165.3,71,164.8,71.4,164.2c0.1,0,0.1,0,0.2,0c0,0,0.1-0.1,0.1-0.1L71.4,164.2z M64.2,106.7c0-0.1-0.1-0.1-0.2-0.1
			c-0.1,0-0.1,0-0.2,0L64.2,106.7c1.1,3.8,2.1,4.4,4.8,2.4c1-0.3,2-0.7,3-1c3.5-1.1,3.6-1.5,1.8-4.6c-0.1-0.2-0.3-0.4-0.4-0.6
			c0,0.2-0.1,0.5-0.1,0.8l-0.3,1.9c-0.5-0.4-1-0.9-1.5-1.4c-0.2-0.4-0.4-0.9-0.5-1.3l-0.1-0.6l-0.2,0.1l0.3,0.6
			c-0.2,0.9-0.5,1.8-1.7,1.1c-0.2-0.1-0.4-0.1-0.6-0.1c0.1,0.3,0.1,0.6,0.2,0.8c0.4,0.4,0.8,0.8,1.3,1.1c-1.6,0.7-0.3,2.4-1.1,3.4
			L64.2,106.7z M360.3,159.8c0.9-0.6,0.7-1.2-0.1-1.6c-1.2-0.6-1.6,0.5-1.8,1.3c-0.1,0.4,0.1,1.4,0.4,1.5
			C359.6,161.3,360.6,161.3,360.3,159.8L360.3,159.8z M57,115.2c0.4-0.1,0.9-0.4,1.3-0.6c0.8-0.6,0.5-1-0.3-1.3h-1
			c-0.8-0.1-1.7-0.1-2.5,0c-0.4,0.1-1,0.8-1,1.1c0.2,0.7,0.8,0.9,1.4,0.3S56.6,114,57,115.2l-0.1,0L57,115.2z M166.5,62.4
			c-1.1,2-0.1,6.5,1.8,7.7c0.1,0.1,0.3,0.1,0.4,0.1c0-0.3,0.1-0.6-0.1-0.8C167.1,67.3,166.8,64.9,166.5,62.4L166.5,62.4z
			 M350.7,170.9c1-1.6,2-3.2,3-4.9c0.3-0.5,0.5-1.1,0.6-1.6c-0.4,0.4-0.8,0.8-1.2,1.1c-0.2,0.1-0.4,0.2-0.6,0.3
			c-0.6,0.6-1.3,1.1-2,1.5c-1.7,1,0.3,1.7,0.1,2.6C350.7,170.2,350.7,170.6,350.7,170.9L350.7,170.9z M271.6,104.2
			c-1.5,2.1-1.3,4.4-1,6.7c-0.2,0.7-0.3,1.3-0.4,2c0,0.3,0.3,0.6,0.5,0.9c0.1-0.3,0.2-0.6,0.2-0.9c-0.1-0.7-0.2-1.4-0.3-2.1
			C273,108.9,272.5,106.5,271.6,104.2c1.2-0.6,1-1.3,0.2-2.1c-0.4-0.3-0.8-0.6-1.3-0.8c0.2,0.6,0.5,1.1,0.7,1.7
			C271.4,103.4,271.5,103.8,271.6,104.2z M250.4,79.2L250.4,79.2c-0.2-1.6-0.4-3.2-0.7-4.9c-0.1-0.3-0.3-0.5-0.6-0.6
			c-0.3,0-0.6,0.1-0.8,0.4c-0.2,0.4-0.3,0.9-0.4,1.4C247.5,78.6,247.7,78.8,250.4,79.2L250.4,79.2z M264.9,147.8L264.9,147.8
			L264.9,147.8c0.1-0.8,0.6-1.3,0.6-2.4c-0.2-2.3-1.3-3.9-2.3-5.8c-0.1-0.2-0.2-0.3-0.3-0.4c-0.1,0.2-0.2,0.5-0.2,0.6
			C263.3,142.5,264.1,145.2,264.9,147.8z M47,116.7c-0.7-1.1-2.1-1.5-3.3-1c-0.4,0.1-0.8,0.4-0.9,0.7c-0.4,1.1-0.8,1.6-1.7,0.4
			c-0.1-0.2-0.6,0-0.9-0.1c0,0.5,0.1,1.1,0.4,1.6c0.3,0.3,0.8,0.4,1.2,0.2C43.4,118,45.2,117.3,47,116.7c0.7-0.2,1.8,0.2,1.3-1.2
			c-0.2-0.5-0.4-0.9-0.5-1.4c-0.2,0.6-0.3,1.3-0.5,1.9C47.1,116.2,47.1,116.4,47,116.7z M54.2,125.8L54.2,125.8L54.2,125.8
			c-0.2-1.8,1.2-3.5,0.2-5.3c-0.1-0.1,0.2-0.6,0.4-0.7c1.1-0.7,0.2-1.4,0-2c-0.1-0.3-0.7-0.4-1.1-0.6c-0.3,0.5-0.5,1.1-0.6,1.6
			c-0.2,0.9,0,1.9-0.3,2.8C52.3,123.1,52.9,124.8,54.2,125.8L54.2,125.8z M176.5,55.8l-1.5-3.2l-0.2,0.1
			C175.4,53.7,176,54.7,176.5,55.8l1.9,2.8l0.1,0.1l-0.1-0.1c0.5-0.3,1.1-0.6,1.7-0.8c1-0.2,1.4-0.4,0.6-1.5
			c-1.7-2.4-3.3-4.8-4.9-7.3l-0.5-0.8c-0.1,0.4-0.1,0.7,0,1.1c0.9,2,1.9,4,2.9,6c0.2,0.5,0.2,0.9,0.3,1.4c-0.4-0.1-0.8-0.3-1.2-0.5
			C177,56.1,176.8,55.9,176.5,55.8L176.5,55.8z M229.3,143.1c0,0.1,0,0.1,0.1,0.2c0,0.1,0.1,0.1,0.1,0.1L229.3,143.1
			c-0.1-1-2.8-2-0.1-3.2c0,0-0.1-0.5-0.2-0.6c-0.6-0.4-1.4-0.7-2.1-0.8c-0.3,0-0.8,1.1-0.7,1.6c0.5,3.1,1.1,6.1,1.7,9.1
			c0.1,0.2,0.1,0.5,0.2,0.7c0.1-0.2,0.1-0.4,0.2-0.7c-0.1-1.6-0.2-3.3-0.4-4.9C227.8,143.2,228,142.5,229.3,143.1z M172.2,66.8
			c0.2-0.6,0.5-1.1,0.7-1.7s0.2-1.4,0.4-1.4c1.7-0.2,0.7-0.9,0.3-1.5s-0.6-1.1-0.9-1.7c-0.1-0.3-0.4-0.5-0.5-0.7
			c-0.1,0.3-0.2,0.7-0.2,1s1.1,1.2-0.3,1.3c-2,0.1-2.7,1.1-2.1,2.9c0.1,0.6,0.1,1.3,0,1.9c0.1,0.9,0.3,1.9,0.5,2.9
			c0.4-0.1,1,0,1.2-0.3C171.6,68.5,171.9,67.7,172.2,66.8L172.2,66.8z M140.6,129.6c0,0.1,0,0.1,0,0.2c0,0.1,0.1,0.1,0.1,0.1
			L140.6,129.6c-0.2-0.6-0.2-1.5-0.6-1.7c-1.5-0.8-1.4-2.1-1.4-3.5c0-0.9-0.1-1.7-0.4-2.5c-0.6-2-1.3-4-1.9-6
			c-0.1-0.5-0.1-0.9,0.2-1.3c1.3-1.1,0.9-2.4,0.7-3.7l0,0c-0.2,0-0.5,0-0.7,0c-0.4-0.1-0.8-0.3-1.2-0.4c0.2-0.4,0.5-0.7,0.9-1
			c0.4-0.3,1.1-0.4,1.4-0.8c0.4-0.7,0.7-1.5,0.9-2.2c-0.5-0.2-1.1-0.3-1.6-0.4c-1.4-0.1-1.8-0.7-1-1.8c0.5-0.7,1.3-1.2,2.2-1.4
			c1.1-0.1,1.6,0.1,0.8-1.2c-0.2-0.6-0.3-1.1-0.4-1.7c-0.1-0.4-0.2-0.8-0.3-1.2c-0.3-0.9-0.5-1.7-0.9-2.5c-0.1-0.2-0.3-0.4-0.5-0.5
			c-1.6,1.3-3,2.8-3.1,5.1c-0.1,3.9-0.2,7.8-0.4,11.6c-0.1,0.9-0.6,1.8-1.2,2.4c-2.8,3.5-5.6,6.9-8.4,10.3c-0.8,0.9-1.6,1.8-2.3,2.7
			c-0.1,0.1-0.1,0.4-0.1,0.6c0.2-0.1,0.5-0.1,0.6-0.3c0.6-1,1.2-2,1.9-3c3.4-1.3,6.1-3.9,7.5-7.2c0.5-0.8,1.1-1.5,1.9-2
			c0.8-0.6,1.5-0.2,1.8,0.7c0.5,1.5,1.2,3,1.6,4.5c0.9,3.5,1.7,7.1,2.7,10.6c0.3,0.8,0.7,1.6,1.2,2.3c0.1,0,0.3-0.1,0.4-0.1
			c-0.2-0.8-0.4-1.6-0.7-2.4C139.8,130.9,139.2,130.1,140.6,129.6L140.6,129.6z M196.7,245.7L196.7,245.7c0.1-0.2,0.3-0.5,0.4-0.5
			c1.3-0.2,2.8-0.2,2.7-2.2c0-0.1,0.4-0.4,0.5-0.3c0.9,0.5,2.1,1,2.4,1.7c1.2,2.6,2.1,5.3,3.2,8c0.2,0.4,0.4,0.9,0.6,1.3
			c0-0.5,0-1-0.1-1.6c-1-3.9-2-7.7-3-11.6l0,0c0.1-0.7,0.5-1.6,0.2-2c-0.8-1-1.3-2.3-1.4-3.6c-0.1-0.5-0.6-0.9-0.9-1.3
			c0.5-0.1,1-0.2,1.5-0.3c0.1-0.1,0.2-0.2,0.2-0.3c-0.4-2.3,1.1-4.2,1.4-6.3l0.1-0.1l-0.1,0.1c-0.7-0.1-1.8,0.2-1.3-1.2
			c0-0.1-0.3-0.5-0.4-0.5c-1.8,0.1-1.6-0.7-1-1.9c0.4-0.8,0.8-2.2,0.4-2.7c-1.6-2-0.8-3.9-0.3-5.9c0.2-0.9,0.6-1.8-0.4-2.6
			c-0.3-0.3-0.1-2,0.1-2c2-0.4,1.5-1.9,1.3-3c-0.2-1.5-0.6-2.9-0.9-4.4c-0.2-0.8-0.7-2-0.4-2.5c1.3-1.7,0.9-3.7,1.4-5.5
			c0.4-1.3,0.5-2.3-0.7-3.4c-0.9-0.6-1.1-1.8-0.4-2.7c0.2-0.2,0.3-0.4,0.6-0.5c1.2-1.1,1.4-2.8,0.6-4.2c-0.6-0.8-0.5-2,0.4-2.7
			c0.1-0.1,0.2-0.1,0.3-0.2c0.2-0.1,0.2-0.5,0.2-0.8c0-1.1-0.1-2.1-0.1-3.2c-0.1-0.6-0.2-1.3-0.3-1.9l0,0c-0.1-0.6,2.5-1.3-0.1-1.8
			c0.1-0.3,0.1-0.9,0.3-1c1.9-1,3.8-1.9,5.7-2.8c0.4-0.2,0.7-0.5,0.9-0.9c0.3-0.9,0.5-1.8,0.6-2.7c0-0.2,0-0.4,0-0.7
			c-0.2,0.1-0.4,0.2-0.5,0.3c-0.1,0.1-0.2,0.2-0.3,0.4c-0.4,0.9-0.9,1.7-1.5,2.4c-0.6,0.4-1.8-0.7-2.4,0.6c-0.3-0.1-0.7-0.3-0.8-0.4
			c-0.1-0.7-0.2-1.5-0.2-2.3c0-0.4,0.3-1,0.1-1.3c-1.7-2-1.2-4,0-6c0.2-0.4,0.3-0.9,0.3-1.3c0-2.2-1.4-3.6-3.1-4.7
			c-0.2-0.1-0.4-0.2-0.6-0.2c0,0.2-0.1,0.5,0.1,0.6c1.6,1.4,0,3.2,0.7,4.7c0.1,0.2-0.3,0.8-0.6,0.9c-0.8,0.3-1.6,0.6-2.4,0.9
			l-0.1-0.1c-0.1-0.2-0.3-0.5-0.5-0.5c-0.5-0.1-1-0.2-1.5-0.3c0.2,0.4,0.3,0.8,0.3,1.3c-0.1,0.9-0.3,1.7-0.5,2.6
			c-0.3,0.7-0.5,1.4-0.6,2.1c0.2,1.2,0.4,2.4,0.7,3.6c0.2,1.3,0.4,2.6,0.6,4c0.1,0.3,0.2,0.6,0.4,0.8c0.1-0.3,0.2-0.6,0.2-0.8
			c-0.2-0.9-0.3-1.9-0.4-2.8c0.1-0.7,0.3-1.3,0.7-1.9c0.4,0.5,1.2,0.9,1.2,1.4c0.2,2,0.2,3.9,0.3,5.9c0,1.1-0.5,2.6,0,3.2
			c1.1,1.3,0.8,2.1,0,3.3c-0.4,0.5-0.2,1.4-0.3,2.1c-0.3,1.6-0.5,3.3-0.9,4.9c-0.5,2.2-1.6,4.2-0.3,6.5c0.1,0.3,0.2,0.6,0.1,0.9
			c-0.1,4.9-0.4,9.7-0.4,14.6c0,3.7,0.2,7.3,0.4,11c0.1,2,0.3,4,0.4,6c0,1.1,0.1,2.2,0.2,3.3c0.8,4.6,0.5,9-2.3,13.1
			C197.1,244.3,196.8,245,196.7,245.7z M281.5,65.2c0-0.2-0.1-0.3-0.1-0.5c0.1-0.5,0.3-1,0.5-1.4c0.3,0.4,0.6,0.7,0.9,1.1
			c0.2,0.4,0.4,0.9,0.6,1.2c0.2,0.2,0.5,0.2,0.8,0.4c-0.1-0.3-0.1-0.5-0.1-0.8c-0.1-0.8-0.1-1.5,0-2.3c1.9-0.4,3.9-0.7,5.8-0.9
			c0.2,0.4,0.3,0.8,0.2,1.2c-0.1,0.3-0.6,0.4-1,0.6c-0.2,0.2-0.4,0.3-0.5,0.5c0.2,0.1,0.5,0.1,0.7,0.1c0.7-0.1,1.6,0.1,2.1-0.3
			c0.6-0.5,1-1.2,1.1-1.9c0-0.3-0.8-1-1.2-1c-1,0.1-2.1-0.4-2.6-1.3c-0.4-0.5-1-0.7-1.6-0.8c-4.2-0.6-7.7,0.9-10.5,3.9
			c-1.5,1.5-2.5,3.5-4,5.1c-2.7,3,0.1,7,3.2,8.1c0.5,0.2,1.3,0.4,1-0.9s-0.7-3.5,0-4.2c1.3-1.2,0.4-2.2,0.5-3.3c0-0.6,0-1.3,0-1.9
			c0.7,0.1,1.4,0.1,2,0.2c0.1,0,0.3,0.2,0.4,0.2C281.4,67.2,281.6,67.1,281.5,65.2z M147.8,87.7c1.1-0.6,2.5-0.9,3.3-1.7
			c2-2,4.4-2.8,6.9-3.6c1.9-0.8,3.8-1.7,5.5-2.8c0.2-0.1,0.3-0.4,0.4-0.5c-0.2,0-0.4,0-0.7,0c-0.7,0.3-1.5,0.5-2.3,0.7
			c-0.4,0.1-0.9-0.3-1.4-0.4c0.2-0.3,0.4-0.7,0.6-1c0.2-0.3,0.3-0.7,0.2-1c-0.4-1.5-0.9-3-1.4-4.5c-0.1-0.3-0.2-0.6-0.3-0.9
			c-0.1,0.3-0.2,0.7-0.3,1c-0.2,0.9-0.6,1.6-1.6,0.6c-0.7-0.8-0.6-0.1-0.8,0.4c-0.2,0.4-0.4,0.8-0.6,1.1c-0.3-0.3-0.6-0.6-0.9-1
			s-0.6-0.8-0.8-1.2c-0.5,0.5-1.4,0.9-1.4,1.4c0.2,2.6-2.1,3.9-3,5.9c-0.1,0.3-0.9,0.7-1,0.6c-2.1-1.3-1.3,0.6-1.4,1.3
			c-0.2,1.1,0.9,2.3-0.3,3.4c-0.3,0.4-0.4,0.9-0.2,1.4C146.5,87.2,147.1,87.3,147.8,87.7L147.8,87.7z M206.4,123.5l-0.2,0.4
			c-0.3,0-0.7,0-1,0c-0.2,0.1-0.4,0.1-0.6,0.2c0.1,0.1,0.1,0.3,0.3,0.4c2.4,1.6,4.7,3.4,7.2,4.7c2.8,1.4,5.7,2.7,8.6,3.8
			c1.9,0.7,3.9,2,5.6-0.3c0.1-0.1,0.1-0.1,0.2-0.1l1.4-1c-0.6,0-1.3,0-1.9,0.1c-0.4,0.1-0.7,0.7-1.2,0.7c-1.1,0.2-2.3,0.3-3.4,0.3
			c-0.2-0.4-0.3-0.8-0.2-1.2c0.1-0.2,0.7-0.3,1.1-0.4c-0.4-0.2-0.9-0.4-1.3-0.5c-0.6-0.2-1.2-0.2-1.9-0.4c-3.5-0.9-6.7-2.5-9.4-4.7
			C208.7,124.6,207.6,124,206.4,123.5L206.4,123.5z M194.4,164.4c-1.1,0.9-2.2,1.9-3.1,3c-0.3,0.4,0.2,1.5,0.6,2.1
			c0.1,0.2,1.1-0.1,1.7-0.3s1.6-0.6,1.8-1.1c0.3-0.8,0.3-1.7,0.2-2.6C195.5,165.2,194.9,164.8,194.4,164.4L194.4,164.4z
			 M164.1,150.1c-0.6-0.6-1.2-1.2-1.8-1.7c-0.7-0.5-1.4-0.9-2.2-1.3c0.3,0.9,0.6,1.9,1,2.8c0.3,0.5,0.7,0.9,1.1,1.2
			c0.3,0.2,0.9,0.6,1,0.4C163.6,151.1,163.9,150.6,164.1,150.1z M162.4,144c-0.4,0.6-0.9,1.1-0.9,1.5c0,0.9,2,2.7,2.8,2.4
			c0.5-0.3,0.9-0.8,1.1-1.4C164.6,145.6,163.6,144.9,162.4,144L162.4,144z M194.4,158.7c-0.2-1.1-0.4-2.3-0.7-3.4
			c0-0.2-0.3-0.3-0.5-0.5c0,0.2-0.1,0.4-0.1,0.6s0.1,0.2,0.1,0.2c-0.1,1.8,1.6,4.1-1.3,5.3c0,0.4,0.1,0.8,0.4,1.2
			c0.1,0.1,0.7,0.1,1-0.1C194.7,161.3,194.5,160.1,194.4,158.7L194.4,158.7z M54.3,142.4c0.4,0,0.6,0.2,0.8,0.1
			c0.9-0.4,1.6-1,2.3-1.6c0.3-0.4,0.1-1.3-0.2-1.8c-0.1-0.2-1.2-0.3-1.3-0.1C55.4,140.1,54.8,141.2,54.3,142.4L54.3,142.4z
			 M55.4,129.5c-0.4,0.7-0.7,1-0.6,1.3c0.4,1.9,0.9,3.8,1.4,5.7c0,0.1,0.2,0.2,0.3,0.3c0.1-0.2,0.3-0.4,0.2-0.6
			c-0.2-1.7-0.4-3.5-0.7-5.2C55.9,130.5,55.7,130,55.4,129.5L55.4,129.5z M91.3,146.5c-0.5-0.1-1-0.4-1.2-0.2c-0.7,0.6-1.4,1.3-2,2
			c-0.5,0.5-0.9,1-1.4,1.5l1.8-0.8c0.3-0.1,0.6-0.5,0.9-0.4C91.2,149.3,90.7,147.6,91.3,146.5L91.3,146.5z M167.9,71.2
			c-0.1-0.2-0.2-0.3-0.3-0.4c-0.9-0.8-1.8-1.5-2.7-2.2c-0.1-0.1-0.4,0.1-0.7,0.2c0.2,0.9,0.6,1.7,1.1,2.5c0.4,0.4,1.4,0.3,2.1,0.4
			C167.5,71.5,167.7,71.3,167.9,71.2z M145.6,82.2l-0.2-0.1c0.1-0.4,0.1-0.8,0-1.2c-0.2-0.5-0.4-0.9-0.6-1.3
			c-0.3,0.4-0.5,0.7-0.7,1.1c-0.2,0.4-0.2,0.8-0.2,1.2c0.2,0.9,0.6,1.7,0.9,2.6L145.6,82.2z M62.1,113.6c0.7-0.7,1.4-1.4,2-2.2
			c0-0.1-0.7-1-1-0.9c-0.7,0.1-1.4,0.4-1.9,0.9C61,111.7,61.6,112.5,62.1,113.6L62.1,113.6z M261.5,130.2c0.2,0.3,0.4,0.9,0.7,1.5
			c0.2-0.6,0.4-1.1,0.5-1.7c0.1-0.4,0.1-0.8,0-1.2c0-0.3-0.1-0.6-0.2-0.9c-0.2,0.2-0.6,0.3-0.7,0.5
			C261.7,129.1,261.6,129.6,261.5,130.2z M49.2,174.5c-0.3,0-0.5-0.1-0.6-0.1c-1.3,0.5-2.6,1.1-3.9,1.6c-0.1,0.1-0.2,0.3-0.3,0.5
			c0.1,0.1,0.3,0.2,0.4,0.2c1.4-0.7,2.8-1.3,4.2-2C49,174.8,49.1,174.7,49.2,174.5z M163.6,142.3c-0.2,0.1-0.4,0.1-0.5,0.2
			c0,0.1,0,0.3,0.1,0.4c1,0.7,2.1,1.4,3.2,2.1c0.1,0.1,0.4-0.1,0.6-0.2s0-0.4-0.1-0.4C165.7,143.7,164.6,143,163.6,142.3z
			 M230.2,137.6l-0.3,0.2c0.1,0.2,0.2,0.4,0.4,0.6c0.6,0.6,1.2,1.3,1.8,1.9c0.1,0.1,0.1,0.3,0.2,0.4c0.1-0.2,0.3-0.3,0.4-0.5
			C233.2,139.1,231.8,137.6,230.2,137.6z M36.1,118.6c-0.4,0.6-0.9,1-0.9,1.3c0.2,0.5,0.5,0.9,0.9,1.1c0.1,0.1,0.8-0.4,0.8-0.6
			C36.7,119.9,36.4,119.3,36.1,118.6L36.1,118.6z M177.3,60.1c-0.7-1.2-1.5-2.4-2.2-3.6c0,0-0.3,0.1-0.3,0.1c0,0.2,0,0.3,0.1,0.4
			c0.6,1,1.2,2,1.8,3.1c0.1,0.1,0.2,0.2,0.3,0.3C177,60.4,177.1,60.2,177.3,60.1z M75,160.7c0.6-0.5,1.1-0.8,1.6-1.2
			c-0.1-0.2-0.2-0.3-0.3-0.4c-0.5,0.3-1.1,0.6-1.6,0.9C74.8,160.2,74.9,160.5,75,160.7z M38.2,117.8c-0.1,0.2-0.3,0.5-0.2,0.6
			c0.4,0.5,0.8,1,1.2,1.5c0,0,0.3-0.2,0.5-0.3L38.2,117.8z M307.2,87.8l-0.5-0.9c-0.1,0.2-0.4,0.4-0.4,0.6c0.1,0.7,0.3,1.3,0.5,2
			L307.2,87.8z M183.8,65.5l-0.6-1.3c-0.2,0.4-0.3,0.8-0.3,1.2c0.1,0.4,0.2,0.7,0.4,1L183.8,65.5z M322.5,141.1l-0.7-1.3
			c-0.1,0.2-0.3,0.4-0.2,0.6c0.1,0.6,0.3,1.2,0.5,1.8L322.5,141.1z M65.3,168.6l1-0.9c-0.1-0.1-0.4-0.4-0.4-0.4
			c-0.3,0.2-0.6,0.4-0.9,0.7C65,168,65.1,168.3,65.3,168.6L65.3,168.6z M183.2,73.5l0.3,0.1c0.2-0.4,0.4-0.8,0.5-1.2
			c0-0.2,0-0.4-0.1-0.6c-0.2,0.4-0.5,0.8-0.7,1.2C183.1,73.1,183.1,73.3,183.2,73.5L183.2,73.5z M139.4,85.6
			c-0.3-0.2-0.5-0.5-0.7-0.5c-0.3,0.1-0.5,0.2-0.8,0.4c0.1,0.2,0.3,0.5,0.4,0.4C138.8,85.9,139.1,85.8,139.4,85.6L139.4,85.6z
			 M102.3,94.3l-0.1-0.5c-0.6,0.2-1.2,0.4-1.7,0.7c0,0,0,0.2,0,0.4L102.3,94.3z M79.8,100.8c-0.1,0.5-0.2,0.8-0.1,0.9
			c0.2,0.5,0.5,0.9,0.8,1.4c0.1-0.1,0.2-0.2,0.2-0.3C80.5,102.2,80.2,101.6,79.8,100.8L79.8,100.8z M262.8,122.6l-0.5,0.3l1.1,0.8
			c0.1-0.1,0.3-0.4,0.2-0.4C263.4,123.1,263,122.8,262.8,122.6z M235.3,168.5l-1-1c-0.1,0.1-0.3,0.4-0.2,0.4c0.3,0.3,0.7,0.6,1,0.9
			L235.3,168.5z M167.6,140.1c-0.3-0.3-0.6-0.6-1-0.8c0,0-0.2,0.2-0.4,0.4c0.3,0.3,0.5,0.5,0.8,0.7
			C167,140.4,167.3,140.2,167.6,140.1z M173.9,58.8c0,0.7-0.1,0.9,0,1.1c0.2,0.4,0.5,0.7,0.8,1.1c0-0.2,0.1-0.4,0.1-0.6
			C174.5,59.8,174.2,59.3,173.9,58.8z M272.6,96.5c-0.4-0.1-0.6-0.3-0.8-0.3c-0.2,0.1-0.4,0.2-0.6,0.3c0.2,0.1,0.4,0.2,0.6,0.3
			C272.1,96.9,272.3,96.7,272.6,96.5L272.6,96.5z M182.8,70.5l-0.2-0.7c-0.2,0.2-0.4,0.4-0.5,0.6s0.2,0.4,0.3,0.5L182.8,70.5z
			 M196.7,150.9c-0.3-0.1-0.6-0.2-0.9-0.2c0,0-0.1,0.2-0.2,0.3c0.3,0.1,0.5,0.2,0.8,0.3C196.4,151.4,196.6,151.2,196.7,150.9
			L196.7,150.9z M181.6,73.2c-0.3-0.4-0.5-0.7-0.9-1.1c-0.1-0.1-0.3,0.1-0.5,0.2c0.1,0.3,0.3,0.5,0.5,0.7
			C180.9,73.1,181.1,73.1,181.6,73.2L181.6,73.2z M196.1,104.5l-0.5-0.5c-0.1,0.2-0.4,0.3-0.4,0.5s0.1,0.4,0.2,0.6L196.1,104.5z
			 M262.7,133.8c-0.2,0-0.4-0.1-0.6-0.1c-0.2,0.1-0.3,0.3-0.4,0.5c0,0.1,0.1,0.3,0.2,0.5L262.7,133.8z M263.5,126
			c-0.2-0.2-0.4-0.4-0.6-0.5c-0.1,0-0.3,0.1-0.4,0.1c0.1,0.2,0.1,0.5,0.2,0.5S263.1,126.1,263.5,126L263.5,126z M268.9,112.9
			l-0.4-0.8c-0.1,0.1-0.2,0.2-0.2,0.3c0.1,0.3,0.2,0.6,0.3,0.8L268.9,112.9z M241.9,106.1c-0.2-0.2-0.5-0.4-0.7-0.6
			c0,0-0.2,0.1-0.3,0.2c0.2,0.2,0.4,0.4,0.6,0.6C241.5,106.3,241.7,106.1,241.9,106.1z M314.4,95.9l-0.4-0.1c0,0.1,0,0.3,0,0.4
			c0,0,0.2,0.1,0.2,0.1C314.2,96.1,314.3,96,314.4,95.9L314.4,95.9z M316,98.2l-0.2-0.4c-0.1,0.1-0.3,0.1-0.3,0.2
			c0,0.1,0.1,0.2,0.2,0.4L316,98.2z M272.3,100.1l-0.2,0.3c0.1,0.1,0.2,0.2,0.4,0.2s0.1-0.2,0.2-0.3L272.3,100.1z M60,111.5
			c-0.1,0.1-0.3,0.1-0.3,0.2c0,0.2,0,0.3,0.1,0.4c0.1,0.1,0.2,0,0.4,0L60,111.5z M138.7,117.1c-0.1,0.1-0.3,0.1-0.3,0.2
			s0.1,0.2,0.1,0.4c0.1-0.1,0.3-0.1,0.3-0.2S138.7,117.1,138.7,117.1z M107.9,230.8l-0.5-0.3c-0.1,0.1-0.1,0.3-0.1,0.4
			c0,0.1,0.2,0.2,0.3,0.3L107.9,230.8z M186.4,127l-0.3-0.2c0,0.1-0.1,0.3-0.1,0.4s0.2,0.1,0.3,0.2
			C186.2,127.2,186.3,127.1,186.4,127L186.4,127z M258.1,144.6c0-0.1,0-0.3-0.1-0.4c-0.2,0-0.3,0-0.5,0c0.1,0.1,0.1,0.3,0.2,0.4
			C257.9,144.6,258,144.6,258.1,144.6L258.1,144.6z M196.8,147.3c-0.1-0.1-0.2-0.1-0.3-0.1c-0.1,0-0.2,0.1-0.2,0.1
			c0.1,0.1,0.1,0.2,0.2,0.3L196.8,147.3z M195,247.8l-0.3,0.2c0.1,0.1,0.2,0.1,0.3,0.2c0.1,0,0.2-0.1,0.2-0.1
			C195.1,248,195,247.9,195,247.8L195,247.8z M204.1,200.2c0-0.1,0-0.1-0.1-0.2s-0.1,0-0.2,0l0.1,0.2L204.1,200.2z M67.5,106.2
			l-0.4-0.2l-0.1,0.2l0.4,0.2C67.4,106.4,67.5,106.3,67.5,106.2L67.5,106.2z M22.6,133.6l-0.3,0.3c0,0,0.1,0.1,0.1,0.1
			c0.1,0,0.2-0.1,0.4-0.1L22.6,133.6z M321.1,132.2c0,0.1,0,0.3,0,0.4c0,0,0.1,0,0.1,0c0-0.1,0-0.3,0-0.4
			C321.3,132.2,321.2,132.2,321.1,132.2z M321.8,128l-0.2-0.3c-0.1,0.1-0.1,0.2-0.2,0.3c0,0,0.1,0.2,0.1,0.2
			C321.6,128.1,321.7,128,321.8,128z M82.2,154.2c-0.1,0-0.2,0-0.4,0c0,0-0.1,0.1-0.1,0.2c0.1,0.1,0.2,0.2,0.2,0.2L82.2,154.2z
			 M205.6,230.7v-0.4c-0.1,0-0.2,0-0.3,0c0,0,0,0.2,0,0.2C205.4,230.6,205.5,230.7,205.6,230.7z M184.1,70.3
			c0.1-0.1,0.1-0.2,0.1-0.3c0,0-0.1-0.2-0.1-0.2s-0.2,0.1-0.3,0.1L184.1,70.3z M203.6,121.5v0.3c0,0,0.1-0.1,0.1-0.1
			S203.7,121.6,203.6,121.5L203.6,121.5z M276.3,79.2l0.2,0.1c0-0.1,0.1-0.1,0.1-0.2c0,0-0.1-0.1-0.2-0.1L276.3,79.2z M184.7,6.1
			l0.1,0.3c0,0,0.1-0.1,0.1-0.2S184.8,6.1,184.7,6.1z M108.7,223.7c0,0-0.1,0.1-0.1,0.2c0,0.1,0,0.1,0.1,0.2s0.1-0.1,0.1-0.2
			C108.8,223.9,108.7,223.8,108.7,223.7L108.7,223.7z M156.3,71.3l0.2,0.3c0-0.1,0.1-0.1,0.1-0.2S156.5,71.3,156.3,71.3z
			 M285.3,64.4v0.3c0-0.1,0.1-0.1,0.1-0.1S285.3,64.5,285.3,64.4z M324.2,110.3c0-0.1,0-0.1,0-0.2c0,0-0.1,0-0.2,0
			c-0.1,0,0,0.1,0,0.2S324.1,110.3,324.2,110.3z M199,29l-0.3,0.1l0.1,0.2L199,29z M176.3,132.4c0-0.1,0.1-0.1,0.1-0.2
			s-0.1-0.1-0.1-0.2s-0.1,0.1-0.1,0.2S176.3,132.3,176.3,132.4z M182.3,84.3l-0.1-0.3c0,0.1-0.1,0.1-0.1,0.2S182.2,84.2,182.3,84.3
			L182.3,84.3z M103.4,152.3v0.3c0-0.1,0.1-0.1,0.1-0.1C103.5,152.4,103.4,152.3,103.4,152.3L103.4,152.3z M348.6,175.5l0.1-0.2
			h-0.1L348.6,175.5z M235.7,139.3l-0.1-0.3c0,0.1-0.1,0.1-0.1,0.2S235.6,139.2,235.7,139.3L235.7,139.3z M201.3,43.5l-0.1-0.2
			c0,0.1-0.1,0.1-0.1,0.2s0.1,0.1,0.1,0.2L201.3,43.5z M192.2,143.9v-0.2l-0.1,0.2L192.2,143.9z"/>
		<path d="M162.6,204.5c0.4-0.9,0.9-1.9,1.3-2.8s0.5-1.7,0.9-2.5c0.3-0.4,0.7-0.8,1.1-1.1c0.4,0.4,0.7,0.8,1,1.2
			c0.4,0.8,0.6,1.7,0.9,2.5c0.4,1,0.9,1.8-1,1.6c-0.5-0.1-1.2,1.4-1.8,2.3c-1.4,2.5-2.8,5-4.2,7.4c-0.5,0.8-1.1,1.8-2.2,1.1
			c-1.1-0.5-1.5-1.8-1-2.8c0,0,0,0,0-0.1c0.9-1.8,1.9-3.5,2.8-5.3c1.9-3.9,2.7-8.2,2.3-12.5c-0.1-3.1,0.2-6.2-1.3-9.1
			c-1.2-2.3-2.3-4.7-3.6-7c-2.1-3.8-3-7.9-3.8-12.1c0-0.8,0.1-1.6,0.5-2.3c0.1-0.3,0.6-0.6,1-0.8c0.2,0.4,0.3,0.8,0.4,1.2
			c-0.2,4.2,0.8,8.4,2.8,12.1c1.3,2.6,2.8,5.2,4.1,7.9c1.5,3.3,2,6.9,1.4,10.5C163.7,197.4,163.2,200.9,162.6,204.5
			c-0.2,0.1-0.3,0.3-0.4,0.5c-0.1,0.3-0.1,0.5-0.1,0.8c0.2-0.2,0.3-0.4,0.5-0.6C162.6,204.9,162.6,204.7,162.6,204.5z"/>
		<path d="M169.8,206.1l0.9,0.7c1.2,0.9,2.4,1.7,3.5,2.7c0.3,0.4,0.6,0.8,0.7,1.3c-0.4,0.1-0.9,0.4-1.3,0.2c-1.8-0.6-3.3-2-4.1-3.7
			C169.4,207,169.7,206.6,169.8,206.1z"/>
		<path d="M340.7,130.1l3.7-2l0.2,0.3c0.3,0.8,0.5,1.6,0.8,2.5c0.3,0.8,0.2,1.3-0.8,1c-1.1-0.3-2-0.5-2.9-0.7l0,0l-0.4-0.4l-0.2-0.2
			L340.7,130.1L340.7,130.1z"/>
		<path d="M97.9,131.1c0.2-0.1,0.4-0.3,0.5-0.4l1.2-1.2c0.1,0.4,0.4,0.9,0.2,1.3c-0.4,0.6-0.8,1.2-1.3,1.7L97.9,131.1z"/>
		<path d="M61,194.1l-0.7,0.9c-0.2-0.4-0.7-0.7-0.7-1.1s0.4-0.7,0.6-1L61,194.1z"/>
		<path d="M159.3,171l-1.2,1c-0.2-0.3-0.5-0.6-0.5-0.9c0.1-0.4,0.4-0.6,0.7-0.8C158.5,170.2,158.9,170.6,159.3,171z"/>
		<path d="M103.1,115.8l-0.5,0.4c-0.1-0.2-0.2-0.5-0.3-0.7c0-0.1,0.4-0.3,0.5-0.2S103,115.6,103.1,115.8z"/>
		<path d="M102,121.4l-0.5,0.6c-0.2-0.1-0.3-0.2-0.4-0.4c0,0,0.1-0.3,0.2-0.3C101.6,121.3,101.8,121.3,102,121.4z"/>
		<path d="M102.6,118.3l-0.3,0.4c-0.2-0.1-0.3-0.2-0.4-0.4c0,0,0.2-0.3,0.2-0.3C102.2,118.1,102.4,118.1,102.6,118.3z"/>
		<path d="M106.7,186.1l-0.7,0.4c-0.1-0.2-0.2-0.3-0.2-0.5c0-0.1,0.2-0.3,0.3-0.2C106.4,185.8,106.6,185.9,106.7,186.1z"/>
		<path d="M158.9,155.4l0.3-0.5c0.2,0.2,0.4,0.4,0.5,0.6c0,0.1-0.1,0.3-0.2,0.4L158.9,155.4z"/>
		<path d="M8.2,155.4c0.3,0.2,0.7,0.3,1,0.5c0,0-0.1,0.3-0.1,0.4l-1-0.7L8.2,155.4z"/>
		<path d="M157.7,168.7c-0.1,0.1-0.2,0.2-0.3,0.2s-0.2-0.2-0.3-0.3l0.4-0.3C157.6,168.4,157.6,168.6,157.7,168.7z"/>
		<path d="M112.9,184.9c0.1,0.2,0.2,0.3,0.3,0.5c0,0-0.3,0.2-0.3,0.2c-0.1-0.1-0.3-0.3-0.4-0.5L112.9,184.9z"/>
		<path d="M258.1,148.3l-0.5,0.9l-0.2-0.1L258.1,148.3L258.1,148.3z"/>
		<path d="M97.2,99.8c0.1,0,0.1-0.1,0.2-0.1s0.1,0.1,0.1,0.1l-0.3,0.1L97.2,99.8z"/>
		<path d="M192.4,187.4c-0.1-0.1-0.1-0.2-0.2-0.3c0,0,0.1-0.1,0.1-0.1c0.1,0.1,0.2,0.2,0.2,0.3L192.4,187.4z"/>
		<path d="M106.9,219.8l-0.3,0.6l-0.2-0.2L106.9,219.8L106.9,219.8z"/>
		<path d="M120.9,136.9l-0.1,0.2c-0.1,0-0.2-0.1-0.2-0.1s0-0.1,0.1-0.2L120.9,136.9z"/>
		<path d="M95.9,100.1c0,0.1,0.1,0.1,0,0.2s-0.1,0-0.2,0.1s-0.1-0.1,0-0.2S95.9,100.1,95.9,100.1z"/>
		<path d="M158.8,153.6L158.8,153.6z"/>
		<path d="M124.7,179.1L124.7,179.1z"/>
		<path d="M218.8,290.4L218.8,290.4z"/>
		<path d="M8.1,133.9c0.4-0.1,0.8-0.2,1.2-0.2c0.6,0.1,1.3,0.2,1.9,0.3c-0.4,0.4-0.9,0.7-1.5,1c-1.4,0.5-2.7,0.8-4.1,1.1
			c-0.4,0-0.9-0.1-1.3-0.3c0.3-0.3,0.6-0.6,0.9-0.9c0.5-0.3,1-0.5,1.5-0.6l0,0L8.1,133.9L8.1,133.9z"/>
		<path d="M16.9,131.9c-0.1,0.2-0.2,0.4-0.4,0.5c-0.4,0.2-0.9,0.4-1.3,0.5c-0.9,0.2-1.9,0.4-2.8,0.7c0.1-0.2,0.1-0.6,0.2-0.6
			c1.3-0.5,2.6-0.9,3.9-1.4C16.6,131.5,16.7,131.8,16.9,131.9z"/>
		<path d="M47.3,97.1l1.2,0.4c-0.4,0.3-0.9,0.5-1.4,0.7c-0.2,0-0.5-0.3-0.7-0.4L47.3,97.1z"/>
		<path d="M40.2,113.3l-0.6-0.5l0.1-0.1L40.2,113.3L40.2,113.3z"/>
		<path d="M245.2,113.5c-0.3,0.2-0.6,0.4-0.9,0.6c-0.5-0.5-1-1.1-1.4-1.7c-0.1-0.1,0.2-0.4,0.4-0.7L245.2,113.5z"/>
		<path d="M241.4,76.1c-0.4,0.2-0.7,0.5-0.8,0.4c-0.3-0.2-0.4-0.4-0.5-0.7c0-0.2,0.3-0.4,0.5-0.5L241.4,76.1z"/>
		<path d="M271.3,92.2c-0.2-0.2-0.3-0.5-0.4-0.8c0-0.1,0.3-0.3,0.4-0.4c0.2,0.2,0.4,0.4,0.5,0.6C271.9,91.6,271.5,91.9,271.3,92.2z"
			/>
		<path d="M187.6,59.5c-0.1,1.8-0.3,3.6-0.5,5.4c0,0.3-0.4,0.5-0.6,0.8c-0.2-0.3-0.3-0.5-0.4-0.8c-0.1-1.2-0.2-2.4-0.3-3.6
			S186.2,59.5,187.6,59.5L187.6,59.5z"/>
		<path d="M192.1,46c-1.1,0.4-1.9,0.7-2.6,0.9c-0.1,0-0.4-0.4-0.6-0.5c0.7-0.4,1.4-0.8,2.1-1.1C191.1,45.2,191.4,45.5,192.1,46z"/>
		<path d="M189.3,43.9c-0.2,0.2-0.2,0.5-0.4,0.6c-0.7,0.2-1.3,0.4-2,0.5c-0.3,0-0.6-0.2-0.7-0.5c0-0.3,0.2-0.5,0.4-0.7
			c0.7-0.1,1.4-0.2,2.1-0.2C188.9,43.6,189,43.8,189.3,43.9z"/>
		<path d="M185.5,30.9c-0.5-0.1-1-0.2-1.5-0.4c-0.2-0.1-0.3-0.5-0.5-0.7c0.3-0.1,0.5-0.3,0.8-0.3c0.4,0,0.8,0.1,1.1,0.2
			c0.4,0.2,0.7,0.4,1.1,0.6L185.5,30.9z"/>
		<path d="M180.7,50c-0.3,0.2-0.6,0.4-0.9,0.6c-0.5-0.5-1-1.1-1.4-1.7c0-0.1,0.2-0.3,0.3-0.5L180.7,50z"/>
		<path d="M178.4,37.5l-0.5-2.4l1.8,1.6L178.4,37.5z"/>
		<path d="M180.1,42.4c-0.4,0.2-0.7,0.5-0.8,0.4c-0.3-0.1-0.5-0.3-0.6-0.6c0-0.2,0.3-0.4,0.4-0.6L180.1,42.4z"/>
		<path d="M177.5,45.1v-1.5l0,0l1.4,1l-0.9,0.9l0,0l-0.5-0.5L177.5,45.1z"/>
		<path d="M182.3,37.5l1.4-0.5l-0.2,1.6L182.3,37.5z"/>
		<path d="M188.5,37.5l1.1,0.8l-0.6,0.4L188.5,37.5L188.5,37.5z"/>
		<path d="M191.5,43.3l-1.1,0.5c-0.1-0.2-0.4-0.5-0.3-0.7c0.1-0.3,0.4-0.4,0.6-0.5C190.9,42.7,191.1,43.1,191.5,43.3z"/>
		<path d="M179.9,39.6c0.3,0.3,0.5,0.5,0.6,0.8s-0.3,0.4-0.4,0.6c-0.2-0.2-0.4-0.4-0.5-0.7C179.5,40.1,179.7,39.9,179.9,39.6z"/>
		<path d="M187.4,51.7c-0.3,0.1-0.6,0.2-0.9,0.2c-0.1,0-0.3-0.4-0.3-0.5c0.2-0.2,0.4-0.3,0.7-0.4C187.1,51.1,187.2,51.4,187.4,51.7z
			"/>
		<path d="M194.3,60.6c0.2,0.3,0.3,0.6,0.4,0.9c0,0.1-0.3,0.3-0.4,0.4c-0.2-0.2-0.4-0.4-0.5-0.7C193.7,61.1,194,60.9,194.3,60.6z"/>
		<path d="M184.4,43.9c0.2,0.2,0.4,0.4,0.5,0.6s-0.3,0.4-0.4,0.4c-0.2-0.1-0.4-0.2-0.5-0.4C184,44.3,184.2,44.1,184.4,43.9z"/>
		<path d="M188.7,32.1c-0.1,0.2-0.1,0.5-0.2,0.4c-0.2,0-0.4-0.1-0.6-0.2c0-0.1,0.1-0.4,0.1-0.4C188.3,32,188.5,32,188.7,32.1z"/>
		<path d="M184.1,42.7l-0.4-0.5c0.2-0.1,0.4-0.3,0.7-0.4c0.1,0,0.3,0.4,0.3,0.5S184.3,42.6,184.1,42.7z"/>
		<path d="M199.7,64.4l-0.4,0.2l-0.2-0.5c0.1,0,0.3-0.1,0.4,0S199.7,64.3,199.7,64.4z"/>
		<path d="M182.3,36.5v1l-0.9-0.4L182.3,36.5z"/>
		<path d="M192.6,42.9l-0.4,0c0-0.1,0-0.2,0-0.4c0,0,0.2,0,0.2,0C192.5,42.7,192.5,42.8,192.6,42.9z"/>
		<path d="M212.9,65.8l0.1-0.1c0.1,0.1,0.2,0.1,0.2,0.2s-0.1,0.1-0.1,0.1L212.9,65.8z"/>
		<path d="M192.9,45l0.1,0.1c-0.1,0.1-0.1,0.2-0.2,0.2c0,0-0.1-0.1-0.1-0.1L192.9,45z"/>
		<path d="M178,45.6l-0.7,0.5l0.2-1l0,0L178,45.6L178,45.6z"/>
		<path d="M179.9,46.1c0.1,0.1,0.2,0.2,0.2,0.3s-0.2,0.2-0.3,0.2c-0.1-0.1-0.2-0.2-0.2-0.3S179.7,46.1,179.9,46.1z"/>
		<path d="M186.3,39.9l-0.1,0.1l-0.2-0.3c0.1,0,0.1-0.1,0.2,0S186.3,39.9,186.3,39.9z"/>
		<path d="M193.4,53.5l-0.2-0.3c0,0,0.1-0.1,0.1-0.1c0.1,0.1,0.1,0.2,0.2,0.3L193.4,53.5z"/>
		<path d="M186.9,32.5l-0.1,0.2l-0.1-0.3L186.9,32.5z"/>
		<path d="M188.8,50.9c0.1-0.1,0.1-0.2,0.1-0.2s0.1,0,0.2,0.1L188.8,50.9z"/>
		<path d="M193.6,119.8l3.2,2c-0.1,0.2-0.2,0.3-0.3,0.5c-1.1-0.5-2.1-1-3.1-1.5C193.4,120.4,193.4,120.1,193.6,119.8z"/>
		<path d="M185,96.4c0.5,0.6,1.1,1,1,1.4c-0.2,0.5-0.5,0.8-1,0.9c-0.5-0.1-0.9-0.5-1.1-1C183.9,97.4,184.5,97,185,96.4z"/>
		<path d="M188.3,101.2l-0.9,0.7c-0.3-0.6-0.7-1.3-0.9-2c-0.1-0.2,0.4-0.5,0.5-0.7L188.3,101.2z"/>
		<path d="M185.9,84.9l0.8,0.4c-0.2,0.2-0.4,0.5-0.6,0.5c-0.3-0.1-0.6-0.2-0.9-0.4L185.9,84.9z"/>
		<path d="M195.9,116.8c-0.4,0.3-0.7,0.6-0.8,0.6s-0.4-0.4-0.5-0.6c0-0.1,0.3-0.4,0.4-0.4C195.2,116.5,195.6,116.6,195.9,116.8z"/>
		<path d="M184.7,95.7c-0.5,0.3-0.7,0.5-0.9,0.5s-0.4-0.3-0.6-0.5c0.2-0.2,0.4-0.5,0.7-0.5S184.3,95.4,184.7,95.7z"/>
		<path d="M184.7,102.4c-0.3-0.4-0.6-0.6-0.6-0.9s0.4-0.5,0.6-0.5c0.3,0.1,0.5,0.3,0.6,0.6C185.3,101.8,185,102.1,184.7,102.4z"/>
		<path d="M193.9,133.5l0.6,0.4l-0.5,0.6c-0.2-0.1-0.4-0.3-0.4-0.5S193.7,133.8,193.9,133.5z"/>
		<path d="M188.4,125.8c0.4-0.3,0.6-0.6,0.8-0.6s0.5,0.4,0.5,0.6c-0.1,0.3-0.3,0.5-0.5,0.6C189,126.3,188.8,126.1,188.4,125.8z"/>
		<path d="M190.9,125.4c0.2,0.2,0.5,0.3,0.5,0.4c-0.1,0.2-0.2,0.4-0.4,0.6c-0.1-0.1-0.4-0.3-0.4-0.4S190.8,125.7,190.9,125.4z"/>
		<path d="M190.3,128.7c0.1,0.2,0.2,0.3,0.2,0.5c0,0.1-0.3,0.2-0.3,0.2c-0.1-0.1-0.3-0.3-0.4-0.4L190.3,128.7z"/>
		<path d="M184.9,99.4l0.3,0.6c-0.2,0.1-0.4,0.3-0.6,0.2s-0.2-0.3-0.4-0.5L184.9,99.4z"/>
		<path d="M190.7,130.6l-0.3,0.2c0-0.1-0.1-0.2-0.1-0.2c0.1-0.1,0.2-0.2,0.3-0.2L190.7,130.6z"/>
		<path d="M191.2,108.5l-0.3,0.2c0,0-0.1-0.1-0.1-0.1c0.1-0.1,0.2-0.1,0.2-0.2L191.2,108.5z"/>
		<path d="M192.4,134.2c-0.1,0-0.2-0.1-0.2-0.1s0.1-0.1,0.1-0.2L192.4,134.2z"/>
		<path d="M202.9,166.1l-0.5,1l0,0c-1.4-1-2-2.1-0.3-3.4c0.3-0.2,0.3-0.9,0.5-1.3c0.1-0.2,0.5-0.2,0.8-0.3c0.2,1,0.4,2,0.6,3
			s-0.4,1.1-1.1,1.1l-0.1-0.6l-0.2,0.1L202.9,166.1z"/>
		<path d="M204.3,160.6c-1.1,0.4-1.8,0.7-2.6,0.9c-0.1,0-0.4-0.4-0.5-0.6c0.7-0.5,1.4-0.9,2.1-1.3
			C203.3,159.5,203.7,160,204.3,160.6z"/>
		<path d="M203.1,228.2l-1.1,1c-0.3-0.3-0.7-0.7-0.7-1.1c0-0.4,0.4-0.7,0.6-1.1L203.1,228.2z"/>
		<path d="M199.6,159.4c0.1,0.1,0.1,0.3,0.2,0.4c0.1,0.6,0.1,1.1,0.2,1.7c-0.3-0.1-0.8-0.2-1-0.4c-0.5-0.7-0.7-1.4,0.5-1.8
			L199.6,159.4z"/>
		<path d="M203.4,174.7c0,0.1,0,0.2,0,0.2c-0.5,0.5-1.1,0.9-1.6,1.4c0,0-0.3-0.2-0.5-0.4c0.5-0.4,1.1-0.8,1.6-1.2
			C203.1,174.7,203.2,174.7,203.4,174.7L203.4,174.7z"/>
		<path d="M203.1,231.1c-0.6,0.2-0.9,0.4-1.1,0.3c-0.3-0.1-0.5-0.3-0.6-0.6c0-0.2,0.3-0.4,0.4-0.7L203.1,231.1z"/>
		<path d="M203.4,240.5l-1.2-0.1l0.3-0.7L203.4,240.5L203.4,240.5z"/>
		<path d="M201,163.1l0.5-0.5c0.1,0.1,0.3,0.3,0.4,0.5c0,0.1-0.2,0.3-0.2,0.3C201.4,163.3,201.2,163.2,201,163.1z"/>
		<path d="M200.7,166.3c-0.1,0.1-0.1,0.2-0.2,0.4c-0.1-0.1-0.3-0.1-0.3-0.2s0.1-0.2,0.1-0.4L200.7,166.3z"/>
		<path d="M202.4,167.1l0.6,0.9l-0.6,0.2L202.4,167.1L202.4,167.1z"/>
		<path d="M202.7,242.2c-0.1,0-0.3-0.1-0.4-0.2c-0.1-0.1,0.1-0.2,0.1-0.3c0.1,0,0.3,0.1,0.4,0.2C202.9,242,202.8,242.1,202.7,242.2z
			"/>
		<path d="M202.6,177.5c0,0.1,0,0.1-0.1,0.2c0,0-0.1,0-0.2,0l0.1-0.3L202.6,177.5z"/>
		<path d="M200.4,240.8c0.1,0,0.1-0.1,0.2-0.1s0.1,0.1,0.1,0.2l-0.3,0.1L200.4,240.8z"/>
		<path d="M200.7,239.1c-0.1,0-0.1,0.1-0.2,0.1c0,0-0.1-0.1-0.1-0.1l0.3-0.1L200.7,239.1z"/>
		<path d="M201.5,235.5c0,0.1,0,0.2,0,0.3h-0.2c0-0.1,0-0.2,0-0.3C201.4,235.5,201.5,235.5,201.5,235.5z"/>
		<path d="M203,238.3l0.1,0.2l-0.2,0.1L203,238.3z"/>
		<path d="M274.4,70.9l-1.8-0.9c0.4-0.4,0.9-1.1,1.2-1c0.6,0.1,1,0.7,1.5,1.1L274.4,70.9z"/>
		<path d="M280.1,62.6c-0.7,0.5-1.4,0.9-2.1,1.3c-0.2,0.1-0.5-0.3-0.8-0.4c0.5-0.4,1.1-0.8,1.6-1.2C279,62.1,279.4,62.4,280.1,62.6z
			"/>
		<path d="M276,67.6c-0.4,0.3-0.5,0.6-0.8,0.7c-0.1,0-0.5-0.4-0.5-0.5c0.1-0.3,0.3-0.5,0.5-0.6C275.3,67.1,275.6,67.3,276,67.6z"/>
		<path d="M274.7,74.1c-0.3,0-0.6,0-0.7-0.1c-0.1-0.1,0-0.4,0-0.6c0.1,0,0.3,0,0.4,0C274.5,73.6,274.6,73.8,274.7,74.1z"/>
		<path d="M274.7,72l-0.3,0.2c-0.1-0.1-0.1-0.2-0.2-0.3c0,0,0.1-0.1,0.1-0.1C274.4,71.8,274.6,71.9,274.7,72z"/>
		<path d="M155,76.9l0.7-0.9c0.4,0.8,0.9,1.6,1.2,2.4c0.1,0.1-0.3,0.4-0.5,0.6L155,76.9z"/>
		<path d="M154.3,74.8l-1,1.4c-0.3-0.3-0.8-0.6-0.8-0.9c0.1-0.5,0.4-1,0.7-1.4L154.3,74.8z"/>
		<path d="M151.6,81.1c0,0.3,0.1,0.6,0.1,0.9c0,0.5,0,1,0,1.6c-0.5-0.6-1.3-1.2-1.4-2C150.1,80.6,150.9,80.9,151.6,81.1L151.6,81.1z
			"/>
		<path d="M151.6,81.1l1.2-1.1l0.4,0.8L151.6,81.1L151.6,81.1z"/>
		<path d="M154.9,79.6c-0.3,0.2-0.6,0.5-0.7,0.5c-0.2-0.2-0.4-0.4-0.5-0.6c0-0.1,0.4-0.4,0.5-0.4S154.6,79.3,154.9,79.6z"/>
		<path d="M157.5,79.8c0.2,0.2,0.5,0.4,0.5,0.4c-0.1,0.2-0.2,0.4-0.4,0.6c-0.1-0.1-0.4-0.3-0.4-0.4S157.4,80,157.5,79.8z"/>
		<path d="M149.1,83.6c-0.2-0.2-0.3-0.5-0.4-0.8c0-0.1,0.3-0.3,0.4-0.4c0.2,0.2,0.4,0.4,0.5,0.6C149.6,83.1,149.3,83.2,149.1,83.6z"
			/>
		<path d="M155.3,80.8c0.2,0.2,0.4,0.4,0.4,0.6s-0.3,0.4-0.4,0.4c-0.2-0.1-0.4-0.2-0.4-0.4C154.9,81.2,155.1,81.1,155.3,80.8z"/>
		<path d="M158.6,77.6c-0.2-0.2-0.4-0.4-0.4-0.6s0.2-0.3,0.4-0.4c0.2,0.1,0.4,0.3,0.4,0.5S158.7,77.4,158.6,77.6z"/>
		<path d="M157.6,75.3l0.1-0.2c0.1,0.1,0.2,0.2,0.3,0.2c0,0-0.1,0.1-0.1,0.2L157.6,75.3z"/>
		<path d="M147.9,86.1c-0.1,0-0.1,0.1-0.2,0s-0.1-0.1-0.1-0.1l0.3-0.1L147.9,86.1z"/>
		<path d="M172.2,66.7l-0.6-0.3l0.2-0.2L172.2,66.7L172.2,66.7z"/>
		<path d="M353.9,152.6l0.1-0.1c0.1,0.1,0.2,0.1,0.2,0.2c0,0-0.1,0.1-0.1,0.1L353.9,152.6z"/>
		<path d="M355.5,154.1v0.5h-0.6L355.5,154.1z"/>
		<path d="M163.1,75.4L163.1,75.4z"/>
		<path d="M57,113.3L57,113.3z"/>
		<path d="M360.4,159.8l-0.4-0.1L360.4,159.8L360.4,159.8z"/>
	</g>
</g>
</svg>
