<svg xmlns="http://www.w3.org/2000/svg" viewBox="0 0 99.22 99.22"><defs><style>.cls-1{fill:none;stroke:#231f20;stroke-miterlimit:10;}.cls-2{fill:#231f20;}</style></defs><title>Asset 27</title><g id="Layer_2" data-name="Layer 2"><g id="Layer_1-2" data-name="Layer 1"><circle class="cls-1" cx="49.61" cy="49.61" r="49.11"/><circle class="cls-1" cx="49.61" cy="49.61" r="46.6"/><path class="cls-2" d="M78.33,70.13l-8.19,8.2L49.7,57.86,29.27,78.32l-8.21-8.25L41.35,49.79,20.88,29.34,29.23,21,49.57,41.35,70,20.89l8.34,8.36Q68.17,39.39,57.88,49.69Z"/><path class="cls-2" d="M40.43,51.33h0l0,0Z"/><path class="cls-2" d="M23.71,25.42a.14.14,0,0,1,0-.06l0,0Z"/><path class="cls-2" d="M23.69,25.39l0,0h0Z"/><path class="cls-2" d="M29.89,13.58h0l0,0Z"/><path class="cls-2" d="M11.09,74.19a.63.63,0,0,0,.07.57c1.2,1.14.94,3.52,3.2,3.76.25,0,.48.27.72.41,0-.3.07-.61.11-.92l.39-.48c-1.28-1.17-2.56-2.34-3.86-3.48C11.61,74,11.24,74.06,11.09,74.19Z"/><path class="cls-2" d="M40.45,51.29h0"/><path class="cls-2" d="M70.67,9.49a12.58,12.58,0,0,0-1.89-.74.91.91,0,0,0-.68.3c-.33.65-.57,1.31-.84,2,1-.31,2-.59,2.94-.94A1.09,1.09,0,0,0,70.67,9.49Z"/><path class="cls-2" d="M21.76,83.79,20,81.74l-1.78,2.18a6.63,6.63,0,0,0,1.85.66C20.54,84.6,21,84.16,21.76,83.79Z"/><path class="cls-2" d="M28.29,23.43a6.75,6.75,0,0,0,.15-.86,4.41,4.41,0,0,0-.31-1,10.44,10.44,0,0,0-.08,1.32A1.82,1.82,0,0,0,28.29,23.43Z"/><path class="cls-2" d="M17.33,70.08l.59.47-.34-.68Z"/><path class="cls-2" d="M18,70.62l0,0-.06,0Z"/><path class="cls-2" d="M13.52,69l-.09-.2a2.14,2.14,0,0,0-.32.2,1.32,1.32,0,0,0,.09.19Z"/><path class="cls-2" d="M17.44,64.62c0-.1-.15-.17-.23-.26a1.07,1.07,0,0,0-.1.41c0,.09.14.18.23.28A1.55,1.55,0,0,0,17.44,64.62Z"/><path class="cls-2" d="M29.92,13.49l-.05.07,0,0Z"/><path class="cls-2" d="M30.13,12.72l-.21.77.51-.62Z"/></g></g></svg>