<svg xmlns="http://www.w3.org/2000/svg" viewBox="0 0 99.22 99.22"><defs><style>.cls-1{fill:none;stroke:#231f20;stroke-miterlimit:10;}.cls-2{fill:#231f20;}</style></defs><title>Asset 21</title><g id="Layer_2" data-name="Layer 2"><g id="Layer_1-2" data-name="Layer 1"><circle class="cls-1" cx="49.61" cy="49.61" r="49.11"/><circle class="cls-1" cx="49.61" cy="49.61" r="46.6"/><path class="cls-2" d="M16.7,55,24.52,47,40.18,62.4,74.86,24.71l8.21,7.56Q61.83,55.37,40.59,78.43Z"/><path class="cls-2" d="M57,92.8a5.45,5.45,0,0,0-1.14-.33q-7.68-.45-15.36-.85a6.75,6.75,0,0,0-1.33.18,5.62,5.62,0,0,0,1.24.59c3.06.59,6.12,1.15,8.94,1.67,2.32-.32,4.32-.6,6.33-.9A12.28,12.28,0,0,0,57,92.8Z"/><path class="cls-2" d="M20.46,79.37c0,.1.63.44.67.4a6.41,6.41,0,0,0,.67-1l-.9-.51A5.49,5.49,0,0,0,20.46,79.37Z"/><path class="cls-2" d="M94.37,44.77a5.28,5.28,0,0,0-.86,1.52,9.8,9.8,0,0,0,0,2.16,10,10,0,0,0,1.31-1.91,4.4,4.4,0,0,0-.1-1.71c-.24-1.44-.17-3.06-.85-4.25-.31-.55-2.08-.26-3.2-.36.93,1.41,1.84,2.84,2.8,4.22C93.67,44.65,94.08,44.66,94.37,44.77Z"/><path class="cls-2" d="M23,28c-.64-2.18-1.41-4.33-2.15-6.48l-1.42,1.84c.89,1.95,1.74,3.82,2.58,5.69C22.32,28.7,23,28.24,23,28Z"/><path class="cls-2" d="M17.42,65.53a8.2,8.2,0,0,1,1.69,1c-.78.31-1.16.62-1.44.55s-.65-.49-1-.76C16.94,66,17.26,65.49,17.42,65.53Z"/></g></g></svg>