<svg xmlns="http://www.w3.org/2000/svg" viewBox="0 0 99.22 99.22"><defs><style>.cls-1,.cls-3{fill:none;}.cls-1{stroke:#231f20;stroke-miterlimit:10;}.cls-2{fill:#231f20;}</style></defs><title>Asset 30</title><g id="Layer_2" data-name="Layer 2"><g id="Layer_1-2" data-name="Layer 1"><path class="cls-1" d="M49.61.5a49.11,49.11,0,0,1,0,98.22"/><path class="cls-1" d="M49.61,98.72A49.11,49.11,0,0,1,49.61.5"/><path class="cls-1" d="M49.61,3A46.6,46.6,0,1,1,3,49.61,46.6,46.6,0,0,1,49.61,3"/><g id="XxPbRv.tif"><path class="cls-2" d="M78.77,51.39l-.23,0H70.61c-.28,0-.32.12-.33.35a25.75,25.75,0,0,1-.69,5.46,20.66,20.66,0,0,1-18.82,15.4,21.3,21.3,0,0,1-10.31-2.06A20.7,20.7,0,0,1,28.94,53,20.79,20.79,0,0,1,45.05,31.77l1.58-.35c.2,3.48.06,6.88.13,10.34L70.19,27.1,46.74,12.6v.5c0,3.14,0,6.29,0,9.43,0,.27-.07.39-.35.43-.76.11-1.51.25-2.27.4A28.23,28.23,0,0,0,29.6,30.78c-7.06,6.76-10,15.07-9,24.78a26.5,26.5,0,0,0,3.79,11.22A28.75,28.75,0,0,0,46.25,80.93a27.86,27.86,0,0,0,9.33-.42A28.45,28.45,0,0,0,68.5,74.19a28.79,28.79,0,0,0,9.2-14.41,34.24,34.24,0,0,0,1.06-6.52C78.81,52.65,78.77,52,78.77,51.39Z"/><path class="cls-2" d="M78.77,51.39c0,.64,0,1.26,0,1.87a34.24,34.24,0,0,1-1.06,6.52,28.79,28.79,0,0,1-9.2,14.41,28.45,28.45,0,0,1-12.92,6.32,27.86,27.86,0,0,1-9.33.42A28.75,28.75,0,0,1,24.43,66.78a26.5,26.5,0,0,1-3.79-11.22c-1-9.71,1.9-18,9-24.78a28.23,28.23,0,0,1,14.53-7.42c.76-.15,1.51-.29,2.27-.4.28,0,.35-.16.35-.43,0-3.14,0-6.29,0-9.43v-.5L70.19,27.1,46.76,41.76c-.07-3.46.07-6.86-.13-10.34l-1.58.35a20.69,20.69,0,0,0-4.59,38.74,21.3,21.3,0,0,0,10.31,2.06,20.66,20.66,0,0,0,18.82-15.4,25.75,25.75,0,0,0,.69-5.46c0-.23,0-.35.33-.35h7.93Z"/></g><circle class="cls-3" cx="49.61" cy="50.98" r="25.67"/><path class="cls-2" d="M20.12,39.07c.66.55,1.33,1.09,2,1.63l-1.62-2Z"/><path class="cls-2" d="M22.39,41l.07-.05-.34-.28Z"/><path class="cls-2" d="M9,41.68c.38.32.72.81,1.15.92s.81-.29,1.73-.68a10.63,10.63,0,0,0-2-1.18C9.64,40.69,9.26,41.35,9,41.68Z"/><path class="cls-2" d="M64.92,47.44a6.3,6.3,0,0,0,.65,2.17c.67-.62,1.31-1,1.29-1.26a7.35,7.35,0,0,0-.7-1.89C65.72,46.78,65,47.07,64.92,47.44Z"/><path class="cls-2" d="M43.53,42a1.88,1.88,0,0,0,0,.45,6.25,6.25,0,0,0,.87.08c0-.16,0-.32,0-.48Z"/><path class="cls-2" d="M77.65,12.36c-1.26-.63-2.49-1.68-3.78-1.75-.87,0-1.8,1.31-2.57,1.92.75,2.4,1.2,3.81,1.64,5.22Z"/><path class="cls-2" d="M48.84,40.44c.17.26.3.62.54.76s.49-.16.77-.27c-.19-.27-.32-.62-.57-.76S49.09,40.34,48.84,40.44Z"/><path class="cls-2" d="M20.76,83.83c-.14,1,.58,2.13,1.15,3.8,1.17-1.09,2.32-1.7,2.28-2.21A12.31,12.31,0,0,0,23,82.1C22.17,82.67,20.84,83.17,20.76,83.83Z"/></g></g></svg>